<svg class="icon" viewBox="0 0 1024 1024" xmlns="http://www.w3.org/2000/svg" width="81" height="81"><path d="M666.266 629.453 552.499 516.966c-20.787-20.582-54.323-20.53-75.11.103L364.083 629.555c-20.89 20.736-21.043 54.528-.256 75.469 20.736 20.89 54.528 21.043 75.469.256l22.63-22.426v189.594c0 29.44 23.91 53.35 53.35 53.35s53.351-23.91 53.351-53.35V682.906l22.682 22.425a53.146 53.146 0 0 0 37.53 15.411c13.772 0 27.494-5.273 37.939-15.82 20.633-20.941 20.428-54.733-.512-75.47z" fill="#FFE37B"/><path d="M820.992 469.504h-5.376c-3.072-163.328-136.346-294.81-300.442-294.81s-297.318 131.43-300.39 294.81h-5.376c-100.71 0-182.374 81.664-182.374 182.374s81.664 182.375 182.374 182.375h209.766v-72.397c-30.208 5.58-62.464-3.38-85.657-26.726-37.325-37.581-37.069-98.51.512-135.783l113.305-112.486c37.223-36.967 97.844-37.018 135.168-.154L696.27 599.194c18.227 18.022 28.365 42.086 28.518 67.737.154 25.651-9.728 49.818-27.75 68.045a95.401 95.401 0 0 1-68.301 28.518c-5.94 0-11.776-.512-17.51-1.587v72.346h209.766c100.71 0 182.374-81.664 182.374-182.375s-81.664-182.374-182.374-182.374z" fill="#8C7BFD"/></svg>