<svg class="icon" viewBox="0 0 1032 1024" xmlns="http://www.w3.org/2000/svg" width="201.563" height="200"><path d="M12.24 507.356a504.846 504.846 0 101009.691 0 504.846 504.846 0 10-1009.691 0z" fill="#FFE0C8"/><path d="M452.836 575.75c-146.45 64.205-190.364 98.456-207.757 113.809-26.736 23.728-41.552 111.877-57.335 186.82h662.57c-15.784-74.941-30.6-163.198-57.335-186.82-17.394-15.353-59.697-48.745-206.148-112.844l-133.995-.966z" fill="#FFD16E"/><path d="M590.16 447.873v162.341c-39.082 47.887-103.074 46.275-142.155 0v-162.34c0-87.72 142.155-87.72 142.155 0z" fill="#FFDECC"/><path d="M590.16 447.873V556.53c-26.95 19.647-52.826 30.6-71.078 30.6s-44.235-10.952-71.077-30.6V447.873c0-87.72 142.155-87.72 142.155 0z" fill="#F7C5AA"/><path d="M441.24 574.031l-50.462 27.272 73.117 101.355 55.51-52.612-78.165-76.015zm156.329 0l50.463 27.272-73.12 101.356-55.507-52.612 78.164-76.016z" fill="#FFF0E4"/><path d="M322.813 876.38h11.38c-.536-50.463-.536-86.753-.536-86.753s-5.046 37.794-10.844 86.753h-.001zm392.54 0h-11.38c.535-50.463.535-86.753.535-86.753s5.047 37.794 10.845 86.753z" fill="#BA8D3A"/><path d="M519.404 168.18c-238.572 0-152.785 288.283-137.217 311.26 17.179 25.338 98.672 92.443 137.218 92.443 38.545 0 120.038-67.105 137.216-92.443 15.568-22.976 101.355-311.26-137.216-311.26z" fill="#FFF0E4"/><path d="M336.02 357.47c12.561-4.081 28.452 10.092 35.539 31.78 7.085 21.689 2.79 42.518-9.77 46.706-12.563 4.08-28.454-10.093-35.54-31.78-7.087-21.69-2.684-42.52 9.77-46.707zm366.124 0c-12.561-4.081-28.451 10.092-35.538 31.78-7.086 21.689-2.79 42.518 9.77 46.706 12.563 4.08 28.453-10.093 35.54-31.78 7.085-21.69 2.684-42.52-9.771-46.707z" fill="#FFDECC"/><path d="M410.318 264.597c-13.85 75.586-48.53 68.607-45.739 157.293-11.166-69.144-27.808-161.16 19.22-221.822 37.578-48.424 162.018-83.103 242.544-25.017 89.009 19.004 61.2 200.242 49.282 234.491-8.374-55.509-26.95-78.592-50.571-143.766-31.888 22.977-173.721 28.024-214.737-1.18h.001z" fill="#CC7C54"/></svg>