<svg width="2048" height="460"
    xmlns="http://www.w3.org/2000/svg">
    <path d="M665.974 190.278a135.86 135.86 0 0 0 41.933 32.589q21.76 11.008 59.494 16.742v-36.633a97.894 97.894 0 0 1-68.608-33.28h67.328v-39.168H686.3v-21.171h79.82V70.189H631.03l4.864-16.103h-42.215q-9.958 28.62-33.664 35.584v41.498h1.92v38.4h67.328q-22.784 28.544-70.016 34.048l.205 35.993q45.312-5.913 73.907-22.016a143.872 143.872 0 0 0 32.615-27.315zm-100.455-59.725a127.59 127.59 0 0 0 26.266-11.648 168.837 168.837 0 0 0 12.8-9.318l37.274-.205v21.171h-76.34zm343.757-69.017H826.46q-18.637 0-29.005 11.008a35.226 35.226 0 0 0-9.523 25.395v102.067q0 17.767 10.803 27.955 10.24 9.524 27.725 9.524h90.65a32.614 32.614 0 0 0 23.27-10.24q10.394-9.933 10.394-32.41V98.067a34.637 34.637 0 0 0-10.394-26.24c-7.04-6.912-17.433-10.291-31.104-10.291zm2.33 124.697q0 12.084-14.413 12.084h-59.085q-11.648 0-11.648-12.084v-72.396q0-13.133 11.648-13.133h60.211q13.364 0 13.364 13.977l-.077 71.552zm9.933 66.279c-4.506-1.536-12.058-2.33-22.656-2.33H607.324q-41.933 0-41.933 38.4v89.344a38.4 38.4 0 0 0 9.114 26.266q10.368 11.443 30.49 11.417h294.963a77.466 77.466 0 0 0 23.27-2.739 33.024 33.024 0 0 0 11.034-7.833q10.573-10.599 10.573-32.18v-85.606q0-26.445-23.296-34.74v.001zm-16.077 109.9c0 5.377-1.075 9.037-3.175 11.009s-9.318 3.174-21.606 3.174H621.3q-16.742 0-16.742-12.058V351.2h300.903v11.213l.001-.001zm0-50.38H604.559v-11.239q0-12.057 13.568-12.057h271.028c10.854 0 16.307 4.377 16.307 13.133v10.163zm456.217-257.715h-38.886v46.387h-74.522V54.317h-39.168v46.387h-28.595v39.168h84.915v42.982q0 1.075-1.05 20.762c-.153 2.38-.28 5.99-.434 10.777h-83.43v39.194h77.08q-16.511 64-45.516 96.333a160.333 160.333 0 0 1-31.565 25.42v39.373a134.042 134.042 0 0 0 22.451-8.473q22.016-11.392 41.703-35.354 22.886-27.315 40.96-76.006 18.201 42.726 41.293 71.142a227.84 227.84 0 0 0 57.395 49.127v-46.08a169.242 169.242 0 0 1-42.573-46.08q-14.874-22.63-29.44-69.12h72.832v-39.373h-79.77a183.987 183.987 0 0 1-2.099-32.794v-41.728h81.92v-39.168h-23.5v-46.49l-.001.001zM993.961 94.765h16.102v238.08h-16.102v38.963h127.078v42.982h39.168v-43.06h16.512v-38.962h-16.512V94.688h16.512V55.52H993.961v39.245zm55.27 0h71.68v57.164h-71.552l-.128-57.164zm0 96.358h71.68v51.2h-71.552l-.128-51.2zm0 90.42h71.68v51.2h-71.552l-.128-51.2zm370.893-190.158h105.907v325.402h55.68V91.385h105.933v-20.89h-267.52v20.89zm496.922-18.33h-135.22c-37.734 0-69.12 30.055-69.12 67.047v58.65c0 36.992 31.514 64.128 69.12 64.128h149.53v79.897c0 29.312-24.576 52.762-54.605 52.762h-54.604c-29.696 0-54.247-23.45-54.247-52.762v-27.494h-55.321v34.458c0 37.376 31.513 67.404 69.12 67.404h135.219c37.76 0 69.273-30.028 69.273-67.404V140.102c.128-36.992-31.385-67.046-69.145-67.046v-.001zm14.31 168.577h-109.21a53.965 53.965 0 0 1-54.246-53.504v-40.679a53.76 53.76 0 0 1 54.247-53.145h54.604c30.03 0 54.605 23.45 54.605 53.145v94.183z" fill="#4B6BF6"/>
    <path d="M443.27 199.968c-5.308-49.148-39.684-83.672-88.79-97.212 37.502 14.776 62.97 44.337 67.35 84.626 8.635 77.615-69.309 167.053-166.172 194.434-91.88 25.976-186.25-3.877-194.836-81.663a121.412 120.867 0 0 1 1.705-35.779 137.223 136.607 0 0 0-6.286 56.622c9.211 84.154 106.871 133.463 213.754 100.014S452.492 284.132 443.27 199.968z" fill="#F5C51D"/>
    <path d="M90.617 303.89h88.59l17.263-56.39c12.108 14.896 32.681 22.941 57.27 22.941 16.255 0 35.164-3.887 47.191-12.917l.615.472c-8.586 12.907-23.59 25.513-44.395 34.845-14.984 6.378-33.438 10.266-51.862 10.888-12.037 0-18.283.312-25.154-.472l-13.58 49.982c7.495.472 14.367 1.095 31.56.944 40.168-.783 83.131-11.51 114.53-31.73 40.158-25.675 74.373-70.775 80.003-125.227 5.045-49.309-22.198-85.088-84.684-85.088-61.125-.05-113.925 38.853-121.927 88.423a65.272 64.979 0 0 1 .232-9.322c5.287-51.619 62.326-92.993 128.717-92.993a170.318 169.553 0 0 1 20.473 1.246l15.942-42.188H85.612l-18.585 53.388h87.964L90.617 303.89zM258.11 198.27c1.726-18.974 19.524-39.354 38.907-39.354h.464c18.596 0 27.031 12.596 25.477 28.125-.464 5.153-1.715 12.315-3.733 16.533a32.419 32.273 0 0 1-7.063 11.35c-5.045 4.832-15.8 10.578-29.533 10.578-14.973-.02-26.234-10.125-24.508-27.231h-.01v-.001z" fill="#4B6BF6"/>
</svg>