<svg xmlns="http://www.w3.org/2000/svg" viewBox="0 0 800 800" style="enable-background:new 0 0 800 800" xml:space="preserve"><style>.st26{fill:#fff}</style><g id="图层_9"><linearGradient id="SVGID_1_" gradientUnits="userSpaceOnUse" x1="401.044" y1="156.817" x2="401.044" y2="712.309"><stop offset="0" style="stop-color:#f4f2fb"/><stop offset="1" style="stop-color:#e1eef5"/></linearGradient><path d="M484.3 198.17c-38.37 30.29-120.74 33.81-181.17-2.22s-172-31.38-202.22 34.87 37.19 131.33 12.78 178.98S7.93 524.85 63.72 606.2s126.6 60.62 169.22 52.45c84.17-16.13 189.79 115.67 308.62 16.13 68.47-57.35 170.44 42.09 210.17-81.36 32.78-101.86-85.67-139.5-49.97-208.03 37.96-72.88 30.67-159.24-10.46-201.06-38.31-38.96-140.75-38.46-207 13.84z" style="fill:url(#SVGID_1_)"/><linearGradient id="SVGID_2_" gradientUnits="userSpaceOnUse" x1="532.221" y1="590.814" x2="532.221" y2="456.532"><stop offset="0" style="stop-color:#b0b9e1"/><stop offset=".866" style="stop-color:#eaf0f8"/></linearGradient><path style="fill:url(#SVGID_2_)" d="m420.94 460.53 237.72-4-33.41 134.28H405.78z"/><linearGradient id="SVGID_3_" gradientUnits="userSpaceOnUse" x1="116.125" y1="537.204" x2="116.125" y2="400.029"><stop offset=".227" style="stop-color:#b7ace0"/><stop offset=".789" style="stop-color:#e8e7fa"/></linearGradient><path d="M116.91 400.27s-.22-.57-.52.04c-2.7 5.49-27.15 64.96-29.09 110.86 0 0-4.08 26.37 30.11 26.02 28.54-.29 27.78-24.6 27.68-32.79-.39-33.22-28.18-104.13-28.18-104.13z" style="fill:url(#SVGID_3_)"/><linearGradient id="SVGID_4_" gradientUnits="userSpaceOnUse" x1="116.127" y1="415.261" x2="116.127" y2="566.394"><stop offset="0" style="stop-color:#ecf1fb"/><stop offset=".818" style="stop-color:#afb0e7"/></linearGradient><path d="M116.13 566.39c-.55 0-1-.45-1-1V416.26c0-.55.45-1 1-1s1 .45 1 1v149.13c0 .56-.45 1-1 1z" style="fill:url(#SVGID_4_)"/><linearGradient id="SVGID_5_" gradientUnits="userSpaceOnUse" x1="617.254" y1="445.682" x2="617.254" y2="357.357"><stop offset=".227" style="stop-color:#ccd4f4"/><stop offset=".789" style="stop-color:#ecf1fb"/></linearGradient><path d="M617.76 357.51s-.14-.37-.33.03c-1.74 3.53-17.48 41.83-18.73 71.38 0 0-2.63 16.98 19.39 16.76 18.38-.18 17.89-15.84 17.82-21.11-.25-21.4-18.15-67.06-18.15-67.06z" style="fill:url(#SVGID_5_)"/><linearGradient id="SVGID_6_" gradientUnits="userSpaceOnUse" x1="617.255" y1="367.165" x2="617.255" y2="464.477"><stop offset="0" style="stop-color:#ecf1fb"/><stop offset="1" style="stop-color:#a6a8e2"/></linearGradient><path d="M617.26 464.48c-.36 0-.64-.29-.64-.64v-96.02c0-.36.29-.64.64-.64s.64.29.64.64v96.02c0 .35-.29.64-.64.64z" style="fill:url(#SVGID_6_)"/><linearGradient id="SVGID_7_" gradientUnits="userSpaceOnUse" x1="463.172" y1="83.075" x2="428.418" y2="143.271"><stop offset="0" style="stop-color:#ffdb80"/><stop offset="1" style="stop-color:#ffbb24"/></linearGradient><circle cx="445.8" cy="113.17" r="34.75" style="fill:url(#SVGID_7_)"/><linearGradient id="SVGID_8_" gradientUnits="userSpaceOnUse" x1="420.835" y1="113.541" x2="420.835" y2="170.995"><stop offset="0" style="stop-color:#f9fafe"/><stop offset="1" style="stop-color:#e5edf7"/></linearGradient><path d="M465.57 132.12H431c-2.23-10.61-11.65-18.58-22.93-18.58s-20.69 7.97-22.93 18.58h-9.05c-10.73 0-19.44 8.7-19.44 19.44 0 10.73 8.7 19.44 19.44 19.44h89.47c10.73 0 19.44-8.7 19.44-19.44.01-10.73-8.69-19.44-19.43-19.44z" style="fill:url(#SVGID_8_)"/><g><linearGradient id="SVGID_9_" gradientUnits="userSpaceOnUse" x1="687.856" y1="534.922" x2="687.856" y2="507.094"><stop offset=".227" style="stop-color:#afb0e7"/><stop offset="1" style="stop-color:#ecf1fb"/></linearGradient><circle cx="687.86" cy="521.01" r="13.91" style="fill:url(#SVGID_9_)"/><linearGradient id="SVGID_10_" gradientUnits="userSpaceOnUse" x1="687.906" y1="510.607" x2="687.906" y2="555.403"><stop offset="0" style="stop-color:#dde1f6"/><stop offset=".818" style="stop-color:#a6a8e2"/></linearGradient><path d="M687.91 555.4c-.24 0-.43-.19-.43-.43v-43.94c0-.24.19-.43.43-.43s.43.19.43.43v43.94a.44.44 0 0 1-.43.43z" style="fill:url(#SVGID_10_)"/></g><g><linearGradient id="SVGID_11_" gradientUnits="userSpaceOnUse" x1="205.548" y1="376.992" x2="587.549" y2="376.992"><stop offset="0" style="stop-color:#c8cbf2"/><stop offset="1" style="stop-color:#afb0e7"/></linearGradient><path d="M587.55 508.1h-382V273.12c0-15.04 12.2-27.24 27.24-27.24h327.52c15.04 0 27.24 12.2 27.24 27.24V508.1z" style="fill:url(#SVGID_11_)"/><linearGradient id="SVGID_12_" gradientUnits="userSpaceOnUse" x1="241.486" y1="233.915" x2="551.611" y2="544.04"><stop offset=".116" style="stop-color:#dee4ff"/><stop offset=".847" style="stop-color:#bacbee"/></linearGradient><path d="M587.55 508.1h-382V281.14c0-15.04 12.2-27.24 27.24-27.24h327.52c15.04 0 27.24 12.2 27.24 27.24V508.1z" style="fill:url(#SVGID_12_)"/><path class="st26" d="M533.1 489.97H260c-18.46 0-33.42-14.96-33.42-33.42V304.86c0-18.46 14.96-33.42 33.42-33.42h273.1c18.46 0 33.42 14.96 33.42 33.42v151.69c0 18.46-14.96 33.42-33.42 33.42z"/><linearGradient id="SVGID_13_" gradientUnits="userSpaceOnUse" x1="166.454" y1="565.94" x2="625.534" y2="565.94"><stop offset="0" style="stop-color:#c8cbf2"/><stop offset="1" style="stop-color:#afb0e7"/></linearGradient><path d="m621.96 572.08-32.5-49.31H203.64l-32.87 48.57c-10.75 17.79.49 37.77 13.02 37.77h424.95c12.49 0 22.37-19.3 13.22-37.03z" style="fill:url(#SVGID_13_)"/><linearGradient id="SVGID_14_" gradientUnits="userSpaceOnUse" x1="319.538" y1="442.29" x2="457.865" y2="681.88"><stop offset=".116" style="stop-color:#dee4ff"/><stop offset=".847" style="stop-color:#c6d5f4"/></linearGradient><path d="m620.53 568.21-32.99-60.11h-382l-33.49 60c-6.29 11.27 1.42 25.48 13.84 25.48h420.74c12.37 0 20.09-14.1 13.9-25.37z" style="fill:url(#SVGID_14_)"/><linearGradient id="SVGID_15_" gradientUnits="userSpaceOnUse" x1="396.548" y1="545.415" x2="396.548" y2="575.213"><stop offset="0" style="stop-color:#c8cbf2"/><stop offset="1" style="stop-color:#afb0e7"/></linearGradient><path d="M455.65 575.21h-118.2c-3.84 0-6.2-4.41-4.23-7.87l11.07-19.41c.89-1.56 2.5-2.52 4.23-2.52h96.05c1.73 0 3.34.96 4.23 2.52l11.07 19.41c1.98 3.46-.39 7.87-4.22 7.87z" style="fill:url(#SVGID_15_)"/><ellipse class="st26" cx="460.01" cy="442.7" rx="5.38" ry="5.67"/><linearGradient id="SVGID_16_" gradientUnits="userSpaceOnUse" x1="372.699" y1="387.944" x2="382.033" y2="397.277"><stop offset=".116" style="stop-color:#dee4ff"/><stop offset=".847" style="stop-color:#bacbee"/></linearGradient><path d="M364.19 406.36a6.305 6.305 0 0 1-.16-8.92l21.96-22.78 9.09 8.76-21.96 22.78c-2.42 2.5-6.42 2.57-8.93.16z" style="fill:url(#SVGID_16_)"/><linearGradient id="SVGID_17_" gradientUnits="userSpaceOnUse" x1="403.944" y1="364.569" x2="423.57" y2="384.195"><stop offset=".116" style="stop-color:#dee4ff"/><stop offset=".847" style="stop-color:#bacbee"/></linearGradient><path d="m421.51 382.16-20.94-4.56 2.69-12.33 20.94 4.56c3.41.74 5.56 4.1 4.82 7.51-.75 3.4-4.11 5.56-7.51 4.82z" style="fill:url(#SVGID_17_)"/><linearGradient id="SVGID_18_" gradientUnits="userSpaceOnUse" x1="350.188" y1="338.788" x2="382.203" y2="370.802"><stop offset=".116" style="stop-color:#dee4ff"/><stop offset=".847" style="stop-color:#bacbee"/></linearGradient><path d="M384.66 368.34c-.08-.33-23.04-36.89-23.04-36.89l-20.82 16.72 43.86 20.17z" style="fill:url(#SVGID_18_)"/><linearGradient id="SVGID_19_" gradientUnits="userSpaceOnUse" x1="361.276" y1="308.106" x2="403.17" y2="349.999"><stop offset=".116" style="stop-color:#dee4ff"/><stop offset=".847" style="stop-color:#bacbee"/></linearGradient><path style="fill:url(#SVGID_19_)" d="m391.55 361.62-27.96-55.83 25.42 6.8z"/><linearGradient id="SVGID_20_" gradientUnits="userSpaceOnUse" x1="388.966" y1="330.18" x2="408.437" y2="349.651"><stop offset=".116" style="stop-color:#dee4ff"/><stop offset=".847" style="stop-color:#bacbee"/></linearGradient><path style="fill:url(#SVGID_20_)" d="m397.21 360.88-1.4-37.55 22.22 13.45z"/><linearGradient id="SVGID_21_" gradientUnits="userSpaceOnUse" x1="329.125" y1="398.979" x2="371.266" y2="441.12"><stop offset=".116" style="stop-color:#dee4ff"/><stop offset=".847" style="stop-color:#bacbee"/></linearGradient><path d="M367.29 415.15c-.06.07-.12.14-.18.2l-17.75 17.75a8.585 8.585 0 0 1-6.11 2.53c-2.31 0-4.48-.9-6.11-2.53a8.585 8.585 0 0 1-2.53-6.11c0-2.31.9-4.48 2.53-6.11l17.75-17.75a8.55 8.55 0 0 1 1.58-1.24c5.62-7.35 7.5-16.94 8.12-22.23-1.18-.14-2.38-.22-3.59-.22-7.96 0-15.44 3.1-21.07 8.73l-17.75 17.75c-5.63 5.63-8.73 13.11-8.73 21.07s3.1 15.44 8.73 21.07c5.63 5.63 13.11 8.73 21.07 8.73 7.96 0 15.44-3.1 21.07-8.73l17.75-17.75c5.63-5.63 8.73-13.11 8.73-21.07 0-1.71-.15-3.41-.43-5.06-7.79 2.31-18.02 8.01-23.08 10.97z" style="fill:url(#SVGID_21_)"/><linearGradient id="SVGID_22_" gradientUnits="userSpaceOnUse" x1="421.264" y1="351.647" x2="479.721" y2="410.103"><stop offset=".116" style="stop-color:#dee4ff"/><stop offset=".847" style="stop-color:#bacbee"/></linearGradient><path d="M488.94 367.56c-4.32-6.68-10.99-11.28-18.78-12.95l-26.87-5.75c-7.78-1.67-15.75-.2-22.43 4.12-1.61 1.04-3.1 2.23-4.46 3.52 2.76 3.02 8.99 8.46 20.88 12.86.52.01 1.05.07 1.58.19l26.87 5.75c4.66 1 7.64 5.6 6.64 10.26a8.566 8.566 0 0 1-3.75 5.44 8.616 8.616 0 0 1-6.5 1.2l-26.87-5.75c-.46-.1-.91-.24-1.34-.41-6.11-.17-18.39-.08-24.57 2.93.72 1.81 1.62 3.55 2.7 5.22 4.32 6.68 10.99 11.28 18.78 12.95l26.87 5.75c2.1.45 4.21.67 6.3.67 5.68 0 11.25-1.63 16.13-4.79 6.68-4.32 11.28-10.99 12.95-18.78 1.66-7.79.19-15.75-4.13-22.43z" style="fill:url(#SVGID_22_)"/></g><g><linearGradient id="SVGID_23_" gradientUnits="userSpaceOnUse" x1="232.922" y1="564.058" x2="232.922" y2="484.889"><stop offset="0" style="stop-color:#c3d5fd"/><stop offset="1" style="stop-color:#1a90fc"/></linearGradient><path d="M224.75 485.26s-19.21-2.66-25.45 6.17c-6.24 8.83-8.52 31.42-8.52 31.42l14.46-.76-1.22 26.32 26.68 15.64 38-20.44-5.78-23.85 12.14-3.17s-3.62-34.61-20.51-29.5c-8.67.93-11.41.77-11.41.77s-2.28 7.28-10.12 6.66-8.27-9.26-8.27-9.26z" style="fill:url(#SVGID_23_)"/><linearGradient id="SVGID_24_" gradientUnits="userSpaceOnUse" x1="234.02" y1="471.387" x2="234.02" y2="496.467"><stop offset="0" style="stop-color:#f4ae98"/><stop offset="1" style="stop-color:#fad1bb"/></linearGradient><path d="m226.67 474.38-3.99 17.8c-.19.84.25 1.69 1.04 2.01 2.06.84 6.19 2.27 10.44 2.27 4.4 0 8.56-2.41 10.47-3.7.66-.44.93-1.27.68-2.02l-6.1-18.16a1.762 1.762 0 0 0-1.98-1.17l-9.15 1.62c-.7.13-1.25.66-1.41 1.35z" style="fill:url(#SVGID_24_)"/><linearGradient id="SVGID_25_" gradientUnits="userSpaceOnUse" x1="250.435" y1="470.634" x2="217.659" y2="470.634"><stop offset="0" style="stop-color:#f4b9a4"/><stop offset=".652" style="stop-color:#fad1bb"/></linearGradient><path d="M249.73 472.26c.59-.85.97-3.02.49-3.65-.88-.71-1.71-.3-2.34.32.14-5.19-.32-9.5-.44-10.59-.32-3.18-3.56-9-14.13-9s-12.62 7.63-12.62 7.63-.69 5.4-.48 11.95c-.63-.6-1.45-.99-2.32-.29-.49.64-.11 2.81.49 3.65.59.85.97 2.86 1.08 3.97.1 1.06-.66 3.87 2.12 3.52 1.66 6.64 8.38 12.19 12.55 12.19 4.57 0 10.63-5.58 12.36-12.19 2.84.39 2.07-2.45 2.17-3.51.1-1.14.47-3.15 1.07-4z" style="fill:url(#SVGID_25_)"/><linearGradient id="SVGID_26_" gradientUnits="userSpaceOnUse" x1="213.148" y1="457.964" x2="251.202" y2="457.964"><stop offset="0" style="stop-color:#4f5c7c"/><stop offset="1" style="stop-color:#274168"/></linearGradient><path d="M240.93 447.07s-2.06-6.5-9.97-4.94c-7.91 1.55-8.44 5.29-11.55 5.44-5.3.25-9.53 6.85-2.74 13.84 3.03 3.11.47 4.45 1.91 7.2s1.43 5.44 1.43 5.44 2.61-5.07 2.76-8.89c.07-1.91 2.1-1.68 6.85-1.25 4.75.42 10.97-.67 11.56-3.9 1.4 6.62 3.02 3.63 4.8 4.63s1.89 9 1.89 9 .32-5.88 1.56-7.2c1.02-2.17 3.03-10.7.76-12.77-2.29-2.07-.38-8.7-9.26-6.6z" style="fill:url(#SVGID_26_)"/><linearGradient id="SVGID_27_" gradientUnits="userSpaceOnUse" x1="-499.85" y1="580.813" x2="-487.591" y2="494.5" gradientTransform="rotate(-8.082 -188.63 -4426.738)"><stop offset="0" style="stop-color:#c3d5fd"/><stop offset="1" style="stop-color:#1a90fc"/></linearGradient><path d="M202.82 488.35c5.59-1.86 13.17-.61 13.48 11.93s-11.98 32.53-7.58 39.48c4.46 7.05 14 17.05 20.06 22.75-1.41 6.7-5.22 12.33-5.22 12.33s-22.36-10.32-32.1-20.65c-9.74-10.33-4.82-34.03-.31-50.89 3.4-12.72 11.67-14.95 11.67-14.95z" style="fill:url(#SVGID_27_)"/><linearGradient id="SVGID_28_" gradientUnits="userSpaceOnUse" x1="-1099.801" y1="495.606" x2="-1087.543" y2="409.293" gradientTransform="scale(-1 1) rotate(-8.082 -117.765 -5429.794)"><stop offset="0" style="stop-color:#c3d5fd"/><stop offset="1" style="stop-color:#1a90fc"/></linearGradient><path d="M261.42 488.35c-5.59-1.86-13.17-.61-13.48 11.93s11.98 32.53 7.58 39.48c-4.46 7.05-14 17.05-20.06 22.75 1.41 6.7 5.22 12.33 5.22 12.33s22.36-10.32 32.1-20.65c9.74-10.33 4.82-34.03.31-50.89-3.41-12.72-11.67-14.95-11.67-14.95z" style="fill:url(#SVGID_28_)"/><linearGradient id="SVGID_29_" gradientUnits="userSpaceOnUse" x1="802.416" y1="1144.226" x2="802.416" y2="1108.803" gradientTransform="rotate(6.701 6075.973 -4169.533)"><stop offset="0" style="stop-color:#f4ae98"/><stop offset="1" style="stop-color:#fad1bb"/></linearGradient><path d="M212.08 485.87c-.09-.32 1.52-12.18 1.68-14.56s2.33-4.51 3.63-6.53c1.29-2.02-.19-2.91 3.64-4.51s6.43-2.94 6.96-2.1.04 1.25.04 1.25 2.3.49.28 2.36c-2.02 1.87-3.67 4.54-4.3 6.2 1.87-1.64 2.8-2.68 2.76-.51-.04 2.17-.11 3.31-1.96 5.61-1.85 2.3-1.48 4.92-2.13 7.05-.65 2.13-2.6 5.19-5.54 7.74-2.94 2.54-4.87 3.93-4.87 3.93l-.19-5.93z" style="fill:url(#SVGID_29_)"/><linearGradient id="SVGID_30_" gradientUnits="userSpaceOnUse" x1="204.602" y1="556.913" x2="204.602" y2="480.357"><stop offset="0" style="stop-color:#c3d5fd"/><stop offset="1" style="stop-color:#1a90fc"/></linearGradient><path d="m211 480.36 12.57 4.45s-3.48 80.76-31.4 71.34c-10.36-5.82-6.38-24.81-1.8-34.77 3.48-7.57 20.63-41.02 20.63-41.02z" style="fill:url(#SVGID_30_)"/><linearGradient id="SVGID_31_" gradientUnits="userSpaceOnUse" x1="12534.225" y1="-234.482" x2="12534.225" y2="-269.904" gradientTransform="scale(-1 1) rotate(6.701 -62.733 -109018.46)"><stop offset="0" style="stop-color:#f4ae98"/><stop offset="1" style="stop-color:#fad1bb"/></linearGradient><path d="M253.19 485.87c.09-.32-1.52-12.18-1.68-14.56-.15-2.37-2.33-4.51-3.63-6.53-1.29-2.02.19-2.91-3.64-4.51-3.82-1.6-6.43-2.94-6.96-2.1s-.04 1.25-.04 1.25-2.3.49-.28 2.36c2.02 1.87 3.67 4.54 4.3 6.2-1.87-1.64-2.8-2.68-2.76-.51.04 2.17.11 3.31 1.96 5.61 1.85 2.3 1.48 4.92 2.13 7.05.65 2.13 2.6 5.19 5.54 7.74 2.94 2.54 4.87 3.93 4.87 3.93l.19-5.93z" style="fill:url(#SVGID_31_)"/><linearGradient id="SVGID_32_" gradientUnits="userSpaceOnUse" x1="12017.145" y1="556.913" x2="12017.145" y2="480.357" gradientTransform="matrix(-1 0 0 1 12277.813 0)"><stop offset="0" style="stop-color:#c3d5fd"/><stop offset="1" style="stop-color:#1a90fc"/></linearGradient><path d="m254.27 480.36-12.57 4.45s3.48 80.76 31.4 71.34c10.36-5.82 6.38-24.81 1.8-34.77-3.48-7.57-20.63-41.02-20.63-41.02z" style="fill:url(#SVGID_32_)"/><linearGradient id="SVGID_33_" gradientUnits="userSpaceOnUse" x1="232.922" y1="535.466" x2="232.922" y2="585.777"><stop offset="0" style="stop-color:#275c89"/><stop offset="1" style="stop-color:#013f7c"/></linearGradient><path d="M205.53 585.78h54.29c2.46 0 4.66-1.86 5.51-4.67l10.94-36c1.42-4.67-1.42-9.64-5.51-9.64h-75.68c-4.05 0-6.89 4.88-5.54 9.54l10.45 36c.84 2.86 3.05 4.77 5.54 4.77z" style="fill:url(#SVGID_33_)"/><path class="st26" d="M203.37 602.33s-.84-1.85-1.48-2.05c-.65-.2-9.93-.57-13.32-1.45-3.39-.88-13.15-2.27-17.34 1.69-3.64 3.45-4.85 11.51.7 16.15 2.08 1.81 4.13 2.34 11.84 1.98 7.71-.36 18.89-.28 21.34-3.85-.08-5.9-1.74-12.47-1.74-12.47z"/><linearGradient id="SVGID_34_" gradientUnits="userSpaceOnUse" x1="-507.843" y1="607.49" x2="-490.032" y2="607.49" gradientTransform="matrix(-1 0 0 1 -291.788 0)"><stop offset="0" style="stop-color:#f4b9a4"/><stop offset=".652" style="stop-color:#fad1bb"/></linearGradient><path d="M211.98 600.29s-8.96 2.01-12.17 1.72c-3.2-.3-.52 12.62-.52 12.62s8.56.59 16.13-1.6c2.56-9.9-3.44-12.74-3.44-12.74z" style="fill:url(#SVGID_34_)"/><linearGradient id="SVGID_35_" gradientUnits="userSpaceOnUse" x1="208.773" y1="587.86" x2="300.654" y2="587.86"><stop offset="0" style="stop-color:#18264b"/><stop offset=".652" style="stop-color:#2d3c65"/></linearGradient><path d="m208.77 599.82 4.66 14.49s100.13-13.19 85.82-45.68c-11.96-27.17-90.48 31.19-90.48 31.19z" style="fill:url(#SVGID_35_)"/><linearGradient id="SVGID_36_" gradientUnits="userSpaceOnUse" x1="188.056" y1="598.837" x2="188.056" y2="617.743"><stop offset="0" style="stop-color:#ffdb80"/><stop offset="1" style="stop-color:#ffbb24"/></linearGradient><path d="M202.2 600.94s3.67 1.44 4.13 6.55c.47 5.12-1.05 8.55-8.85 9.5-7.8.95-9.78.59-14.67.71s-11.99.59-13.04-8.71 8.46-11.67 18.32-9.3c3.11.6 14.11 1.25 14.11 1.25z" style="fill:url(#SVGID_36_)"/><g><path class="st26" d="M265.85 602.33s.84-1.85 1.48-2.05c.65-.2 9.93-.57 13.32-1.45 3.39-.88 12.49-2.34 17.09 1.58 4.26 3.64 4.54 11.69-.31 16.13-2.08 1.81-4.27 2.47-11.98 2.11-7.71-.36-18.89-.28-21.34-3.85.08-5.9 1.74-12.47 1.74-12.47z"/><linearGradient id="SVGID_37_" gradientUnits="userSpaceOnUse" x1="253.165" y1="607.49" x2="270.976" y2="607.49"><stop offset="0" style="stop-color:#f4b9a4"/><stop offset=".652" style="stop-color:#fad1bb"/></linearGradient><path d="M257.24 600.29s8.96 2.01 12.17 1.72c3.2-.3.52 12.62.52 12.62s-8.56.59-16.13-1.6c-2.56-9.9 3.44-12.74 3.44-12.74z" style="fill:url(#SVGID_37_)"/><linearGradient id="SVGID_38_" gradientUnits="userSpaceOnUse" x1="168.565" y1="587.86" x2="260.447" y2="587.86"><stop offset="0" style="stop-color:#445677"/><stop offset="1" style="stop-color:#293861"/></linearGradient><path d="m260.45 599.82-4.66 14.49s-100.13-13.19-85.82-45.68c11.96-27.17 90.48 31.19 90.48 31.19z" style="fill:url(#SVGID_38_)"/><linearGradient id="SVGID_39_" gradientUnits="userSpaceOnUse" x1="281.164" y1="598.837" x2="281.164" y2="617.743"><stop offset="0" style="stop-color:#ffdb80"/><stop offset="1" style="stop-color:#ffbb24"/></linearGradient><path d="M267.02 600.94s-3.67 1.44-4.13 6.55c-.47 5.12 1.05 8.55 8.85 9.5 7.8.95 9.78.59 14.67.71s11.99.59 13.04-8.71-8.46-11.67-18.32-9.3c-3.11.6-14.11 1.25-14.11 1.25z" style="fill:url(#SVGID_39_)"/></g></g></g></svg>