<svg xmlns="http://www.w3.org/2000/svg" viewBox="0 0 800 800" style="enable-background:new 0 0 800 800" xml:space="preserve"><style>.st26{fill:#fff}</style><g id="图层_3"><linearGradient id="SVGID_1_" gradientUnits="userSpaceOnUse" x1="402.953" y1="163.11" x2="402.953" y2="718.601"><stop offset="0" style="stop-color:#f4f2fb"/><stop offset="1" style="stop-color:#e1eef5"/></linearGradient><path d="M486.21 204.46c-38.37 30.29-120.74 33.81-181.17-2.22s-172-31.38-202.22 34.87 37.19 131.33 12.78 178.98S9.84 531.14 65.63 612.49s126.6 60.62 169.22 52.45c84.17-16.13 189.79 115.67 308.62 16.13 68.47-57.35 170.44 42.09 210.17-81.36 32.78-101.86-85.67-139.5-49.97-208.03 37.96-72.88 30.67-159.24-10.46-201.06-38.31-38.95-140.75-38.46-207 13.84z" style="fill:url(#SVGID_1_)"/><linearGradient id="SVGID_2_" gradientUnits="userSpaceOnUse" x1="371.599" y1="555.537" x2="530.421" y2="280.45"><stop offset=".34" style="stop-color:#b0b9e1"/><stop offset=".866" style="stop-color:#eaf0f8"/></linearGradient><path style="fill:url(#SVGID_2_)" d="m201.13 453.35 116.91 71.26 267.39 58.02 114.4-204.37-314.94-30.92z"/><linearGradient id="SVGID_3_" gradientUnits="userSpaceOnUse" x1="118.034" y1="543.496" x2="118.034" y2="406.321"><stop offset=".227" style="stop-color:#b7ace0"/><stop offset=".789" style="stop-color:#e8e7fa"/></linearGradient><path d="M118.82 406.56s-.22-.57-.52.04c-2.7 5.49-27.15 64.96-29.09 110.86 0 0-4.08 26.37 30.11 26.02 28.54-.29 27.78-24.6 27.68-32.79-.39-33.22-28.18-104.13-28.18-104.13z" style="fill:url(#SVGID_3_)"/><linearGradient id="SVGID_4_" gradientUnits="userSpaceOnUse" x1="118.036" y1="421.553" x2="118.036" y2="572.686"><stop offset="0" style="stop-color:#ecf1fb"/><stop offset=".818" style="stop-color:#afb0e7"/></linearGradient><path d="M118.04 572.69c-.55 0-1-.45-1-1V422.55c0-.55.45-1 1-1s1 .45 1 1v149.13c0 .56-.45 1.01-1 1.01z" style="fill:url(#SVGID_4_)"/><linearGradient id="SVGID_5_" gradientUnits="userSpaceOnUse" x1="619.163" y1="451.974" x2="619.163" y2="363.649"><stop offset=".227" style="stop-color:#ccd4f4"/><stop offset=".789" style="stop-color:#ecf1fb"/></linearGradient><path d="M619.67 363.81s-.14-.37-.33.03c-1.74 3.53-17.48 41.83-18.73 71.38 0 0-2.63 16.98 19.39 16.76 18.38-.18 17.89-15.84 17.82-21.11-.26-21.41-18.15-67.06-18.15-67.06z" style="fill:url(#SVGID_5_)"/><linearGradient id="SVGID_6_" gradientUnits="userSpaceOnUse" x1="619.165" y1="373.457" x2="619.165" y2="470.769"><stop offset="0" style="stop-color:#ecf1fb"/><stop offset="1" style="stop-color:#a6a8e2"/></linearGradient><path d="M619.16 470.77c-.36 0-.64-.29-.64-.64V374.1c0-.36.29-.64.64-.64s.64.29.64.64v96.02c.01.36-.28.65-.64.65z" style="fill:url(#SVGID_6_)"/><linearGradient id="SVGID_7_" gradientUnits="userSpaceOnUse" x1="465.082" y1="89.367" x2="430.327" y2="149.564"><stop offset="0" style="stop-color:#ffdb80"/><stop offset="1" style="stop-color:#ffbb24"/></linearGradient><circle cx="447.7" cy="119.47" r="34.75" style="fill:url(#SVGID_7_)"/><linearGradient id="SVGID_8_" gradientUnits="userSpaceOnUse" x1="422.744" y1="119.834" x2="422.744" y2="177.287"><stop offset="0" style="stop-color:#f9fafe"/><stop offset="1" style="stop-color:#e5edf7"/></linearGradient><path d="M467.48 138.42h-34.57c-2.23-10.61-11.65-18.58-22.93-18.58s-20.69 7.97-22.93 18.58H378c-10.73 0-19.44 8.7-19.44 19.44 0 10.73 8.7 19.44 19.44 19.44h89.47c10.73 0 19.44-8.7 19.44-19.44.01-10.74-8.7-19.44-19.43-19.44z" style="fill:url(#SVGID_8_)"/><g><linearGradient id="SVGID_9_" gradientUnits="userSpaceOnUse" x1="689.766" y1="541.214" x2="689.766" y2="513.386"><stop offset=".227" style="stop-color:#afb0e7"/><stop offset="1" style="stop-color:#ecf1fb"/></linearGradient><circle cx="689.77" cy="527.3" r="13.91" style="fill:url(#SVGID_9_)"/><linearGradient id="SVGID_10_" gradientUnits="userSpaceOnUse" x1="689.815" y1="516.899" x2="689.815" y2="561.695"><stop offset="0" style="stop-color:#dde1f6"/><stop offset=".818" style="stop-color:#a6a8e2"/></linearGradient><path d="M689.81 561.7c-.24 0-.43-.19-.43-.43v-43.94c0-.24.19-.43.43-.43s.43.19.43.43v43.94c0 .23-.19.43-.43.43z" style="fill:url(#SVGID_10_)"/></g><g><linearGradient id="SVGID_11_" gradientUnits="userSpaceOnUse" x1="360.224" y1="549.997" x2="180.406" y2="370.178"><stop offset=".003" style="stop-color:#9a9adb"/><stop offset=".789" style="stop-color:#cecdf1"/></linearGradient><path d="M378.25 394.12c.1-1.25-1.2-2.13-2.32-1.57-10.08 5.02-47.77 20.97-72.57-6.71-27.99-31.24-54.9-36.74-87.87-48.71-.46-.17-.97-.12-1.39.14-.09.06-.19.12-.29.18-3.6 2.16-6.2 5.63-7.16 9.71-14.87 62.92-37.59 140.55-46.79 171.37-1.73 5.78 3.49 11.25 9.35 9.8 25.83-6.41 81.77-16.35 102.62 11.11 25.66 33.79 85.77 8.61 93.7 5.09.54-.24.9-.75.95-1.34l11.77-149.07z" style="fill:url(#SVGID_11_)"/><linearGradient id="SVGID_12_" gradientUnits="userSpaceOnUse" x1="2758.1" y1="441.597" x2="2541.595" y2="441.597" gradientTransform="matrix(-1 0 0 1 2924.265 0)"><stop offset=".23" style="stop-color:#f4f7ff"/><stop offset=".525" style="stop-color:#bfbeeb"/><stop offset="1" style="stop-color:#e9effb"/></linearGradient><path d="M382.67 385.83s-45.47 26.34-73.81-5.27c-27.48-30.65-49.38-50.78-89.74-44.77-2.31.34-4.17 2.08-4.7 4.35-15.47 65.95-40.17 149.48-48.04 175.71-1.06 3.52 2.16 6.84 5.71 5.89 22.31-5.99 83.85-19.27 105.81 9.62 27.02 35.56 92.92 4.61 92.92 4.61l11.85-150.14z" style="fill:url(#SVGID_12_)"/><linearGradient id="SVGID_13_" gradientUnits="userSpaceOnUse" x1="618.848" y1="524.814" x2="247.381" y2="310.347"><stop offset=".003" style="stop-color:#9a9adb"/><stop offset=".789" style="stop-color:#cecdf1"/></linearGradient><path d="M543.46 605.47H322.77c-27.57 0-49.91-22.35-49.91-49.91V279.61c0-27.57 22.35-49.91 49.91-49.91h220.68c27.57 0 49.91 22.35 49.91 49.91v275.94c.01 27.57-22.34 49.92-49.9 49.92z" style="fill:url(#SVGID_13_)"/><linearGradient id="SVGID_14_" gradientUnits="userSpaceOnUse" x1="272.354" y1="265.647" x2="583.981" y2="577.274"><stop offset=".116" style="stop-color:#dee4ff"/><stop offset=".847" style="stop-color:#bacbee"/></linearGradient><path d="M536.21 605.47H320.12c-26.1 0-47.26-21.16-47.26-47.26V284.72c0-26.1 21.16-47.26 47.26-47.26h216.09c26.1 0 47.26 21.16 47.26 47.26V558.2c.01 26.11-21.16 47.27-47.26 47.27z" style="fill:url(#SVGID_14_)"/><linearGradient id="SVGID_15_" gradientUnits="userSpaceOnUse" x1="527.865" y1="584.558" x2="337.172" y2="254.268"><stop offset=".003" style="stop-color:#9a9adb"/><stop offset=".789" style="stop-color:#cecdf1"/></linearGradient><path d="M534 576.37H331.04c-16.57 0-30-13.43-30-30V292.45c0-16.57 13.43-30 30-30H534c16.57 0 30 13.43 30 30v253.92c0 16.57-13.44 30-30 30z" style="fill:url(#SVGID_15_)"/><linearGradient id="SVGID_16_" gradientUnits="userSpaceOnUse" x1="429.537" y1="576.372" x2="429.537" y2="267.203"><stop offset="0" style="stop-color:#f3f6ff"/><stop offset=".525" style="stop-color:#fdfeff"/><stop offset="1" style="stop-color:#f3f6ff"/></linearGradient><path d="M529.54 576.37H329.53c-15.74 0-28.49-12.76-28.49-28.49V295.69c0-15.74 12.76-28.49 28.49-28.49h200.01c15.74 0 28.49 12.76 28.49 28.49v252.19c0 15.74-12.75 28.49-28.49 28.49z" style="fill:url(#SVGID_16_)"/><linearGradient id="SVGID_17_" gradientUnits="userSpaceOnUse" x1="340.24" y1="299.911" x2="329.753" y2="281.747"><stop offset=".003" style="stop-color:#9a9adb"/><stop offset=".789" style="stop-color:#cecdf1"/></linearGradient><circle cx="335" cy="290.83" r="10.49" style="fill:url(#SVGID_17_)"/><linearGradient id="SVGID_18_" gradientUnits="userSpaceOnUse" x1="377.951" y1="299.911" x2="367.464" y2="281.747"><stop offset=".003" style="stop-color:#9a9adb"/><stop offset=".789" style="stop-color:#cecdf1"/></linearGradient><circle cx="372.71" cy="290.83" r="10.49" style="fill:url(#SVGID_18_)"/><linearGradient id="SVGID_19_" gradientUnits="userSpaceOnUse" x1="415.571" y1="299.911" x2="405.084" y2="281.747"><stop offset=".003" style="stop-color:#9a9adb"/><stop offset=".789" style="stop-color:#cecdf1"/></linearGradient><circle cx="410.33" cy="290.83" r="10.49" style="fill:url(#SVGID_19_)"/><linearGradient id="SVGID_20_" gradientUnits="userSpaceOnUse" x1="452.969" y1="299.911" x2="442.483" y2="281.747"><stop offset=".003" style="stop-color:#9a9adb"/><stop offset=".789" style="stop-color:#cecdf1"/></linearGradient><circle cx="447.73" cy="290.83" r="10.49" style="fill:url(#SVGID_20_)"/><linearGradient id="SVGID_21_" gradientUnits="userSpaceOnUse" x1="490.626" y1="299.911" x2="480.139" y2="281.747"><stop offset=".003" style="stop-color:#9a9adb"/><stop offset=".789" style="stop-color:#cecdf1"/></linearGradient><circle cx="485.38" cy="290.83" r="10.49" style="fill:url(#SVGID_21_)"/><linearGradient id="SVGID_22_" gradientUnits="userSpaceOnUse" x1="528.172" y1="299.911" x2="517.685" y2="281.747"><stop offset=".003" style="stop-color:#9a9adb"/><stop offset=".789" style="stop-color:#cecdf1"/></linearGradient><circle cx="522.93" cy="290.83" r="10.49" style="fill:url(#SVGID_22_)"/><linearGradient id="SVGID_23_" gradientUnits="userSpaceOnUse" x1="340.918" y1="298.499" x2="327.326" y2="284.907"><stop offset=".15" style="stop-color:#afc5d8"/><stop offset="1" style="stop-color:#dfe8f9"/></linearGradient><circle cx="334.12" cy="291.7" r="9.61" style="fill:url(#SVGID_23_)"/><linearGradient id="SVGID_24_" gradientUnits="userSpaceOnUse" x1="324.511" y1="291.703" x2="343.733" y2="291.703"><stop offset=".116" style="stop-color:#dee4ff"/><stop offset=".847" style="stop-color:#bacbee"/></linearGradient><circle cx="334.12" cy="291.7" r="9.61" style="fill:url(#SVGID_24_)"/><linearGradient id="SVGID_25_" gradientUnits="userSpaceOnUse" x1="362.081" y1="291.703" x2="381.303" y2="291.703"><stop offset=".116" style="stop-color:#dee4ff"/><stop offset=".847" style="stop-color:#bacbee"/></linearGradient><circle cx="371.69" cy="291.7" r="9.61" style="fill:url(#SVGID_25_)"/><linearGradient id="SVGID_26_" gradientUnits="userSpaceOnUse" x1="399.651" y1="291.703" x2="418.873" y2="291.703"><stop offset=".116" style="stop-color:#dee4ff"/><stop offset=".847" style="stop-color:#bacbee"/></linearGradient><circle cx="409.26" cy="291.7" r="9.61" style="fill:url(#SVGID_26_)"/><linearGradient id="SVGID_27_" gradientUnits="userSpaceOnUse" x1="437.221" y1="291.703" x2="456.443" y2="291.703"><stop offset=".116" style="stop-color:#dee4ff"/><stop offset=".847" style="stop-color:#bacbee"/></linearGradient><circle cx="446.83" cy="291.7" r="9.61" style="fill:url(#SVGID_27_)"/><linearGradient id="SVGID_28_" gradientUnits="userSpaceOnUse" x1="474.791" y1="291.703" x2="494.013" y2="291.703"><stop offset=".116" style="stop-color:#dee4ff"/><stop offset=".847" style="stop-color:#bacbee"/></linearGradient><circle cx="484.4" cy="291.7" r="9.61" style="fill:url(#SVGID_28_)"/><linearGradient id="SVGID_29_" gradientUnits="userSpaceOnUse" x1="512.362" y1="291.703" x2="531.583" y2="291.703"><stop offset=".116" style="stop-color:#dee4ff"/><stop offset=".847" style="stop-color:#bacbee"/></linearGradient><circle cx="521.97" cy="291.7" r="9.61" style="fill:url(#SVGID_29_)"/><linearGradient id="SVGID_30_" gradientUnits="userSpaceOnUse" x1="337.465" y1="285.913" x2="330.779" y2="297.493"><stop offset=".003" style="stop-color:#9a9adb"/><stop offset=".789" style="stop-color:#cecdf1"/></linearGradient><circle cx="334.12" cy="291.7" r="6.68" style="fill:url(#SVGID_30_)"/><linearGradient id="SVGID_31_" gradientUnits="userSpaceOnUse" x1="375.066" y1="285.913" x2="368.381" y2="297.493"><stop offset=".003" style="stop-color:#9a9adb"/><stop offset=".789" style="stop-color:#cecdf1"/></linearGradient><circle cx="371.72" cy="291.7" r="6.68" style="fill:url(#SVGID_31_)"/><linearGradient id="SVGID_32_" gradientUnits="userSpaceOnUse" x1="412.557" y1="285.913" x2="405.871" y2="297.493"><stop offset=".003" style="stop-color:#9a9adb"/><stop offset=".789" style="stop-color:#cecdf1"/></linearGradient><circle cx="409.21" cy="291.7" r="6.68" style="fill:url(#SVGID_32_)"/><linearGradient id="SVGID_33_" gradientUnits="userSpaceOnUse" x1="450.066" y1="285.913" x2="443.381" y2="297.493"><stop offset=".003" style="stop-color:#9a9adb"/><stop offset=".789" style="stop-color:#cecdf1"/></linearGradient><circle cx="446.72" cy="291.7" r="6.68" style="fill:url(#SVGID_33_)"/><linearGradient id="SVGID_34_" gradientUnits="userSpaceOnUse" x1="487.722" y1="285.913" x2="481.037" y2="297.493"><stop offset=".003" style="stop-color:#9a9adb"/><stop offset=".789" style="stop-color:#cecdf1"/></linearGradient><circle cx="484.38" cy="291.7" r="6.68" style="fill:url(#SVGID_34_)"/><linearGradient id="SVGID_35_" gradientUnits="userSpaceOnUse" x1="525.379" y1="285.913" x2="518.693" y2="297.493"><stop offset=".003" style="stop-color:#9a9adb"/><stop offset=".789" style="stop-color:#cecdf1"/></linearGradient><circle cx="522.04" cy="291.7" r="6.68" style="fill:url(#SVGID_35_)"/><linearGradient id="SVGID_36_" gradientUnits="userSpaceOnUse" x1="633.846" y1="657.137" x2="570.911" y2="622.533" gradientTransform="matrix(1.0699 .0431 .0431 1.0699 -238.987 -277.01)"><stop offset=".003" style="stop-color:#9a9adb"/><stop offset=".789" style="stop-color:#cecdf1"/></linearGradient><path d="m408.03 484.82-33.41 9.23c-3.16.87-6.31-2.2-5.52-5.39l8.45-34.27c.17-.68.51-1.3 1-1.79l88.88-88.88c2.85-2.85 7.67-2.66 10.76.43l18.58 18.69c3.09 3.09 3.31 10.6-.44 14.33l-86.62 86.67c-.46.47-1.04.8-1.68.98z" style="fill:url(#SVGID_36_)"/><linearGradient id="SVGID_37_" gradientUnits="userSpaceOnUse" x1="367.543" y1="428.429" x2="494.589" y2="428.429"><stop offset=".116" style="stop-color:#dee4ff"/><stop offset=".847" style="stop-color:#bacbee"/></linearGradient><path d="m404.29 482.24-31.62 9.9c-2.99.94-5.82-1.82-4.97-4.83l9.2-32.41c.18-.65.53-1.23 1-1.71l86.57-86.57a7.11 7.11 0 0 1 10.06 0l17.98 17.98a7.11 7.11 0 0 1 0 10.06l-86.61 86.61c-.45.44-1.01.78-1.61.97z" style="fill:url(#SVGID_37_)"/><path transform="rotate(-45.001 468.62 390.435)" class="st26" d="M462.97 370.61h11.31v39.64h-11.31z"/><linearGradient id="SVGID_38_" gradientUnits="userSpaceOnUse" x1="419.435" y1="486.777" x2="437.836" y2="486.777"><stop offset=".116" style="stop-color:#dee4ff"/><stop offset=".847" style="stop-color:#bacbee"/></linearGradient><circle cx="428.64" cy="486.78" r="9.2" style="fill:url(#SVGID_38_)"/><linearGradient id="SVGID_39_" gradientUnits="userSpaceOnUse" x1="442.553" y1="486.777" x2="460.953" y2="486.777"><stop offset=".116" style="stop-color:#dee4ff"/><stop offset=".847" style="stop-color:#bacbee"/></linearGradient><circle cx="451.75" cy="486.78" r="9.2" style="fill:url(#SVGID_39_)"/><linearGradient id="SVGID_40_" gradientUnits="userSpaceOnUse" x1="465.67" y1="486.777" x2="484.071" y2="486.777"><stop offset=".116" style="stop-color:#dee4ff"/><stop offset=".847" style="stop-color:#bacbee"/></linearGradient><circle cx="474.87" cy="486.78" r="9.2" style="fill:url(#SVGID_40_)"/></g><g><linearGradient id="SVGID_41_" gradientUnits="userSpaceOnUse" x1="220.999" y1="500.298" x2="220.999" y2="446.927"><stop offset="0" style="stop-color:#4f5c7c"/><stop offset="1" style="stop-color:#274168"/></linearGradient><path d="M224.9 450.64s-11.57 2.79-13.8 12.8c-4.67 1.14-20.39 9.6-8.52 28.29 5.99 7.33 6.9 8.57 6.9 8.57l34.29-10.12v-43.25l-18.87 3.71z" style="fill:url(#SVGID_41_)"/><linearGradient id="SVGID_42_" gradientUnits="userSpaceOnUse" x1="244.51" y1="552.998" x2="244.51" y2="473.829"><stop offset="0" style="stop-color:#c3d5fd"/><stop offset="1" style="stop-color:#1a90fc"/></linearGradient><path d="M236.34 474.2s-19.21-2.66-25.45 6.17c-6.24 8.83-8.52 31.42-8.52 31.42l14.46-.76-1.22 26.32L242.29 553l38-20.44-5.78-23.85 12.14-3.17s-3.62-34.61-20.51-29.5c-8.67.93-11.41.77-11.41.77s-2.28 7.28-10.12 6.66c-7.84-.62-8.27-9.27-8.27-9.27z" style="fill:url(#SVGID_42_)"/><linearGradient id="SVGID_43_" gradientUnits="userSpaceOnUse" x1="245.608" y1="460.327" x2="245.608" y2="485.407"><stop offset="0" style="stop-color:#f4ae98"/><stop offset="1" style="stop-color:#fad1bb"/></linearGradient><path d="m238.26 463.32-3.99 17.8c-.19.84.25 1.69 1.04 2.01 2.06.84 6.19 2.27 10.44 2.27 4.4 0 8.56-2.41 10.47-3.7.66-.44.93-1.27.68-2.02l-6.1-18.16a1.762 1.762 0 0 0-1.98-1.17l-9.15 1.62c-.7.13-1.25.66-1.41 1.35z" style="fill:url(#SVGID_43_)"/><linearGradient id="SVGID_44_" gradientUnits="userSpaceOnUse" x1="370.771" y1="632.088" x2="383.029" y2="545.775" gradientTransform="rotate(-8.082 -188.577 1672.784)"><stop offset="0" style="stop-color:#c3d5fd"/><stop offset="1" style="stop-color:#1a90fc"/></linearGradient><path d="M214.41 477.29c5.59-1.86 13.17-.61 13.48 11.93.31 12.54-11.98 32.53-7.58 39.48 4.46 7.05 14 17.05 20.06 22.75-1.41 6.7-5.22 12.33-5.22 12.33s-22.36-10.32-32.1-20.65-4.82-34.03-.31-50.89c3.4-12.72 11.67-14.95 11.67-14.95z" style="fill:url(#SVGID_44_)"/><linearGradient id="SVGID_45_" gradientUnits="userSpaceOnUse" x1="-252.127" y1="543.621" x2="-239.868" y2="457.309" gradientTransform="scale(-1 1) rotate(-8.082 -117.712 669.727)"><stop offset="0" style="stop-color:#c3d5fd"/><stop offset="1" style="stop-color:#1a90fc"/></linearGradient><path d="M273.01 477.29c-5.59-1.86-13.17-.61-13.48 11.93-.31 12.54 11.98 32.53 7.58 39.48-4.46 7.05-14 17.05-20.06 22.75 1.41 6.7 5.22 12.33 5.22 12.33s22.36-10.32 32.1-20.65 4.82-34.03.31-50.89c-3.41-12.72-11.67-14.95-11.67-14.95z" style="fill:url(#SVGID_45_)"/><linearGradient id="SVGID_46_" gradientUnits="userSpaceOnUse" x1="265.03" y1="499.926" x2="265.03" y2="449.737"><stop offset="0" style="stop-color:#4f5c7c"/><stop offset="1" style="stop-color:#274168"/></linearGradient><path d="M248.54 460.35s4.06 12.28 3.04 19.1c-1.01 6.81.41 16.62 9.03 19.61 8.62 2.99 16.84-2.06 19.78-10.63 2.94-8.57.1-14.76-7.1-20.34 1.22-5.26-4.71-14.82-15.26-18.23-10.34-1.45-9.49 10.49-9.49 10.49z" style="fill:url(#SVGID_46_)"/><linearGradient id="SVGID_47_" gradientUnits="userSpaceOnUse" x1="195.503" y1="398.702" x2="195.503" y2="431.391" gradientTransform="rotate(1.812 -1029.434 1948.104)"><stop offset="0" style="stop-color:#f4b9a4"/><stop offset=".652" style="stop-color:#fad1bb"/></linearGradient><path d="M232.91 444.55s-6.59 4.65-6.45 11.24c.14 6.59 5.43 5.36 5.43 5.36s1.6 9.76 12 10.1c10.4.33 11.87-10.07 11.87-10.07s5.22.66 5.34-5.34c.12-6-4.44-14.05-8.97-16.34-4.54-2.3-15.68.47-19.22 5.05z" style="fill:url(#SVGID_47_)"/><linearGradient id="SVGID_48_" gradientUnits="userSpaceOnUse" x1="242.496" y1="460.129" x2="242.496" y2="429.92"><stop offset="0" style="stop-color:#4f5c7c"/><stop offset="1" style="stop-color:#274168"/></linearGradient><path d="M239.61 442.49s-2.08 5.99-7.31 7.02-5.69 3.7-5.69 6.2c0 1.84.62 3.59 1.06 4.43-2.82-1.55-6.67-5.25-4.22-15.45 2.37-9.85 9.66-14.64 19.48-14.49 8.22-2.17 20.39 8.84 19.33 23.16-1.75-2.32-3.37-2.86-4.59-3.28-1.22-.41-3.75-2.94-4.06-5.47-2.13.46-9.59 1.49-14-2.12z" style="fill:url(#SVGID_48_)"/><linearGradient id="SVGID_49_" gradientUnits="userSpaceOnUse" x1="244.51" y1="524.407" x2="244.51" y2="574.717"><stop offset="0" style="stop-color:#275c89"/><stop offset="1" style="stop-color:#013f7c"/></linearGradient><path d="M217.12 574.72h54.29c2.46 0 4.66-1.86 5.51-4.67l10.94-36c1.42-4.67-1.42-9.64-5.51-9.64h-75.68c-4.05 0-6.89 4.88-5.54 9.54l10.45 36c.83 2.86 3.05 4.77 5.54 4.77z" style="fill:url(#SVGID_49_)"/><path class="st26" d="M214.96 591.27s-.84-1.85-1.48-2.05-9.93-.57-13.32-1.45c-3.39-.88-13.15-2.27-17.34 1.69-3.64 3.45-4.85 11.51.7 16.15 2.08 1.81 4.13 2.34 11.84 1.98 7.71-.36 18.89-.28 21.34-3.85-.08-5.9-1.74-12.47-1.74-12.47z"/><linearGradient id="SVGID_50_" gradientUnits="userSpaceOnUse" x1="-519.431" y1="596.43" x2="-501.621" y2="596.43" gradientTransform="matrix(-1 0 0 1 -291.788 0)"><stop offset="0" style="stop-color:#f4b9a4"/><stop offset=".652" style="stop-color:#fad1bb"/></linearGradient><path d="M223.57 589.23s-8.96 2.01-12.17 1.72c-3.2-.3-.52 12.62-.52 12.62s8.56.59 16.13-1.6c2.56-9.9-3.44-12.74-3.44-12.74z" style="fill:url(#SVGID_50_)"/><linearGradient id="SVGID_51_" gradientUnits="userSpaceOnUse" x1="220.361" y1="576.8" x2="312.243" y2="576.8"><stop offset="0" style="stop-color:#18264b"/><stop offset=".652" style="stop-color:#2d3c65"/></linearGradient><path d="m220.36 588.76 4.66 14.49s100.13-13.19 85.82-45.68c-11.96-27.17-90.48 31.19-90.48 31.19z" style="fill:url(#SVGID_51_)"/><linearGradient id="SVGID_52_" gradientUnits="userSpaceOnUse" x1="199.644" y1="587.778" x2="199.644" y2="606.684"><stop offset="0" style="stop-color:#ffdb80"/><stop offset="1" style="stop-color:#ffbb24"/></linearGradient><path d="M213.79 589.88s3.67 1.44 4.13 6.55c.47 5.12-1.05 8.55-8.85 9.5s-9.78.59-14.67.71c-4.89.12-11.99.59-13.04-8.71-1.05-9.3 8.46-11.67 18.32-9.3 3.11.6 14.11 1.25 14.11 1.25z" style="fill:url(#SVGID_52_)"/><g><path class="st26" d="M277.44 591.27s.84-1.85 1.48-2.05c.65-.2 9.93-.57 13.32-1.45 3.39-.88 12.49-2.34 17.09 1.58 4.26 3.64 4.54 11.69-.31 16.13-2.08 1.81-4.27 2.47-11.98 2.11-7.71-.36-18.89-.28-21.34-3.85.08-5.9 1.74-12.47 1.74-12.47z"/><linearGradient id="SVGID_53_" gradientUnits="userSpaceOnUse" x1="264.753" y1="596.43" x2="282.564" y2="596.43"><stop offset="0" style="stop-color:#f4b9a4"/><stop offset=".652" style="stop-color:#fad1bb"/></linearGradient><path d="M268.82 589.23s8.96 2.01 12.17 1.72c3.2-.3.52 12.62.52 12.62s-8.56.59-16.13-1.6c-2.55-9.9 3.44-12.74 3.44-12.74z" style="fill:url(#SVGID_53_)"/><linearGradient id="SVGID_54_" gradientUnits="userSpaceOnUse" x1="180.154" y1="576.8" x2="272.035" y2="576.8"><stop offset="0" style="stop-color:#445677"/><stop offset="1" style="stop-color:#293861"/></linearGradient><path d="m272.03 588.76-4.66 14.49s-100.13-13.19-85.82-45.68c11.97-27.17 90.48 31.19 90.48 31.19z" style="fill:url(#SVGID_54_)"/><linearGradient id="SVGID_55_" gradientUnits="userSpaceOnUse" x1="292.752" y1="587.778" x2="292.752" y2="606.684"><stop offset="0" style="stop-color:#ffdb80"/><stop offset="1" style="stop-color:#ffbb24"/></linearGradient><path d="M278.6 589.88s-3.67 1.44-4.13 6.55c-.47 5.12 1.05 8.55 8.85 9.5 7.8.95 9.78.59 14.67.71 4.89.12 11.99.59 13.04-8.71 1.05-9.3-8.46-11.67-18.32-9.3-3.1.6-14.11 1.25-14.11 1.25z" style="fill:url(#SVGID_55_)"/></g></g></g></svg>