<svg xmlns="http://www.w3.org/2000/svg" viewBox="0 0 800 800" style="enable-background:new 0 0 800 800" xml:space="preserve"><style>.st26{fill:#fff}</style><g id="图层_13"><linearGradient id="SVGID_1_" gradientUnits="userSpaceOnUse" x1="402.875" y1="162.193" x2="402.875" y2="717.684"><stop offset="0" style="stop-color:#f4f2fb"/><stop offset="1" style="stop-color:#e1eef5"/></linearGradient><path d="M486.13 203.55c-38.37 30.29-120.74 33.81-181.17-2.22s-172-31.38-202.22 34.87 37.19 131.33 12.78 178.98S9.76 530.22 65.55 611.58s126.6 60.62 169.22 52.45c84.17-16.13 189.79 115.67 308.62 16.13 68.47-57.35 170.44 42.09 210.17-81.36 32.78-101.86-85.67-139.5-49.97-208.03 37.96-72.88 30.67-159.24-10.46-201.06-38.31-38.96-140.75-38.46-207 13.84z" style="fill:url(#SVGID_1_)"/><linearGradient id="SVGID_2_" gradientUnits="userSpaceOnUse" x1="464.286" y1="573.429" x2="464.286" y2="385.846"><stop offset="0" style="stop-color:#b0b9e1"/><stop offset=".866" style="stop-color:#eaf0f8"/></linearGradient><path style="fill:url(#SVGID_2_)" d="m365.86 556.05-88.94-133.98 134.29-36.22 240.44 26.79-73.62 152.76-134.43-30.55-23.85 38.58z"/><linearGradient id="SVGID_3_" gradientUnits="userSpaceOnUse" x1="244.605" y1="615.171" x2="244.605" y2="514.29"><stop offset="0" style="stop-color:#b0b9e1"/><stop offset=".866" style="stop-color:#eaf0f8"/></linearGradient><path d="M176.21 592.05s48.88-77.3 50.65-77.74S313 520.2 313 520.2l-41.08 94.97-95.71-23.12z" style="fill:url(#SVGID_3_)"/><linearGradient id="SVGID_4_" gradientUnits="userSpaceOnUse" x1="117.956" y1="542.579" x2="117.956" y2="405.405"><stop offset=".227" style="stop-color:#b7ace0"/><stop offset=".789" style="stop-color:#e8e7fa"/></linearGradient><path d="M118.74 405.65s-.22-.57-.52.04c-2.7 5.49-27.15 64.96-29.09 110.86 0 0-4.08 26.37 30.11 26.02 28.54-.29 27.78-24.6 27.68-32.79-.39-33.22-28.18-104.13-28.18-104.13z" style="fill:url(#SVGID_4_)"/><linearGradient id="SVGID_5_" gradientUnits="userSpaceOnUse" x1="117.958" y1="420.636" x2="117.958" y2="571.769"><stop offset="0" style="stop-color:#ecf1fb"/><stop offset=".818" style="stop-color:#afb0e7"/></linearGradient><path d="M117.96 571.77c-.55 0-1-.45-1-1V421.64c0-.55.45-1 1-1s1 .45 1 1v149.13c0 .55-.45 1-1 1z" style="fill:url(#SVGID_5_)"/><linearGradient id="SVGID_6_" gradientUnits="userSpaceOnUse" x1="619.085" y1="451.057" x2="619.085" y2="362.733"><stop offset=".227" style="stop-color:#ccd4f4"/><stop offset=".789" style="stop-color:#ecf1fb"/></linearGradient><path d="M619.59 362.89s-.14-.37-.33.03c-1.74 3.53-17.48 41.83-18.73 71.38 0 0-2.63 16.98 19.39 16.76 18.38-.18 17.89-15.84 17.82-21.11-.25-21.4-18.15-67.06-18.15-67.06z" style="fill:url(#SVGID_6_)"/><linearGradient id="SVGID_7_" gradientUnits="userSpaceOnUse" x1="619.086" y1="372.54" x2="619.086" y2="469.853"><stop offset="0" style="stop-color:#ecf1fb"/><stop offset="1" style="stop-color:#a6a8e2"/></linearGradient><path d="M619.09 469.85c-.36 0-.64-.29-.64-.64v-96.02c0-.36.29-.64.64-.64s.64.29.64.64v96.02c0 .35-.29.64-.64.64z" style="fill:url(#SVGID_7_)"/><linearGradient id="SVGID_8_" gradientUnits="userSpaceOnUse" x1="465.003" y1="88.451" x2="430.249" y2="148.647"><stop offset="0" style="stop-color:#ffdb80"/><stop offset="1" style="stop-color:#ffbb24"/></linearGradient><circle cx="447.63" cy="118.55" r="34.75" style="fill:url(#SVGID_8_)"/><linearGradient id="SVGID_9_" gradientUnits="userSpaceOnUse" x1="422.666" y1="118.917" x2="422.666" y2="176.371"><stop offset="0" style="stop-color:#f9fafe"/><stop offset="1" style="stop-color:#e5edf7"/></linearGradient><path d="M467.4 137.5h-34.57c-2.23-10.61-11.65-18.58-22.93-18.58s-20.69 7.97-22.93 18.58h-9.05c-10.73 0-19.44 8.7-19.44 19.44 0 10.73 8.7 19.44 19.44 19.44h89.47c10.73 0 19.44-8.7 19.44-19.44.01-10.74-8.69-19.44-19.43-19.44z" style="fill:url(#SVGID_9_)"/><g><linearGradient id="SVGID_10_" gradientUnits="userSpaceOnUse" x1="689.687" y1="540.297" x2="689.687" y2="512.469"><stop offset=".227" style="stop-color:#afb0e7"/><stop offset="1" style="stop-color:#ecf1fb"/></linearGradient><circle cx="689.69" cy="526.38" r="13.91" style="fill:url(#SVGID_10_)"/><linearGradient id="SVGID_11_" gradientUnits="userSpaceOnUse" x1="689.736" y1="515.983" x2="689.736" y2="560.779"><stop offset="0" style="stop-color:#dde1f6"/><stop offset=".818" style="stop-color:#a6a8e2"/></linearGradient><path d="M689.74 560.78c-.24 0-.43-.19-.43-.43v-43.94c0-.24.19-.43.43-.43s.43.19.43.43v43.94c0 .24-.2.43-.43.43z" style="fill:url(#SVGID_11_)"/></g><g><linearGradient id="SVGID_12_" gradientUnits="userSpaceOnUse" x1="2590.562" y1="446.264" x2="2525.416" y2="559.101" gradientTransform="matrix(-1 0 0 1 2949.761 0)"><stop offset="0" style="stop-color:#c8cbf2"/><stop offset="1" style="stop-color:#afb0e7"/></linearGradient><path d="M321.04 528.58c6.55 0 13.09-2.51 18.09-7.54 31.54-31.76 72.97-26.77 104.51 4.99 9.99 10.06 26.18 10.06 36.17 0 9.99-10.06 10.2-31.53.98-42.31-47.06-54.97-126.35-50.97-177.84.88-9.99 10.06-9.99 26.37 0 36.43 5 5.04 11.55 7.55 18.09 7.55z" style="fill:url(#SVGID_12_)"/><linearGradient id="SVGID_13_" gradientUnits="userSpaceOnUse" x1="2593.452" y1="454.541" x2="2536.064" y2="553.939" gradientTransform="matrix(-1 0 0 1 2949.761 0)"><stop offset=".116" style="stop-color:#dee4ff"/><stop offset=".847" style="stop-color:#bacbee"/></linearGradient><path d="M319.38 528.2c5.78 0 11.55-2.2 15.96-6.61 27.83-27.83 73.11-27.83 100.93 0 8.81 8.81 23.1 8.81 31.91 0 8.81-8.81 8.81-23.1 0-31.91-45.42-45.42-119.33-45.42-164.76 0-8.81 8.81-8.81 23.1 0 31.91 4.41 4.4 10.19 6.61 15.96 6.61z" style="fill:url(#SVGID_13_)"/><linearGradient id="SVGID_14_" gradientUnits="userSpaceOnUse" x1="2607.01" y1="358.757" x2="2510.992" y2="525.065" gradientTransform="matrix(-1 0 0 1 2949.761 0)"><stop offset="0" style="stop-color:#c8cbf2"/><stop offset="1" style="stop-color:#afb0e7"/></linearGradient><path d="M520.11 474.25c6.4 0 12.8-2.46 17.68-7.38 9.76-9.83 14.62-25.54 3.96-38.49-38.03-46.23-90.04-68.97-140.51-68.97-59.61 0-115.66 23.38-157.81 65.83-9.76 9.83-9.76 25.78 0 35.61 9.76 9.83 25.6 9.83 35.36 0 32.71-32.94 76.2-51.08 122.45-51.08 46.26 0 68.48 24.16 101.19 57.1a24.78 24.78 0 0 0 17.68 7.38z" style="fill:url(#SVGID_14_)"/><linearGradient id="SVGID_15_" gradientUnits="userSpaceOnUse" x1="2609.947" y1="365.925" x2="2521.053" y2="519.893" gradientTransform="matrix(-1 0 0 1 2949.761 0)"><stop offset=".116" style="stop-color:#dee4ff"/><stop offset=".847" style="stop-color:#bacbee"/></linearGradient><path d="M512.27 468.15c5.78 0 11.55-2.2 15.96-6.61 8.81-8.81 8.81-23.1 0-31.91-38.04-38.04-88.62-59-142.43-59-53.8 0-104.38 20.95-142.43 59-8.81 8.81-8.81 23.1 0 31.91 8.81 8.81 23.1 8.81 31.91 0 29.52-29.52 68.77-45.78 110.51-45.78 41.75 0 80.99 16.26 110.51 45.78 4.42 4.41 10.2 6.61 15.97 6.61z" style="fill:url(#SVGID_15_)"/><linearGradient id="SVGID_16_" gradientUnits="userSpaceOnUse" x1="2621.483" y1="266.703" x2="2500.253" y2="483.843" gradientTransform="scale(-1 1) rotate(.825 855.092 -204411.233)"><stop offset="0" style="stop-color:#c8cbf2"/><stop offset="1" style="stop-color:#afb0e7"/></linearGradient><path d="M203.21 411.32c6.4-.09 12.76-2.64 17.57-7.63 102.34-106.07 230.99-103.11 336.33-.03 9.9 9.69 25.73 9.46 35.35-.51 9.62-9.97 14.86-27.75 2.89-44.05-30.24-41.2-103.19-79.96-191.46-85.5-84.34-5.3-160.1 33.98-218.97 95.01-9.62 9.97-9.39 25.91.51 35.6 4.95 4.84 11.39 7.2 17.78 7.11z" style="fill:url(#SVGID_16_)"/><linearGradient id="SVGID_17_" gradientUnits="userSpaceOnUse" x1="2626.278" y1="278.124" x2="2506.174" y2="486.149" gradientTransform="matrix(-1 0 0 1 2949.761 0)"><stop offset=".116" style="stop-color:#dee4ff"/><stop offset=".847" style="stop-color:#bacbee"/></linearGradient><path d="M199.82 408.63c5.78 0 11.55-2.2 15.96-6.61 93.75-93.75 246.3-93.75 340.06 0 8.81 8.81 23.1 8.81 31.91 0 8.81-8.81 8.81-23.1 0-31.91-53.94-53.94-125.66-83.65-201.94-83.65s-148 29.71-201.94 83.65c-8.81 8.81-8.81 23.1 0 31.91 4.4 4.41 10.18 6.61 15.95 6.61z" style="fill:url(#SVGID_17_)"/><linearGradient id="SVGID_18_" gradientUnits="userSpaceOnUse" x1="2580.694" y1="535.702" x2="2546.167" y2="595.505" gradientTransform="matrix(-1 0 0 1 2949.761 0)"><stop offset="0" style="stop-color:#c8cbf2"/><stop offset="1" style="stop-color:#afb0e7"/></linearGradient><ellipse cx="386.33" cy="565.6" rx="34.34" ry="34.58" style="fill:url(#SVGID_18_)"/><g><linearGradient id="SVGID_19_" gradientUnits="userSpaceOnUse" x1="2580.641" y1="543.633" x2="2550.373" y2="596.058" gradientTransform="matrix(-1 0 0 1 2949.761 0)"><stop offset=".116" style="stop-color:#dee4ff"/><stop offset=".847" style="stop-color:#bacbee"/></linearGradient><circle cx="384.25" cy="569.85" r="30.26" style="fill:url(#SVGID_19_)"/></g><linearGradient id="SVGID_20_" gradientUnits="userSpaceOnUse" x1="2483.763" y1="471.217" x2="2405.182" y2="607.322" gradientTransform="matrix(-1 0 0 1 2949.761 0)"><stop offset="0" style="stop-color:#c8cbf2"/><stop offset="1" style="stop-color:#afb0e7"/></linearGradient><ellipse cx="505.29" cy="539.27" rx="78.15" ry="78.7" style="fill:url(#SVGID_20_)"/><linearGradient id="SVGID_21_" gradientUnits="userSpaceOnUse" x1="2483.613" y1="480.573" x2="2410.08" y2="607.936" gradientTransform="matrix(-1 0 0 1 2949.761 0)"><stop offset=".116" style="stop-color:#dee4ff"/><stop offset=".847" style="stop-color:#bacbee"/></linearGradient><ellipse cx="502.91" cy="544.25" rx="72.92" ry="73.72" style="fill:url(#SVGID_21_)"/><path class="st26" d="m490.62 541.27-21.7-21.7a9.035 9.035 0 0 1 0-12.78 9.035 9.035 0 0 1 12.78 0l21.7 21.7 21.7-21.7a9.035 9.035 0 0 1 12.78 0 9.035 9.035 0 0 1 0 12.78l-21.7 21.7 21.7 21.7a9.035 9.035 0 0 1 0 12.78 9.035 9.035 0 0 1-12.78 0l-21.7-21.7-21.7 21.7a9.035 9.035 0 0 1-12.78 0 9.035 9.035 0 0 1 0-12.78l21.7-21.7z"/></g><g><linearGradient id="SVGID_22_" gradientUnits="userSpaceOnUse" x1="219.839" y1="576.891" x2="219.839" y2="501.271"><stop offset="0" style="stop-color:#c3d5fd"/><stop offset="1" style="stop-color:#1a90fc"/></linearGradient><path d="M212.04 501.63s-18.35-2.54-24.31 5.89c-5.96 8.43-8.14 30.01-8.14 30.01l13.81-.73-1.16 25.14 25.48 14.94 36.3-19.52-5.52-22.78 11.6-3.03s-3.46-33.06-19.59-28.18c-8.29.89-10.9.74-10.9.74s-2.18 6.95-9.67 6.36c-7.5-.58-7.9-8.84-7.9-8.84z" style="fill:url(#SVGID_22_)"/><linearGradient id="SVGID_23_" gradientUnits="userSpaceOnUse" x1="220.888" y1="488.374" x2="220.888" y2="512.33"><stop offset="0" style="stop-color:#f4ae98"/><stop offset="1" style="stop-color:#fad1bb"/></linearGradient><path d="m213.87 491.24-3.81 17.01c-.18.8.24 1.61 1 1.92 1.97.8 5.91 2.17 9.97 2.17 4.21 0 8.18-2.3 10-3.53.63-.42.89-1.21.65-1.93l-5.83-17.35a1.681 1.681 0 0 0-1.89-1.12l-8.74 1.55c-.67.11-1.2.61-1.35 1.28z" style="fill:url(#SVGID_23_)"/><linearGradient id="SVGID_24_" gradientUnits="userSpaceOnUse" x1="-1111.396" y1="794.049" x2="-1099.687" y2="711.605" gradientTransform="rotate(-8.082 -1929.19 -8557.901)"><stop offset="0" style="stop-color:#c3d5fd"/><stop offset="1" style="stop-color:#1a90fc"/></linearGradient><path d="M191.09 503.57c5.34-1.77 12.58-.59 12.88 11.39.29 11.98-11.45 31.07-7.24 37.71 4.26 6.73 13.37 16.29 19.17 21.73-1.35 6.4-4.99 11.78-4.99 11.78s-21.36-9.86-30.66-19.73c-9.3-9.87-4.61-32.5-.3-48.61 3.24-12.13 11.14-14.27 11.14-14.27z" style="fill:url(#SVGID_24_)"/><linearGradient id="SVGID_25_" gradientUnits="userSpaceOnUse" x1="-5131.667" y1="223.076" x2="-5119.958" y2="140.632" gradientTransform="scale(-1 1) rotate(-8.082 -118.014 -34194.311)"><stop offset="0" style="stop-color:#c3d5fd"/><stop offset="1" style="stop-color:#1a90fc"/></linearGradient><path d="M247.06 503.57c-5.34-1.77-12.58-.59-12.88 11.39-.29 11.98 11.45 31.07 7.24 37.71-4.26 6.73-13.37 16.29-19.17 21.73 1.35 6.4 4.99 11.78 4.99 11.78s21.36-9.86 30.66-19.73c9.3-9.87 4.61-32.5.3-48.61-3.25-12.13-11.14-14.27-11.14-14.27z" style="fill:url(#SVGID_25_)"/><linearGradient id="SVGID_26_" gradientUnits="userSpaceOnUse" x1="219.839" y1="549.582" x2="219.839" y2="597.637"><stop offset="0" style="stop-color:#275c89"/><stop offset="1" style="stop-color:#013f7c"/></linearGradient><path d="M193.68 597.64h51.85c2.35 0 4.45-1.78 5.26-4.46l10.45-34.39c1.36-4.46-1.35-9.21-5.26-9.21H183.7c-3.87 0-6.58 4.67-5.29 9.11l9.98 34.39c.79 2.73 2.91 4.56 5.29 4.56z" style="fill:url(#SVGID_26_)"/><path class="st26" d="M191.61 613.45s-.8-1.76-1.42-1.95c-.62-.19-9.49-.54-12.72-1.38-3.23-.84-12.56-2.17-16.56 1.61-3.48 3.3-4.63 11 .67 15.43 1.99 1.73 3.94 2.23 11.31 1.89 7.37-.34 18.04-.27 20.38-3.68-.07-5.65-1.66-11.92-1.66-11.92z"/><linearGradient id="SVGID_27_" gradientUnits="userSpaceOnUse" x1="-3976.253" y1="618.376" x2="-3959.24" y2="618.376" gradientTransform="matrix(-1 0 0 1 -3772.525 0)"><stop offset="0" style="stop-color:#f4b9a4"/><stop offset=".652" style="stop-color:#fad1bb"/></linearGradient><path d="M199.84 611.5s-8.56 1.92-11.62 1.64c-3.06-.28-.5 12.05-.5 12.05s8.17.57 15.4-1.53c2.45-9.45-3.28-12.16-3.28-12.16z" style="fill:url(#SVGID_27_)"/><linearGradient id="SVGID_28_" gradientUnits="userSpaceOnUse" x1="196.773" y1="599.626" x2="284.536" y2="599.626"><stop offset="0" style="stop-color:#18264b"/><stop offset=".652" style="stop-color:#2d3c65"/></linearGradient><path d="m196.77 611.05 4.45 13.84s95.64-12.6 81.97-43.63c-11.42-25.96-86.42 29.79-86.42 29.79z" style="fill:url(#SVGID_28_)"/><linearGradient id="SVGID_29_" gradientUnits="userSpaceOnUse" x1="176.985" y1="610.112" x2="176.985" y2="628.17"><stop offset="0" style="stop-color:#ffdb80"/><stop offset="1" style="stop-color:#ffbb24"/></linearGradient><path d="M190.5 612.12s3.5 1.37 3.95 6.26c.44 4.89-1 8.17-8.45 9.07s-9.34.57-14.01.68c-4.67.11-11.45.57-12.46-8.32-1-8.88 8.08-11.15 17.5-8.88 2.96.57 13.47 1.19 13.47 1.19z" style="fill:url(#SVGID_29_)"/><g><path class="st26" d="M251.29 613.45s.8-1.76 1.42-1.95 9.49-.54 12.72-1.38c3.23-.84 11.93-2.24 16.32 1.51 4.07 3.48 4.34 11.16-.3 15.4-1.99 1.73-4.08 2.35-11.44 2.01-7.37-.34-18.04-.27-20.38-3.68.07-5.64 1.66-11.91 1.66-11.91z"/><linearGradient id="SVGID_30_" gradientUnits="userSpaceOnUse" x1="239.175" y1="618.376" x2="256.187" y2="618.376"><stop offset="0" style="stop-color:#f4b9a4"/><stop offset=".652" style="stop-color:#fad1bb"/></linearGradient><path d="M243.06 611.5s8.56 1.92 11.62 1.64c3.06-.28.5 12.05.5 12.05s-8.17.57-15.4-1.53c-2.44-9.45 3.28-12.16 3.28-12.16z" style="fill:url(#SVGID_30_)"/><linearGradient id="SVGID_31_" gradientUnits="userSpaceOnUse" x1="158.368" y1="599.626" x2="246.13" y2="599.626"><stop offset="0" style="stop-color:#445677"/><stop offset="1" style="stop-color:#293861"/></linearGradient><path d="m246.13 611.05-4.45 13.84s-95.64-12.6-81.97-43.63c11.42-25.96 86.42 29.79 86.42 29.79z" style="fill:url(#SVGID_31_)"/><linearGradient id="SVGID_32_" gradientUnits="userSpaceOnUse" x1="265.919" y1="610.112" x2="265.919" y2="628.17"><stop offset="0" style="stop-color:#ffdb80"/><stop offset="1" style="stop-color:#ffbb24"/></linearGradient><path d="M252.41 612.12s-3.5 1.37-3.95 6.26c-.44 4.89 1 8.17 8.45 9.07 7.45.91 9.34.57 14.01.68 4.67.11 11.45.57 12.46-8.32 1-8.88-8.08-11.15-17.5-8.88-2.97.57-13.47 1.19-13.47 1.19z" style="fill:url(#SVGID_32_)"/></g><linearGradient id="SVGID_33_" gradientUnits="userSpaceOnUse" x1="236.568" y1="482.879" x2="205.26" y2="482.879"><stop offset="0" style="stop-color:#f4b9a4"/><stop offset=".652" style="stop-color:#fad1bb"/></linearGradient><path d="M235.89 484.43c.57-.81.93-2.88.46-3.49-.84-.68-1.63-.29-2.24.3.14-4.96-.31-9.07-.42-10.12-.31-3.04-3.4-8.6-13.5-8.6s-12.05 7.29-12.05 7.29-.66 5.15-.46 11.41c-.6-.58-1.39-.95-2.22-.28-.46.61-.1 2.68.46 3.49.57.81.93 2.73 1.03 3.79.1 1.01-.63 3.7 2.03 3.36 1.59 6.35 8.01 11.64 11.99 11.64 4.36 0 10.16-5.33 11.8-11.65 2.71.37 1.98-2.34 2.07-3.35.12-1.05.49-2.98 1.05-3.79z" style="fill:url(#SVGID_33_)"/><linearGradient id="SVGID_34_" gradientUnits="userSpaceOnUse" x1="200.952" y1="470.777" x2="237.3" y2="470.777"><stop offset="0" style="stop-color:#4f5c7c"/><stop offset="1" style="stop-color:#274168"/></linearGradient><path d="M227.48 460.37s-1.97-6.21-9.53-4.72c-7.55 1.48-8.06 5.06-11.03 5.19-5.06.24-9.11 6.54-2.61 13.22 2.89 2.97.45 4.25 1.82 6.88s1.36 5.19 1.36 5.19 2.41-7.71.82-11c-.82-1.7 2.82-2.16 7.35-1.75 4.53.4 11.68-1.1 12.24-4.18 1.34 6.32 2.68 6.98 4.38 7.94 1.7.96 1.8 8.6 1.8 8.6s.3-5.62 1.49-6.88c.98-2.07 2.89-10.22.73-12.19s-.33-8.31-8.82-6.3z" style="fill:url(#SVGID_34_)"/></g></g></svg>