<svg xmlns="http://www.w3.org/2000/svg" viewBox="0 0 800 800" style="enable-background:new 0 0 800 800" xml:space="preserve"><style>.st26{fill:#fff}.st49{fill:#d4e4fe}</style><g id="图层_4"><linearGradient id="SVGID_1_" gradientUnits="userSpaceOnUse" x1="397.206" y1="160.925" x2="397.206" y2="716.417"><stop offset="0" style="stop-color:#f4f2fb"/><stop offset="1" style="stop-color:#e1eef5"/></linearGradient><path d="M480.46 202.28c-38.37 30.29-120.74 33.81-181.17-2.22s-172-31.38-202.22 34.87 37.19 131.33 12.78 178.98S4.09 528.96 59.88 610.31s126.6 60.62 169.22 52.45c84.17-16.13 189.79 115.67 308.62 16.13 68.47-57.35 170.44 42.09 210.17-81.36 32.78-101.86-85.67-139.5-49.97-208.03 37.96-72.88 30.67-159.24-10.46-201.06-38.31-38.96-140.75-38.46-207 13.84z" style="fill:url(#SVGID_1_)"/><linearGradient id="SVGID_2_" gradientUnits="userSpaceOnUse" x1="341.599" y1="537.029" x2="694.325" y2="408.648"><stop offset=".34" style="stop-color:#b0b9e1"/><stop offset=".866" style="stop-color:#eaf0f8"/></linearGradient><path style="fill:url(#SVGID_2_)" d="M325.98 494.11 377 374.19h304.78l-103.36 226.6z"/><linearGradient id="SVGID_3_" gradientUnits="userSpaceOnUse" x1="112.288" y1="541.312" x2="112.288" y2="404.137"><stop offset=".227" style="stop-color:#b7ace0"/><stop offset=".789" style="stop-color:#e8e7fa"/></linearGradient><path d="M113.07 404.38s-.22-.57-.52.04c-2.7 5.49-27.15 64.96-29.09 110.86 0 0-4.08 26.37 30.11 26.02 28.54-.29 27.78-24.6 27.68-32.79-.38-33.22-28.18-104.13-28.18-104.13z" style="fill:url(#SVGID_3_)"/><linearGradient id="SVGID_4_" gradientUnits="userSpaceOnUse" x1="112.289" y1="419.369" x2="112.289" y2="570.502"><stop offset="0" style="stop-color:#ecf1fb"/><stop offset=".818" style="stop-color:#afb0e7"/></linearGradient><path d="M112.29 570.5c-.55 0-1-.45-1-1V420.37c0-.55.45-1 1-1s1 .45 1 1V569.5c0 .55-.45 1-1 1z" style="fill:url(#SVGID_4_)"/><linearGradient id="SVGID_5_" gradientUnits="userSpaceOnUse" x1="613.416" y1="449.79" x2="613.416" y2="361.465"><stop offset=".227" style="stop-color:#ccd4f4"/><stop offset=".789" style="stop-color:#ecf1fb"/></linearGradient><path d="M613.92 361.62s-.14-.37-.33.03c-1.74 3.53-17.48 41.83-18.73 71.38 0 0-2.63 16.98 19.39 16.76 18.38-.18 17.89-15.84 17.82-21.11-.25-21.4-18.15-67.06-18.15-67.06z" style="fill:url(#SVGID_5_)"/><linearGradient id="SVGID_6_" gradientUnits="userSpaceOnUse" x1="613.418" y1="371.273" x2="613.418" y2="468.585"><stop offset="0" style="stop-color:#ecf1fb"/><stop offset="1" style="stop-color:#a6a8e2"/></linearGradient><path d="M613.42 468.59c-.36 0-.64-.29-.64-.64v-96.02c0-.36.29-.64.64-.64s.64.29.64.64v96.02c0 .35-.29.64-.64.64z" style="fill:url(#SVGID_6_)"/><linearGradient id="SVGID_7_" gradientUnits="userSpaceOnUse" x1="459.334" y1="87.183" x2="424.58" y2="147.379"><stop offset="0" style="stop-color:#ffdb80"/><stop offset="1" style="stop-color:#ffbb24"/></linearGradient><circle cx="441.96" cy="117.28" r="34.75" style="fill:url(#SVGID_7_)"/><linearGradient id="SVGID_8_" gradientUnits="userSpaceOnUse" x1="416.997" y1="117.649" x2="416.997" y2="175.103"><stop offset="0" style="stop-color:#f9fafe"/><stop offset="1" style="stop-color:#e5edf7"/></linearGradient><path d="M461.73 136.23h-34.57c-2.23-10.61-11.65-18.58-22.93-18.58s-20.69 7.97-22.93 18.58h-9.05c-10.73 0-19.44 8.7-19.44 19.44 0 10.73 8.7 19.44 19.44 19.44h89.47c10.73 0 19.44-8.7 19.44-19.44.01-10.74-8.69-19.44-19.43-19.44z" style="fill:url(#SVGID_8_)"/><g><linearGradient id="SVGID_9_" gradientUnits="userSpaceOnUse" x1="684.019" y1="539.03" x2="684.019" y2="511.202"><stop offset=".227" style="stop-color:#afb0e7"/><stop offset="1" style="stop-color:#ecf1fb"/></linearGradient><circle cx="684.02" cy="525.12" r="13.91" style="fill:url(#SVGID_9_)"/><linearGradient id="SVGID_10_" gradientUnits="userSpaceOnUse" x1="684.068" y1="514.715" x2="684.068" y2="559.511"><stop offset="0" style="stop-color:#dde1f6"/><stop offset=".818" style="stop-color:#a6a8e2"/></linearGradient><path d="M684.07 559.51c-.24 0-.43-.19-.43-.43v-43.94c0-.24.19-.43.43-.43s.43.19.43.43v43.94c0 .24-.2.43-.43.43z" style="fill:url(#SVGID_10_)"/></g><g><linearGradient id="SVGID_11_" gradientUnits="userSpaceOnUse" x1="216.95" y1="285.861" x2="541.507" y2="610.418"><stop offset="0" style="stop-color:#c8cbf2"/><stop offset="1" style="stop-color:#9d9ddc"/></linearGradient><path d="M509.22 618.94H249.24c-31.69 0-57.38-25.69-57.38-57.38V334.72c0-31.69 25.69-57.38 57.38-57.38h259.98c31.69 0 57.38 25.69 57.38 57.38v226.84c0 31.69-25.69 57.38-57.38 57.38z" style="fill:url(#SVGID_11_)"/><linearGradient id="SVGID_12_" gradientUnits="userSpaceOnUse" x1="374.934" y1="285.17" x2="374.934" y2="618.939"><stop offset=".116" style="stop-color:#dee4ff"/><stop offset=".847" style="stop-color:#bacbee"/></linearGradient><path d="M506.57 618.94H243.29c-28.41 0-51.44-23.03-51.44-51.44V336.61c0-28.41 23.03-51.44 51.44-51.44h263.28c28.41 0 51.44 23.03 51.44 51.44V567.5c0 28.41-23.03 51.44-51.44 51.44z" style="fill:url(#SVGID_12_)"/><linearGradient id="SVGID_13_" gradientUnits="userSpaceOnUse" x1="374.934" y1="285.17" x2="374.934" y2="387.373"><stop offset=".116" style="stop-color:#d5ddfb"/><stop offset=".847" style="stop-color:#bacbee"/></linearGradient><path d="M505.25 285.17H244.62c-29.14 0-52.76 21.4-52.76 47.79v54.41h366.15v-54.41c0-26.39-23.62-47.79-52.76-47.79z" style="fill:url(#SVGID_13_)"/><linearGradient id="SVGID_14_" gradientUnits="userSpaceOnUse" x1="275.932" y1="413.997" x2="352.302" y2="490.366"><stop offset="0" style="stop-color:#c8cbf2"/><stop offset="1" style="stop-color:#9d9ddc"/></linearGradient><path d="M367.09 469.56H261.14c-8.65 0-15.66-7.78-15.66-17.38s7.01-17.38 15.66-17.38h105.95c8.65 0 15.66 7.78 15.66 17.38s-7.01 17.38-15.66 17.38z" style="fill:url(#SVGID_14_)"/><linearGradient id="SVGID_15_" gradientUnits="userSpaceOnUse" x1="262.375" y1="496.572" x2="311.63" y2="545.827"><stop offset="0" style="stop-color:#c8cbf2"/><stop offset="1" style="stop-color:#9d9ddc"/></linearGradient><path d="M312.87 538.58h-51.73c-8.65 0-15.66-7.78-15.66-17.38 0-9.6 7.01-17.38 15.66-17.38h51.73c8.65 0 15.66 7.78 15.66 17.38 0 9.6-7.01 17.38-15.66 17.38z" style="fill:url(#SVGID_15_)"/><path class="st26" d="M361.79 469.56H260.46c-8.27 0-14.98-6.71-14.98-14.98s6.71-14.98 14.98-14.98h101.33c8.27 0 14.98 6.71 14.98 14.98s-6.71 14.98-14.98 14.98zM306.77 538.16h-46.31c-8.27 0-14.98-6.71-14.98-14.98s6.71-14.98 14.98-14.98h46.31c8.27 0 14.98 6.71 14.98 14.98s-6.71 14.98-14.98 14.98z"/><linearGradient id="SVGID_16_" gradientUnits="userSpaceOnUse" x1="461.811" y1="458.21" x2="543.969" y2="540.369"><stop offset="0" style="stop-color:#c8cbf2"/><stop offset="1" style="stop-color:#9d9ddc"/></linearGradient><path d="M555.8 528.54H449.98v-36.62c0-29.17 23.73-52.91 52.91-52.91 29.17 0 52.91 23.73 52.91 52.91v36.62zm-73.84-31.97h41.86v-4.65c0-11.54-9.39-20.93-20.93-20.93s-20.93 9.39-20.93 20.93v4.65z" style="fill:url(#SVGID_16_)"/><linearGradient id="SVGID_17_" gradientUnits="userSpaceOnUse" x1="499.552" y1="444.66" x2="499.552" y2="528.542"><stop offset=".116" style="stop-color:#dee4ff"/><stop offset=".847" style="stop-color:#bacbee"/></linearGradient><path d="M549.12 528.54h-99.14v-34.31c0-27.33 22.24-49.57 49.57-49.57 27.33 0 49.57 22.24 49.57 49.57v34.31zm-69.18-29.95h39.22v-4.36c0-10.81-8.8-19.61-19.61-19.61s-19.61 8.8-19.61 19.61v4.36z" style="fill:url(#SVGID_17_)"/><linearGradient id="SVGID_18_" gradientUnits="userSpaceOnUse" x1="441.989" y1="496.099" x2="564.48" y2="618.591"><stop offset="0" style="stop-color:#c8cbf2"/><stop offset="1" style="stop-color:#9d9ddc"/></linearGradient><path d="M544.42 622.09h-82.37c-22.08 0-39.98-17.9-39.98-39.98v-49.54c0-22.08 17.9-39.98 39.98-39.98h82.37c22.08 0 39.98 17.9 39.98 39.98v49.54c0 22.08-17.9 39.98-39.98 39.98z" style="fill:url(#SVGID_18_)"/><linearGradient id="SVGID_19_" gradientUnits="userSpaceOnUse" x1="499.552" y1="498.474" x2="499.552" y2="622.092"><stop offset=".116" style="stop-color:#dee4ff"/><stop offset=".847" style="stop-color:#bacbee"/></linearGradient><path d="M537.06 622.09h-75.01c-22.08 0-39.98-17.9-39.98-39.98v-43.67c0-22.08 17.9-39.98 39.98-39.98h75.01c22.08 0 39.98 17.9 39.98 39.98v43.67c-.01 22.08-17.91 39.98-39.98 39.98z" style="fill:url(#SVGID_19_)"/><linearGradient id="SVGID_20_" gradientUnits="userSpaceOnUse" x1="500.945" y1="329.363" x2="521.45" y2="349.869"><stop offset="0" style="stop-color:#c8cbf2"/><stop offset="1" style="stop-color:#9d9ddc"/></linearGradient><circle cx="511.2" cy="339.62" r="14.5" style="fill:url(#SVGID_20_)"/><circle class="st26" cx="509.33" cy="341.49" r="12.63"/><linearGradient id="SVGID_21_" gradientUnits="userSpaceOnUse" x1="450.631" y1="329.363" x2="471.137" y2="349.869"><stop offset="0" style="stop-color:#c8cbf2"/><stop offset="1" style="stop-color:#9d9ddc"/></linearGradient><circle cx="460.88" cy="339.62" r="14.5" style="fill:url(#SVGID_21_)"/><circle class="st26" cx="459.01" cy="341.49" r="12.63"/><linearGradient id="SVGID_22_" gradientUnits="userSpaceOnUse" x1="401.768" y1="329.363" x2="422.273" y2="349.869"><stop offset="0" style="stop-color:#c8cbf2"/><stop offset="1" style="stop-color:#9d9ddc"/></linearGradient><circle cx="412.02" cy="339.62" r="14.5" style="fill:url(#SVGID_22_)"/><circle class="st26" cx="410.15" cy="341.49" r="12.63"/><linearGradient id="SVGID_23_" gradientUnits="userSpaceOnUse" x1="522.322" y1="574.379" x2="484.858" y2="536.915"><stop offset=".15" style="stop-color:#afc5d8"/><stop offset="1" style="stop-color:#dce6f7"/></linearGradient><path d="M522.5 544.93c0-10.44-8.47-18.91-18.91-18.91s-18.91 8.47-18.91 18.91c0 8.05 5.03 14.9 12.12 17.63v20.94c0 3.75 3.04 6.8 6.8 6.8s6.8-3.04 6.8-6.8v-20.94c7.07-2.73 12.1-9.59 12.1-17.63z" style="fill:url(#SVGID_23_)"/><path class="st26" d="M519.23 545.81c0-9.58-7.76-17.34-17.34-17.34s-17.34 7.76-17.34 17.34c0 7.38 4.62 13.66 11.11 16.17v22.17a6.23 6.23 0 0 0 12.46 0v-22.17c6.5-2.5 11.11-8.79 11.11-16.17z"/></g><g><linearGradient id="SVGID_24_" gradientUnits="userSpaceOnUse" x1="647.176" y1="362.16" x2="647.176" y2="342.438" gradientTransform="matrix(-1 0 0 1 939.579 0)"><stop offset="0" style="stop-color:#ffdb80"/><stop offset="1" style="stop-color:#ffbb24"/></linearGradient><path d="M296.92 345.45s-.99-3.45-4.48-2.97c-3.49.49-4.59 3.51-5.42 3.29-.83-.22-.85-2.43-1.27-1.35-.42 1.08-.67 3.37-.67 3.37s-.15 1.93.13 4.72.01 6.66 2.12 7.82c4.73 2.6 7.13 1.91 9.94.93 2.93-1.02 2.65-6 2.27-7.5-.29-1.17-2.62-8.31-2.62-8.31z" style="fill:url(#SVGID_24_)"/><path class="st49" d="M285.13 351.84s-.51 9.62 8.94 9.62c3.37 0 6.36-2.56 4.95-9.56 1.6 5.12 2.67 10.88-4.89 11.84-7.25.91-9.92-6.33-9-11.9z"/><linearGradient id="SVGID_25_" gradientUnits="userSpaceOnUse" x1="277.531" y1="345.765" x2="277.531" y2="254.503"><stop offset="0" style="stop-color:#18264b"/><stop offset=".652" style="stop-color:#2d3c65"/></linearGradient><path d="M281.6 254.5c-.99 0-3.32 5.36-4.49 14.71-6.42 8.12-35.56 22.44-30.6 33.85 4.96 11.41 38.32 42.7 38.32 42.7l12.65-.74s-19.81-33.58-25.3-42.42c13.86-6.51 30.75-18.54 32.98-19.78 2.23-1.24 3.97-28.07 3.97-28.07l-27.53-.25z" style="fill:url(#SVGID_25_)"/><linearGradient id="SVGID_26_" gradientUnits="userSpaceOnUse" x1="-1825.379" y1="362.089" x2="-1825.379" y2="342.252" gradientTransform="translate(2141.635)"><stop offset="0" style="stop-color:#ffdb80"/><stop offset="1" style="stop-color:#ffbb24"/></linearGradient><path d="M311.89 345.28s.96-3.47 4.33-2.98c3.37.49 4.43 3.53 5.23 3.31.8-.22.82-2.44 1.22-1.36.4 1.09.65 3.39.65 3.39s.14 1.94-.12 4.75-.01 6.7-2.05 7.87c-4.57 2.62-6.89 1.92-9.6.93-2.83-1.03-2.56-6.03-2.2-7.54.3-1.19 2.54-8.37 2.54-8.37z" style="fill:url(#SVGID_26_)"/><path class="st49" d="M323.27 351.71s.49 9.67-8.63 9.67c-3.26 0-6.14-2.57-4.78-9.62-1.55 5.15-2.58 10.95 4.72 11.91 7.01.92 9.59-6.36 8.69-11.96z"/><linearGradient id="SVGID_27_" gradientUnits="userSpaceOnUse" x1="2750.022" y1="345.848" x2="2750.022" y2="254.503" gradientTransform="matrix(-1 0 0 1 3081.213 0)"><stop offset="0" style="stop-color:#18264b"/><stop offset=".652" style="stop-color:#2d3c65"/></linearGradient><path d="M327.13 254.5c.99 0 3.32 5.36 4.49 14.71 6.42 8.12 35.56 22.44 30.6 33.85-4.96 11.41-38.65 42.78-38.65 42.78l-12.65-.74s20.14-33.67 25.63-42.5c-13.86-6.51-30.75-18.54-32.98-19.78-2.23-1.24-3.97-28.07-3.97-28.07l27.53-.25z" style="fill:url(#SVGID_27_)"/><linearGradient id="SVGID_28_" gradientUnits="userSpaceOnUse" x1="303.994" y1="269.548" x2="303.994" y2="188.405"><stop offset="0" style="stop-color:#c3d5fd"/><stop offset="1" style="stop-color:#1a90fc"/></linearGradient><path d="M296.61 188.77s-15.9-.44-21.15 7c-5.25 7.43-7.46 24.66-7.46 24.66l12.18-.64-4.1 49.76 55.98-.37-3.31-51.34 11.07-1.83s2.94-22.86-15.33-27.14c-6.28-.79-12.38-.38-12.79-.13 0 0-1.53 8.37-8.13 7.84-6.61-.52-6.96-7.81-6.96-7.81z" style="fill:url(#SVGID_28_)"/><linearGradient id="SVGID_29_" gradientUnits="userSpaceOnUse" x1="304.411" y1="177.087" x2="304.411" y2="198.208"><stop offset="0" style="stop-color:#f4ae98"/><stop offset="1" style="stop-color:#fad1bb"/></linearGradient><path d="m298.22 179.61-3.36 14.99c-.16.7.21 1.42.88 1.69 1.74.71 5.21 1.91 8.79 1.91 3.71 0 7.21-2.03 8.82-3.11.55-.37.79-1.07.57-1.7l-5.14-15.29c-.23-.7-.94-1.12-1.66-.99l-7.7 1.37c-.6.1-1.07.55-1.2 1.13z" style="fill:url(#SVGID_29_)"/><linearGradient id="SVGID_30_" gradientUnits="userSpaceOnUse" x1="318.235" y1="172.242" x2="290.632" y2="172.242"><stop offset="0" style="stop-color:#f4b9a4"/><stop offset=".652" style="stop-color:#fad1bb"/></linearGradient><path d="M317.64 173.61c.5-.71.82-2.54.41-3.08-.74-.6-1.44-.25-1.97.27.12-4.37-.27-8-.37-8.92-.27-2.68-3-7.58-11.9-7.58s-10.63 6.42-10.63 6.42-.58 4.54-.41 10.06c-.53-.51-1.22-.84-1.95-.25-.41.54-.09 2.36.41 3.08.5.71.82 2.41.91 3.35.09.89-.56 3.26 1.79 2.96 1.4 5.6 7.06 10.26 10.57 10.26 3.85 0 8.95-4.7 10.41-10.27 2.39.33 1.74-2.06 1.83-2.96.08-.93.4-2.62.9-3.34z" style="fill:url(#SVGID_30_)"/><linearGradient id="SVGID_31_" gradientUnits="userSpaceOnUse" x1="286.833" y1="161.572" x2="318.88" y2="161.572"><stop offset="0" style="stop-color:#4f5c7c"/><stop offset="1" style="stop-color:#274168"/></linearGradient><path d="M310.23 152.39s-1.74-5.47-8.4-4.16c-6.66 1.31-7.11 4.46-9.72 4.58-4.46.21-8.03 5.77-2.3 11.66 2.55 2.62.39 3.75 1.61 6.07s1.2 4.58 1.2 4.58 2.13-6.8.73-9.69c-.72-1.49 2.48-1.9 6.48-1.55s10.29-.97 10.79-3.69c1.18 5.58 2.36 6.16 3.86 7s1.59 7.58 1.59 7.58.27-4.95 1.31-6.07c.86-1.83 2.55-9.01.64-10.75s-.32-7.32-7.79-5.56z" style="fill:url(#SVGID_31_)"/><linearGradient id="SVGID_32_" gradientUnits="userSpaceOnUse" x1="254.642" y1="268.851" x2="254.642" y2="285.337"><stop offset="0" style="stop-color:#f4b9a4"/><stop offset=".652" style="stop-color:#fad1bb"/></linearGradient><path d="M253.87 269.43s.14 3.28-1.35 4.87c-1.49 1.59-4.46 4.97-3.95 7.03.51 2.05 1.66 4.21 2.34 4 .68-.21.56-.99.71-.79.15.21 1.05 1.13 1.46.34s.4 1.74 2.01-.55c.71.94 1.64.79 1.95-.65.31-1.44.71-3.35.74-3.56.11.99-.42 3.52.84 3.2.52-.13 1.8-2.41 2.05-5.35.25-2.94-.87-3.52.03-7.04s-6.83-1.5-6.83-1.5z" style="fill:url(#SVGID_32_)"/><linearGradient id="SVGID_33_" gradientUnits="userSpaceOnUse" x1="267.141" y1="273.098" x2="267.141" y2="192.825"><stop offset="0" style="stop-color:#c3d5fd"/><stop offset="1" style="stop-color:#1a90fc"/></linearGradient><path d="M278.68 192.83s7.08 15.52 1.49 26.96c-5.58 11.44-12.22 26.63-12.78 30.23-.53 3.43-5.64 22.95-5.64 22.95l-9.8.12s1.86-20.91 5.46-33.93c3.6-13.01 11.66-43.2 21.27-46.33z" style="fill:url(#SVGID_33_)"/><linearGradient id="SVGID_34_" gradientUnits="userSpaceOnUse" x1="2821.925" y1="268.851" x2="2821.925" y2="285.337" gradientTransform="matrix(-1 0 0 1 3177.222 0)"><stop offset="0" style="stop-color:#f4b9a4"/><stop offset=".652" style="stop-color:#fad1bb"/></linearGradient><path d="M356.07 269.43s-.14 3.28 1.35 4.87c1.49 1.59 4.46 4.97 3.95 7.03-.51 2.05-1.66 4.21-2.34 4-.68-.21-.56-.99-.71-.79-.15.21-1.05 1.13-1.46.34s-.4 1.74-2.01-.55c-.71.94-1.64.79-1.95-.65-.31-1.44-.71-3.35-.74-3.56-.11.99.42 3.52-.84 3.2-.52-.13-1.8-2.41-2.05-5.35s.87-3.52-.03-7.04 6.83-1.5 6.83-1.5z" style="fill:url(#SVGID_34_)"/><linearGradient id="SVGID_35_" gradientUnits="userSpaceOnUse" x1="2834.367" y1="273.098" x2="2834.367" y2="192.262" gradientTransform="matrix(-1 0 0 1 3177.222 0)"><stop offset="0" style="stop-color:#c3d5fd"/><stop offset="1" style="stop-color:#1a90fc"/></linearGradient><path d="M331.88 192.26s-7.7 16.08-2.11 27.53c5.58 11.44 12.22 26.63 12.78 30.23.53 3.43 5.64 22.95 5.64 22.95l9.8.12s-1.86-20.91-5.46-33.93c-3.6-13.01-11.63-42.71-20.65-46.9z" style="fill:url(#SVGID_35_)"/></g></g></svg>