<svg class="icon" viewBox="0 0 1024 1024"
    xmlns="http://www.w3.org/2000/svg" width="81" height="81">
    <path d="M513.024 267.776c-140.288 0-253.952 113.664-253.952 253.952S372.736 775.68 513.024 775.68s253.952-113.664 253.952-253.952-113.664-253.952-253.952-253.952z" fill="#00C286"/>
    <path d="M65.024 671.232 198.656 537.6c4.608-4.608 11.776-4.608 15.872 0 4.608 4.608 4.608 11.776 0 15.872L80.896 687.104c-4.608 4.608-11.776 4.608-15.872 0-4.608-4.096-4.608-11.264 0-15.872z" fill="#FFB800"/>
    <path d="m5.12 574.464 78.336-42.496-8.704 68.608L5.12 574.464z" fill="#48AAF0"/>
    <path d="M747.52 224.256c0 13.824 10.752 24.576 24.576 24.576s24.576-10.752 24.576-24.576-10.752-24.576-24.576-24.576c-13.312 0-24.576 10.752-24.576 24.576z" fill="#14CAB4"/>
    <path d="m258.56 251.392 55.808-21.504-21.504 55.808-55.808 21.504 21.504-55.808zm0 34.304-22.528-54.784 54.784 22.528 22.528 54.784-54.784-22.528z" fill="#FFB800"/>
    <path d="m856.064 741.376 59.904-23.04-23.04 59.904-59.904 23.04 23.04-59.904zm0 36.864L832 719.36l58.88 24.064 24.064 58.88-58.88-24.064z" fill="#14CAB4"/>
    <path d="m816.64 536.576 136.192-136.192c4.096-4.096 10.24-3.584 14.336 0 3.584 4.096 3.584 10.24 0 14.336L830.976 550.912c-4.096 4.096-10.24 3.584-14.336 0-3.584-4.096-3.584-10.24 0-14.336z" fill="#48AAF0"/>
    <path d="m797.184 614.912 204.288-204.288c4.096-4.096 10.24-3.584 14.336 0 3.584 4.096 3.584 10.24 0 14.336L811.52 629.248c-4.096 4.096-10.24 3.584-14.336 0-3.584-4.096-3.584-10.24 0-14.336z" fill="#FFC94C"/>
    <path d="M630.784 480.256 494.592 621.568c-3.072 3.072-8.192 3.072-11.264 0L402.432 537.6c-3.072-3.072-3.072-8.704 0-11.776L427.52 499.2c3.072-3.072 8.192-3.072 11.264 0l49.664 51.712 104.96-109.056c3.072-3.072 8.192-3.072 11.264 0l25.6 26.624c3.584 3.072 3.584 8.704.512 11.776z" fill="#FFF"/>
</svg>