<svg class="icon" viewBox="0 0 1024 1024" xmlns="http://www.w3.org/2000/svg" width="100" height="100"><path d="M972.656 402.584c-12.624-117.432-94.392-199.92-211.2-232.272 89.208 35.304 149.784 105.936 160.2 202.2C942.2 557.96 756.8 771.656 526.4 837.08c-218.544 62.064-443.016-9.264-463.44-195.12a288.792 288.792 0 014.056-85.488A326.4 326.4 0 0052.064 691.76c21.912 201.072 254.208 318.888 508.44 238.968S994.592 603.68 972.656 402.584z" fill="#F5C51D"/><path d="M133.832 650.888h210.72l41.064-134.736c28.8 35.592 77.736 54.816 136.224 54.816 38.664 0 83.64-9.288 112.248-30.864l1.464 1.128c-20.424 30.84-56.112 60.96-105.6 83.256-35.64 15.24-79.536 24.528-123.36 26.016-28.632 0-43.488.744-59.832-1.128L314.456 768.8c17.832 1.128 34.176 2.616 75.072 2.256 95.544-1.872 197.736-27.504 272.424-75.816 95.52-61.344 176.904-169.104 190.296-299.208 12-117.816-52.8-203.304-201.432-203.304C505.424 192.608 379.832 285.56 360.8 404a155.256 155.256 0 01.552-22.272C373.928 258.392 509.6 159.536 667.52 159.536a405.12 405.12 0 0148.696 2.976l37.92-100.8H121.928L77.72 189.272h209.232zm398.4-252.36c4.104-45.336 46.44-94.032 92.544-94.032h1.104c44.232 0 64.296 30.096 60.6 67.2-1.104 12.312-4.08 29.424-8.88 39.504a77.112 77.112 0 01-16.8 27.12c-12 11.544-37.584 25.272-70.248 25.272-35.616-.048-62.4-24.192-58.296-65.064z" fill="#4B6BF6"/></svg>