<svg xmlns="http://www.w3.org/2000/svg" xmlns:xlink="http://www.w3.org/1999/xlink" viewBox="0 0 1000 900"><defs><linearGradient id="v" x1="4289.9" y1="570.29" x2="4905.86" y2="570.29" gradientTransform="matrix(-1 0 0 1 4930.86 0)" gradientUnits="userSpaceOnUse"><stop offset="0" stop-color="#666"/><stop offset=".31" stop-color="#686868"/><stop offset=".47" stop-color="#707070"/><stop offset=".59" stop-color="#7d7d7d"/><stop offset=".7" stop-color="#909090"/><stop offset=".79" stop-color="#a9a9a9"/><stop offset=".88" stop-color="#c7c7c7"/><stop offset=".96" stop-color="#eaeaea"/><stop offset="1" stop-color="#fff"/></linearGradient><linearGradient id="a" x1="4195.6" y1="636.1" x2="4419.89" y2="636.1" gradientTransform="matrix(-1 0 0 1 4930.86 0)" gradientUnits="userSpaceOnUse"><stop offset="0" stop-color="#666"/><stop offset=".06" stop-color="#737373"/><stop offset=".28" stop-color="#a5a5a5"/><stop offset=".5" stop-color="#ccc"/><stop offset=".7" stop-color="#e8e8e8"/><stop offset=".87" stop-color="#f9f9f9"/><stop offset="1" stop-color="#fff"/></linearGradient><linearGradient id="L" x1="4387.14" y1="446.19" x2="4558.33" y2="446.19" xlink:href="#a"/><linearGradient id="O" x1="4096.87" y1="210.76" x2="4143.65" y2="210.76" xlink:href="#a"/><linearGradient id="R" x1="4047.64" y1="298.38" x2="4114.78" y2="321.9" gradientTransform="matrix(-1 0 0 1 4930.86 0)" gradientUnits="userSpaceOnUse"><stop offset="0"/><stop offset=".22" stop-color="#030303"/><stop offset=".36" stop-color="#0b0b0b"/><stop offset=".47" stop-color="#1a1a1a"/><stop offset=".57" stop-color="#2e2e2e"/><stop offset=".66" stop-color="#494949"/><stop offset=".75" stop-color="#696969"/><stop offset=".83" stop-color="#909090"/><stop offset=".91" stop-color="#bdbdbd"/><stop offset=".98" stop-color="#efefef"/><stop offset="1" stop-color="#fff"/></linearGradient><linearGradient id="t" x1="4195.61" y1="177.02" x2="4321.49" y2="177.02" xlink:href="#a"/><linearGradient id="b" x1="3955.86" y1="679.17" x2="4290.07" y2="679.17" gradientTransform="matrix(-1 0 0 1 4930.86 0)" gradientUnits="userSpaceOnUse"><stop offset="0" stop-color="#fff"/><stop offset=".04" stop-color="#eaeaea"/><stop offset=".12" stop-color="#c7c7c7"/><stop offset=".21" stop-color="#a9a9a9"/><stop offset=".3" stop-color="#909090"/><stop offset=".41" stop-color="#7d7d7d"/><stop offset=".53" stop-color="#707070"/><stop offset=".69" stop-color="#686868"/><stop offset="1" stop-color="#666"/></linearGradient><linearGradient id="W" x1="4174.68" y1="153.56" x2="4187.71" y2="153.56" xlink:href="#a"/><linearGradient id="Y" x1="4142.5" y1="467.99" x2="4168.25" y2="467.99" xlink:href="#a"/><linearGradient id="aa" x1="4142.5" y1="478.13" x2="4179.94" y2="478.13" xlink:href="#a"/><linearGradient id="ad" x1="4142.47" y1="488.29" x2="4191.64" y2="488.29" xlink:href="#a"/><linearGradient id="af" x1="4241.16" y1="455.31" x2="4263.06" y2="455.31" xlink:href="#a"/><linearGradient id="E" x1="4277.65" y1="420.84" x2="4299.93" y2="420.84" xlink:href="#a"/><linearGradient id="ak" x1="4321.41" y1="408.71" x2="4343.31" y2="408.71" xlink:href="#a"/><linearGradient id="H" x1="-3576.01" y1="748.64" x2="-3344.38" y2="748.64" gradientTransform="translate(4222.81)" xlink:href="#a"/><linearGradient id="ap" x1="4675.21" y1="323.38" x2="4804.79" y2="323.38" xlink:href="#a"/><linearGradient id="as" x1="4357.19" y1="395.59" x2="4694.33" y2="395.59" xlink:href="#a"/><linearGradient id="A" x1="4247.97" y1="786.04" x2="4455.76" y2="786.04" xlink:href="#b"/><linearGradient id="au" x1="4628.69" y1="441.53" x2="4756.44" y2="441.53" xlink:href="#a"/><linearGradient id="ax" x1="3984.5" y1="527.06" x2="3990.92" y2="527.06" xlink:href="#a"/><linearGradient id="c" x1="4293.47" y1="441.27" x2="4303.99" y2="441.27" gradientTransform="matrix(-1 0 0 1 4930.86 0)" gradientUnits="userSpaceOnUse"><stop offset="0"/><stop offset="1" stop-color="#fff"/></linearGradient><linearGradient id="aB" x1="4321.45" y1="476.43" x2="4338.48" y2="476.43" xlink:href="#c"/><linearGradient id="d" x1="4583.01" y1="512.55" x2="4591.51" y2="512.55" gradientTransform="matrix(-1 0 0 1 4930.86 0)" gradientUnits="userSpaceOnUse"><stop offset="0" stop-color="#fff"/><stop offset=".13" stop-color="#f9f9f9"/><stop offset=".3" stop-color="#e8e8e8"/><stop offset=".5" stop-color="#ccc"/><stop offset=".72" stop-color="#a5a5a5"/><stop offset=".94" stop-color="#737373"/><stop offset="1" stop-color="#666"/></linearGradient><linearGradient id="aF" x1="4553.3" y1="522.78" x2="4569.38" y2="522.78" xlink:href="#d"/><linearGradient id="S" x1="4599.5" y1="490.96" x2="4603.56" y2="490.96" xlink:href="#a"/><linearGradient id="aK" x1="4011.44" y1="356.12" x2="3963.98" y2="356.12" xlink:href="#a"/><linearGradient id="U" x1="4598.32" y1="749.74" x2="4601.52" y2="749.74" xlink:href="#a"/><linearGradient id="aP" x1="4611.79" y1="698.31" x2="4588.06" y2="698.31" xlink:href="#a"/><linearGradient id="D" x1="4442.39" y1="355.63" x2="4448.8" y2="355.63" xlink:href="#a"/><linearGradient id="aS" x1="4830.01" y1="530.71" x2="4833.21" y2="530.71" xlink:href="#a"/><linearGradient id="aU" x1="4843.48" y1="433.99" x2="4819.75" y2="433.99" xlink:href="#a"/><linearGradient id="G" x1="4469.33" y1="195.98" x2="4421.86" y2="195.98" xlink:href="#a"/><linearGradient id="Z" x1="4289.9" y1="570.29" x2="4905.86" y2="570.29" gradientTransform="matrix(-1 0 0 1 4930.86 0)" gradientUnits="userSpaceOnUse"><stop offset="0" stop-color="#fff"/><stop offset=".44" stop-color="#fdfeff"/><stop offset=".67" stop-color="#f5f9ff"/><stop offset=".84" stop-color="#e8f2ff"/><stop offset=".99" stop-color="#d5e8ff"/><stop offset="1" stop-color="#d4e7ff"/></linearGradient><linearGradient id="e" x1="3955.86" y1="679.17" x2="4290.07" y2="679.17" gradientTransform="matrix(-1 0 0 1 4930.86 0)" gradientUnits="userSpaceOnUse"><stop offset="0" stop-color="#d4e7ff"/><stop offset=".01" stop-color="#d5e8ff"/><stop offset=".16" stop-color="#e8f2ff"/><stop offset=".33" stop-color="#f5f9ff"/><stop offset=".56" stop-color="#fdfeff"/><stop offset="1" stop-color="#fff"/></linearGradient><linearGradient id="ab" x1="4247.97" y1="786.04" x2="4455.76" y2="786.04" xlink:href="#e"/><linearGradient id="f" x1="4442.39" y1="355.63" x2="4448.8" y2="355.63" gradientTransform="matrix(-1 0 0 1 4930.86 0)" gradientUnits="userSpaceOnUse"><stop offset="0" stop-color="#e9f2ff"/><stop offset=".28" stop-color="#c7dbff"/><stop offset=".56" stop-color="#abc8ff"/><stop offset=".81" stop-color="#9abdff"/><stop offset="1" stop-color="#94b9ff"/></linearGradient><linearGradient id="ae" x1="4469.33" y1="195.98" x2="4421.86" y2="195.98" xlink:href="#f"/><linearGradient id="j" x1="4195.6" y1="636.1" x2="4419.89" y2="636.1" gradientTransform="matrix(-1 0 0 1 4930.86 0)" gradientUnits="userSpaceOnUse"><stop offset="0" stop-color="#e9f2ff"/><stop offset="1" stop-color="#e9f1ff"/></linearGradient><linearGradient id="k" x1="4195.6" y1="609.3" x2="4419.89" y2="609.3" gradientTransform="matrix(-1 0 0 1 4930.86 0)" gradientUnits="userSpaceOnUse"><stop offset="0" stop-color="#e9efff"/><stop offset="1" stop-color="#d4e3ff"/></linearGradient><linearGradient id="g" x1="4239.35" y1="574.05" x2="4250.45" y2="574.05" gradientTransform="matrix(-1 0 0 1 4930.86 0)" gradientUnits="userSpaceOnUse"><stop offset="0" stop-color="#004daa"/><stop offset="1" stop-color="#0029e9"/></linearGradient><linearGradient id="bb" x1="4358.96" y1="564.66" x2="4367.8" y2="564.66" xlink:href="#g"/><linearGradient id="ag" x1="4394.33" y1="601.16" x2="4418.06" y2="601.16" xlink:href="#g"/><linearGradient id="h" x1="4403.7" y1="633.18" x2="4419.88" y2="633.18" gradientTransform="matrix(-1 0 0 1 4930.86 0)" gradientUnits="userSpaceOnUse"><stop offset="0" stop-color="#6aaeff"/><stop offset="1" stop-color="#005eff"/></linearGradient><linearGradient id="bc" x1="4378.68" y1="643.39" x2="4403.7" y2="643.39" xlink:href="#g"/><linearGradient id="i" x1="4364.81" y1="642.86" x2="4378.68" y2="642.86" gradientTransform="matrix(-1 0 0 1 4930.86 0)" gradientUnits="userSpaceOnUse"><stop offset="0" stop-color="#025"/><stop offset="1" stop-color="#003a7f"/></linearGradient><linearGradient id="bd" x1="4333.13" y1="668.44" x2="4376.14" y2="668.44" xlink:href="#h"/><linearGradient id="ai" x1="4321.71" y1="668.45" x2="4333.13" y2="668.45" xlink:href="#g"/><linearGradient id="be" x1="4301.54" y1="662.92" x2="4321.71" y2="662.92" xlink:href="#i"/><linearGradient id="bf" x1="4292.34" y1="670.43" x2="4301.54" y2="670.43" xlink:href="#g"/><linearGradient id="al" x1="4241.97" y1="651.92" x2="4256.9" y2="651.92" xlink:href="#i"/><linearGradient id="bg" x1="4247.7" y1="673.98" x2="4292.34" y2="673.98" xlink:href="#h"/><linearGradient id="bh" x1="4217.55" y1="653.92" x2="4241.97" y2="653.92" xlink:href="#g"/><linearGradient id="an" x1="4197.44" y1="646.55" x2="4217.55" y2="646.55" xlink:href="#h"/><linearGradient id="bi" x1="4195.61" y1="615.16" x2="4221.66" y2="615.16" xlink:href="#g"/><linearGradient id="bj" x1="-3150.9" y1="735.4" x2="-3036.05" y2="735.4" gradientTransform="translate(3563.46)" xlink:href="#h"/><linearGradient id="aq" x1="-3137.81" y1="786.94" x2="-2970.45" y2="786.94" gradientTransform="translate(3563.46)" xlink:href="#h"/><linearGradient id="bk" x1="-3188.69" y1="691.1" x2="-3099.64" y2="691.1" gradientTransform="translate(3563.46)" xlink:href="#h"/><linearGradient id="at" x1="4387.14" y1="446.19" x2="4558.33" y2="446.19" xlink:href="#j"/><linearGradient id="bm" x1="4387.13" y1="382.93" x2="4558.33" y2="382.93" xlink:href="#k"/><linearGradient id="m" x1="4357.92" y1="374.05" x2="4500.57" y2="374.05" gradientTransform="matrix(-1 0 0 1 4930.86 0)" gradientUnits="userSpaceOnUse"><stop offset="0" stop-color="#ff0007"/><stop offset="1" stop-color="#ffaaac"/></linearGradient><linearGradient id="bn" x1="4470.7" y1="373.64" x2="4558.33" y2="373.64" xlink:href="#k"/><linearGradient id="av" x1="4396.18" y1="355.46" x2="4529.78" y2="355.46" xlink:href="#h"/><linearGradient id="l" x1="4470.7" y1="405.36" x2="4551.73" y2="405.36" gradientTransform="matrix(-1 0 0 1 4930.86 0)" gradientUnits="userSpaceOnUse"><stop offset="0" stop-color="#f22aff"/><stop offset="1" stop-color="#6c00e9"/></linearGradient><linearGradient id="p" x1="4239.35" y1="588.5" x2="4419.89" y2="588.5" gradientTransform="matrix(-1 0 0 1 4930.86 0)" gradientUnits="userSpaceOnUse"><stop offset="0" stop-color="#d4e3ff"/><stop offset="1" stop-color="#e9efff"/></linearGradient><linearGradient id="bo" x1="4085.17" y1="291.03" x2="4155.36" y2="291.03" gradientTransform="matrix(-1 0 0 1 4930.86 0)" gradientUnits="userSpaceOnUse"><stop offset="0" stop-color="#e9f2ff"/><stop offset="1" stop-color="#bfdcff"/></linearGradient><linearGradient id="bq" x1="4096.87" y1="210.76" x2="4143.65" y2="210.76" xlink:href="#f"/><linearGradient id="bs" x1="4047.64" y1="298.38" x2="4114.78" y2="321.9" gradientTransform="matrix(-1 0 0 1 4930.86 0)" gradientUnits="userSpaceOnUse"><stop offset="0" stop-color="#fff"/><stop offset=".23" stop-color="#fcfeff"/><stop offset=".38" stop-color="#f4f9ff"/><stop offset=".5" stop-color="#e5f0ff"/><stop offset=".6" stop-color="#d1e5ff"/><stop offset=".7" stop-color="#b6d5ff"/><stop offset=".79" stop-color="#96c3ff"/><stop offset=".88" stop-color="#6facff"/><stop offset=".96" stop-color="#4393ff"/><stop offset="1" stop-color="#2a85ff"/></linearGradient><linearGradient id="ay" x1="4167.04" y1="179.97" x2="4342.49" y2="179.97" xlink:href="#k"/><linearGradient id="bt" x1="4167.05" y1="308.27" x2="4342.48" y2="308.27" xlink:href="#h"/><linearGradient id="bu" x1="4195.61" y1="177.02" x2="4321.49" y2="177.02" xlink:href="#f"/><linearGradient id="bv" x1="4188.05" y1="191.6" x2="4295.24" y2="191.6" xlink:href="#l"/><linearGradient id="aC" x1="4174.68" y1="153.56" x2="4187.71" y2="153.56" xlink:href="#f"/><linearGradient id="bx" x1="4204.44" y1="264.86" x2="4223.26" y2="264.86" xlink:href="#l"/><linearGradient id="aE" x1="4251.22" y1="237.74" x2="4270.04" y2="237.74" xlink:href="#m"/><linearGradient id="by" x1="4297.98" y1="210.76" x2="4316.8" y2="210.76" xlink:href="#h"/><linearGradient id="n" x1="4084.7" y1="329.65" x2="4171.19" y2="329.65" gradientTransform="matrix(-1 0 0 1 4930.86 0)" gradientUnits="userSpaceOnUse"><stop offset="0" stop-color="#004daa"/><stop offset="1" stop-color="#00276a"/></linearGradient><linearGradient id="bz" x1="4102.92" y1="330.7" x2="4144.63" y2="330.7" xlink:href="#m"/><linearGradient id="bA" x1="4103.65" y1="364.25" x2="4178.36" y2="364.25" xlink:href="#l"/><linearGradient id="aG" x1="4132.29" y1="291.78" x2="4179.22" y2="291.78" xlink:href="#h"/><linearGradient id="bB" x1="4124.77" y1="345.94" x2="4165.68" y2="345.94" xlink:href="#n"/><linearGradient id="bC" x1="4154.39" y1="306.18" x2="4163.65" y2="306.18" xlink:href="#n"/><linearGradient id="aI" x1="4085.17" y1="502.59" x2="4131.95" y2="502.59" xlink:href="#k"/><linearGradient id="bE" x1="4142.5" y1="467.99" x2="4168.25" y2="467.99" xlink:href="#f"/><linearGradient id="bF" x1="4142.5" y1="478.13" x2="4179.94" y2="478.13" xlink:href="#f"/><linearGradient id="aN" x1="4142.47" y1="488.29" x2="4191.64" y2="488.29" xlink:href="#f"/><linearGradient id="bH" x1="4085.19" y1="545.48" x2="4190.46" y2="545.48" xlink:href="#l"/><linearGradient id="aQ" x1="4241.16" y1="455.31" x2="4263.06" y2="455.31" xlink:href="#f"/><linearGradient id="bK" x1="4277.65" y1="420.84" x2="4299.93" y2="420.84" xlink:href="#f"/><linearGradient id="bL" x1="4321.41" y1="408.71" x2="4343.31" y2="408.71" xlink:href="#f"/><linearGradient id="bN" x1="-3576.01" y1="748.64" x2="-3344.38" y2="748.64" gradientTransform="translate(4222.81)" xlink:href="#f"/><linearGradient id="bO" x1="4600.91" y1="569.96" x2="4789.23" y2="569.96" xlink:href="#i"/><linearGradient id="bQ" x1="4675.21" y1="323.38" x2="4804.79" y2="323.38" xlink:href="#f"/><linearGradient id="bS" x1="4357.19" y1="395.59" x2="4694.33" y2="395.59" xlink:href="#f"/><linearGradient id="bT" x1="4580.34" y1="323.38" x2="4770.07" y2="323.38" gradientTransform="matrix(-1 0 0 1 4930.86 0)" gradientUnits="userSpaceOnUse"><stop offset="0" stop-color="#e9f2ff"/><stop offset="1" stop-color="#d4e3ff"/></linearGradient><linearGradient id="bV" x1="4628.69" y1="441.53" x2="4756.44" y2="441.53" xlink:href="#f"/><linearGradient id="bW" x1="4638.97" y1="474.26" x2="4746.15" y2="474.26" xlink:href="#h"/><linearGradient id="bX" x1="4644.18" y1="503.88" x2="4740.95" y2="503.88" xlink:href="#k"/><linearGradient id="bY" x1="4673.89" y1="525.21" x2="4711.24" y2="525.21" xlink:href="#m"/><linearGradient id="ca" x1="3984.5" y1="527.06" x2="3990.92" y2="527.06" xlink:href="#f"/><linearGradient id="cb" x1="4583.14" y1="654.11" x2="4605.2" y2="654.11" xlink:href="#i"/><linearGradient id="cc" x1="4567.59" y1="650.34" x2="4589.44" y2="650.34" xlink:href="#i"/><linearGradient id="o" x1="4576.35" y1="613.86" x2="4589.93" y2="613.86" gradientTransform="matrix(-1 0 0 1 4930.86 0)" gradientUnits="userSpaceOnUse"><stop offset="0" stop-color="#ff7f83"/><stop offset="1" stop-color="#ffd4d5"/></linearGradient><linearGradient id="cd" x1="4561.21" y1="611.02" x2="4574.67" y2="611.02" xlink:href="#o"/><linearGradient id="ce" x1="4555.52" y1="562.85" x2="4597.56" y2="562.85" xlink:href="#h"/><linearGradient id="cf" x1="4547.88" y1="498.95" x2="4567.47" y2="498.95" xlink:href="#p"/><linearGradient id="cg" x1="4313.62" y1="531.93" x2="4327.98" y2="531.93" xlink:href="#i"/><linearGradient id="ch" x1="4284.7" y1="610.89" x2="4312.63" y2="610.89" xlink:href="#h"/><linearGradient id="ci" x1="4296.83" y1="602.58" x2="4324.76" y2="602.58" xlink:href="#h"/><linearGradient id="cj" x1="4312.27" y1="543.12" x2="4335.95" y2="543.12" xlink:href="#i"/><linearGradient id="ck" x1="4300.13" y1="551.43" x2="4323.81" y2="551.43" xlink:href="#i"/><linearGradient id="q" x1="4257.88" y1="411.12" x2="4268.8" y2="411.12" gradientTransform="matrix(-1 0 0 1 4930.86 0)" gradientUnits="userSpaceOnUse"><stop offset="0" stop-color="#ffd4d5"/><stop offset="1" stop-color="#ff7f83"/></linearGradient><linearGradient id="cl" x1="4297.99" y1="387.75" x2="4308.46" y2="387.75" xlink:href="#q"/><linearGradient id="cm" x1="4303.78" y1="415.64" x2="4330.43" y2="415.64" gradientTransform="matrix(-1 0 0 1 4930.86 0)" gradientUnits="userSpaceOnUse"><stop offset="0" stop-color="#6aaeff"/><stop offset="1" stop-color="#002fe9"/></linearGradient><linearGradient id="cn" x1="4308.83" y1="433.78" x2="4320.2" y2="433.78" xlink:href="#q"/><linearGradient id="co" x1="4301.48" y1="419.79" x2="4319.49" y2="419.79" xlink:href="#q"/><linearGradient id="cp" x1="4264.48" y1="460.97" x2="4338.48" y2="460.97" xlink:href="#h"/><linearGradient id="r" x1="4293.47" y1="441.27" x2="4303.99" y2="441.27" gradientTransform="matrix(-1 0 0 1 4930.86 0)" gradientUnits="userSpaceOnUse"><stop offset="0" stop-color="#6a8cff"/><stop offset="1" stop-color="#0011bf"/></linearGradient><linearGradient id="cs" x1="4321.45" y1="476.43" x2="4338.48" y2="476.43" xlink:href="#r"/><linearGradient id="ct" x1="4570.61" y1="457.52" x2="4588.8" y2="457.52" xlink:href="#o"/><linearGradient id="cu" x1="4612.38" y1="468.08" x2="4621.73" y2="468.08" xlink:href="#o"/><linearGradient id="cv" x1="4553.3" y1="510.38" x2="4615.99" y2="510.38" xlink:href="#k"/><linearGradient id="cw" x1="4580.3" y1="532.09" x2="4590.13" y2="532.09" xlink:href="#h"/><linearGradient id="s" x1="4583.01" y1="512.55" x2="4591.51" y2="512.55" gradientTransform="matrix(-1 0 0 1 4930.86 0)" gradientUnits="userSpaceOnUse"><stop offset="0" stop-color="#94b9ff"/><stop offset=".19" stop-color="#9abdff"/><stop offset=".44" stop-color="#abc8ff"/><stop offset=".72" stop-color="#c7dbff"/><stop offset="1" stop-color="#e9f2ff"/></linearGradient><linearGradient id="cz" x1="4553.3" y1="522.78" x2="4569.38" y2="522.78" xlink:href="#s"/><linearGradient id="cB" x1="4599.5" y1="490.96" x2="4603.56" y2="490.96" xlink:href="#f"/><linearGradient id="cC" x1="4555.81" y1="549.02" x2="4583.42" y2="549.02" gradientTransform="matrix(-1 0 0 1 4930.86 0)" gradientUnits="userSpaceOnUse"><stop offset="0" stop-color="#6aaeff"/><stop offset="1" stop-color="#002294"/></linearGradient><linearGradient id="cE" x1="4011.44" y1="356.12" x2="3963.98" y2="356.12" xlink:href="#f"/><linearGradient id="cG" x1="4598.32" y1="749.74" x2="4601.52" y2="749.74" xlink:href="#f"/><linearGradient id="cI" x1="4611.79" y1="698.31" x2="4588.06" y2="698.31" xlink:href="#f"/><linearGradient id="cK" x1="4830.01" y1="530.71" x2="4833.21" y2="530.71" xlink:href="#f"/><linearGradient id="cM" x1="4843.48" y1="433.99" x2="4819.75" y2="433.99" xlink:href="#f"/><filter id="u" x="25" y="391.93" width="615.96" height="356.71" filterUnits="userSpaceOnUse" color-interpolation-filters="sRGB"><feFlood flood-color="#fff" result="bg"/><feBlend in="SourceGraphic" in2="bg"/></filter><filter id="x" x="640.79" y="582.4" width="334.21" height="193.54" filterUnits="userSpaceOnUse" color-interpolation-filters="sRGB"><feFlood flood-color="#fff" result="bg"/><feBlend in="SourceGraphic" in2="bg"/></filter><filter id="z" x="475.1" y="725.87" width="207.79" height="120.33" filterUnits="userSpaceOnUse" color-interpolation-filters="sRGB"><feFlood flood-color="#fff" result="bg"/><feBlend in="SourceGraphic" in2="bg"/></filter><filter id="C" x="482.06" y="214.82" width="6.41" height="281.62" filterUnits="userSpaceOnUse" color-interpolation-filters="sRGB"><feFlood flood-color="#fff" result="bg"/><feBlend in="SourceGraphic" in2="bg"/></filter><filter id="F" x="461.53" y="172.18" width="47.46" height="47.6" filterUnits="userSpaceOnUse" color-interpolation-filters="sRGB"><feFlood flood-color="#fff" result="bg"/><feBlend in="SourceGraphic" in2="bg"/></filter><filter id="I" x="510.98" y="576.51" width="224.28" height="119.19" filterUnits="userSpaceOnUse" color-interpolation-filters="sRGB"><feFlood flood-color="#fff" result="bg"/><feBlend in="SourceGraphic" in2="bg"/></filter><filter id="K" x="372.53" y="415.93" width="171.2" height="60.51" filterUnits="userSpaceOnUse" color-interpolation-filters="sRGB"><feFlood flood-color="#fff" result="bg"/><feBlend in="SourceGraphic" in2="bg"/></filter><filter id="N" x="787.21" y="172.77" width="46.78" height="75.99" filterUnits="userSpaceOnUse" color-interpolation-filters="sRGB"><feFlood flood-color="#fff" result="bg"/><feBlend in="SourceGraphic" in2="bg"/></filter><filter id="Q" x="777.83" y="267.55" width="77.78" height="111.7" filterUnits="userSpaceOnUse" color-interpolation-filters="sRGB"><feFlood flood-color="#fff" result="bg"/><feBlend in="SourceGraphic" in2="bg"/></filter><filter id="T" x="609.37" y="108.17" width="125.88" height="137.69" filterUnits="userSpaceOnUse" color-interpolation-filters="sRGB"><feFlood flood-color="#fff" result="bg"/><feBlend in="SourceGraphic" in2="bg"/></filter><filter id="V" x="743.15" y="142.98" width="13.03" height="21.16" filterUnits="userSpaceOnUse" color-interpolation-filters="sRGB"><feFlood flood-color="#fff" result="bg"/><feBlend in="SourceGraphic" in2="bg"/></filter><filter id="w" x="762.62" y="460.04" width="25.75" height="15.91" filterUnits="userSpaceOnUse" color-interpolation-filters="sRGB"><feFlood flood-color="#fff" result="bg"/><feBlend in="SourceGraphic" in2="bg"/></filter><filter id="y" x="750.92" y="466.81" width="37.44" height="22.66" filterUnits="userSpaceOnUse" color-interpolation-filters="sRGB"><feFlood flood-color="#fff" result="bg"/><feBlend in="SourceGraphic" in2="bg"/></filter><filter id="ac" x="739.23" y="473.58" width="49.16" height="29.43" filterUnits="userSpaceOnUse" color-interpolation-filters="sRGB"><feFlood flood-color="#fff" result="bg"/><feBlend in="SourceGraphic" in2="bg"/></filter><filter id="B" x="667.8" y="426.06" width="21.9" height="58.48" filterUnits="userSpaceOnUse" color-interpolation-filters="sRGB"><feFlood flood-color="#fff" result="bg"/><feBlend in="SourceGraphic" in2="bg"/></filter><filter id="ah" x="630.93" y="378.74" width="22.28" height="84.19" filterUnits="userSpaceOnUse" color-interpolation-filters="sRGB"><feFlood flood-color="#fff" result="bg"/><feBlend in="SourceGraphic" in2="bg"/></filter><filter id="aj" x="587.55" y="379.46" width="21.9" height="58.48" filterUnits="userSpaceOnUse" color-interpolation-filters="sRGB"><feFlood flood-color="#fff" result="bg"/><feBlend in="SourceGraphic" in2="bg"/></filter><filter id="am" x="646.8" y="622.28" width="231.63" height="252.72" filterUnits="userSpaceOnUse" color-interpolation-filters="sRGB"><feFlood flood-color="#fff" result="bg"/><feBlend in="SourceGraphic" in2="bg"/></filter><filter id="ao" x="126.08" y="210.84" width="129.58" height="225.07" filterUnits="userSpaceOnUse" color-interpolation-filters="sRGB"><feFlood flood-color="#fff" result="bg"/><feBlend in="SourceGraphic" in2="bg"/></filter><filter id="ar" x="236.53" y="221.71" width="337.14" height="347.76" filterUnits="userSpaceOnUse" color-interpolation-filters="sRGB"><feFlood flood-color="#fff" result="bg"/><feBlend in="SourceGraphic" in2="bg"/></filter><filter id="J" x="174.42" y="415.91" width="127.75" height="51.24" filterUnits="userSpaceOnUse" color-interpolation-filters="sRGB"><feFlood flood-color="#fff" result="bg"/><feBlend in="SourceGraphic" in2="bg"/></filter><filter id="aw" x="939.95" y="374.96" width="6.41" height="304.21" filterUnits="userSpaceOnUse" color-interpolation-filters="sRGB"><feFlood flood-color="#fff" result="bg"/><feBlend in="SourceGraphic" in2="bg"/></filter><filter id="az" x="626.87" y="434.14" width="10.52" height="14.26" filterUnits="userSpaceOnUse" color-interpolation-filters="sRGB"><feFlood flood-color="#fff" result="bg"/><feBlend in="SourceGraphic" in2="bg"/></filter><filter id="M" x="592.38" y="452.65" width="17.02" height="47.56" filterUnits="userSpaceOnUse" color-interpolation-filters="sRGB"><feFlood flood-color="#fff" result="bg"/><feBlend in="SourceGraphic" in2="bg"/></filter><filter id="aD" x="339.35" y="506.83" width="8.5" height="11.43" filterUnits="userSpaceOnUse" color-interpolation-filters="sRGB"><feFlood flood-color="#fff" result="bg"/><feBlend in="SourceGraphic" in2="bg"/></filter><filter id="P" x="361.48" y="497.74" width="16.08" height="50.09" filterUnits="userSpaceOnUse" color-interpolation-filters="sRGB"><feFlood flood-color="#fff" result="bg"/><feBlend in="SourceGraphic" in2="bg"/></filter><filter id="aH" x="327.3" y="487.73" width="4.06" height="6.45" filterUnits="userSpaceOnUse" color-interpolation-filters="sRGB"><feFlood flood-color="#fff" result="bg"/><feBlend in="SourceGraphic" in2="bg"/></filter><filter id="aJ" x="919.42" y="332.32" width="47.46" height="47.6" filterUnits="userSpaceOnUse" color-interpolation-filters="sRGB"><feFlood flood-color="#fff" result="bg"/><feBlend in="SourceGraphic" in2="bg"/></filter><filter id="aM" x="329.34" y="707.73" width="3.21" height="84.02" filterUnits="userSpaceOnUse" color-interpolation-filters="sRGB"><feFlood flood-color="#fff" result="bg"/><feBlend in="SourceGraphic" in2="bg"/></filter><filter id="aO" x="319.07" y="686.41" width="23.73" height="23.8" filterUnits="userSpaceOnUse" color-interpolation-filters="sRGB"><feFlood flood-color="#fff" result="bg"/><feBlend in="SourceGraphic" in2="bg"/></filter><filter id="aR" x="97.65" y="443.41" width="3.21" height="174.61" filterUnits="userSpaceOnUse" color-interpolation-filters="sRGB"><feFlood flood-color="#fff" result="bg"/><feBlend in="SourceGraphic" in2="bg"/></filter><filter id="X" x="87.38" y="422.09" width="23.73" height="23.8" filterUnits="userSpaceOnUse" color-interpolation-filters="sRGB"><feFlood flood-color="#fff" result="bg"/><feBlend in="SourceGraphic" in2="bg"/></filter><mask id="aV" x="25" y="391.93" width="615.96" height="356.71" maskUnits="userSpaceOnUse"><g mask="url(#t)" filter="url(#u)"><path d="m629.56 586.06-269 156c-15.21 8.81-39.87 8.81-55.07 0L36.4 586.08c-15.2-8.81-15.2-23.1 0-31.91l268.82-155.63c15.21-8.81 39.88-8.81 55.1 0l269.22 155.63c15.22 8.83 15.23 23.08.02 31.89z" fill="url(#v)" style="mix-blend-mode:multiply"/></g></mask><mask id="aW" x="640.79" y="582.4" width="334.21" height="193.54" maskUnits="userSpaceOnUse"><g mask="url(#w)" filter="url(#x)"><path d="m968.81 687.73-146 84.62c-8.25 4.79-21.63 4.79-29.88 0L647 687.74c-8.25-4.78-8.25-12.53 0-17.31L792.83 586c8.26-4.78 21.64-4.79 29.9 0l146.07 84.43c8.26 4.77 8.27 12.57.01 17.3z" fill="url(#b)" style="mix-blend-mode:multiply"/></g></mask><mask id="aX" x="475.1" y="725.87" width="207.79" height="120.33" maskUnits="userSpaceOnUse"><g mask="url(#y)" filter="url(#z)"><path d="M679.05 791.36 588.29 844c-5.13 3-13.45 3-18.58 0L479 791.36c-5.13-3-5.13-7.79 0-10.76l90.68-52.5c5.13-3 13.46-3 18.59 0L679 780.6c5.17 2.97 5.18 7.78.05 10.76z" fill="url(#A)" style="mix-blend-mode:multiply"/></g></mask><mask id="aY" x="482.06" y="214.82" width="6.41" height="281.62" maskUnits="userSpaceOnUse"><g mask="url(#B)" filter="url(#C)"><path d="M488.47 214.82s-2.2 145.2-3.2 281.62c0 0-2.27-219.73-3.21-281.62z" fill="url(#D)" style="mix-blend-mode:multiply"/></g></mask><mask id="aZ" x="461.53" y="172.18" width="47.46" height="47.6" maskUnits="userSpaceOnUse"><g mask="url(#E)" filter="url(#F)"><ellipse cx="485.27" cy="195.98" rx="23.73" ry="23.8" fill="url(#G)" style="mix-blend-mode:multiply"/></g></mask><mask id="ba" x="510.98" y="576.51" width="224.28" height="119.19" maskUnits="userSpaceOnUse"><g mask="url(#H)" filter="url(#I)"><path d="m511 639.51 9.77 14.59.47.69 5.95 8.86 25-3.73a83.38 83.38 0 0 0 13.87 8.48l-10.16 11-1.17 1.26 6 1.75 37 10.63 11.42-12.35a166 166 0 0 0 20.18 1.31l9.19 13.74 41.11-6.11 1.67-.25 1.86-.29-.28-.41-8.88-13.35a86.87 86.87 0 0 0 14.93-6.52l24.42 7 7.85-8.49 12.27-13.28-9.85-2.82-14.42-4.12a24.29 24.29 0 0 0 1-10.68l14.76-2.2 10.26-1.53-16.2-24.13-24.72 3.68c-.91-.73-1.86-1.42-2.83-2.1l-1-.71c-1.26-.85-2.57-1.69-3.94-2.5-2-1.17-4-2.29-6.16-3.37l1.33-1.44 9.77-10.57-43-12.37-11 11.91c-2.64-.34-5.32-.62-8-.85-3.66-.31-7.35-.48-11.08-.53h-1.88L614 586l-.17-.28-.85-1.26-5.32-7.93-9 1.33-35.65 5.31 8.83 13.18a93.36 93.36 0 0 0-8.83 3.45 69.18 69.18 0 0 0-6.61 3.37l-23.54-6.77-20.06 21.74 12.27 3.53 11.47 3.33a24.17 24.17 0 0 0-.84 10.86l-13 1.95z" fill="url(#a)" style="mix-blend-mode:multiply"/></g></mask><mask id="bl" x="372.53" y="415.93" width="171.2" height="60.51" maskUnits="userSpaceOnUse"><g mask="url(#J)" filter="url(#K)"><path d="M372.53 424.83a32.15 32.15 0 0 0 2.36 12.07 38.89 38.89 0 0 0 4.23 7.82c9 13 26.55 23.28 48.39 28.32a136.35 136.35 0 0 0 30.63 3.4c25.79 0 48.9-6.88 64.59-17.76 8.89-6.16 15.39-13.59 18.65-21.78a32.54 32.54 0 0 0 2.35-12.07 32.17 32.17 0 0 0-1.27-8.9c-7 24.27-42.08 42.7-84.32 42.7s-77.35-18.43-84.34-42.7a31.8 31.8 0 0 0-1.27 8.9z" fill="url(#L)" style="mix-blend-mode:multiply"/></g></mask><mask id="bp" x="787.21" y="172.77" width="46.78" height="75.99" maskUnits="userSpaceOnUse"><g mask="url(#M)" filter="url(#N)"><path d="M834 200.93v44.35a3.46 3.46 0 0 1-5.2 3l-38.11-22.07a6.89 6.89 0 0 1-3.45-6v-43.73a3.69 3.69 0 0 1 5.54-3.21l37.94 21.94a6.59 6.59 0 0 1 3.28 5.72z" fill="url(#O)" style="mix-blend-mode:multiply"/></g></mask><mask id="br" x="777.83" y="267.55" width="77.78" height="111.7" maskUnits="userSpaceOnUse"><g mask="url(#P)" filter="url(#Q)"><path d="M777.83 275.65a20.27 20.27 0 0 1 7.83-1 26.62 26.62 0 0 1 4.13.58 36.66 36.66 0 0 1 10.1 4c21.2 12 38.81 43.55 39.31 70.5a47.65 47.65 0 0 1-2 15.5 27.23 27.23 0 0 1-4.84 9.13 19.66 19.66 0 0 1-6 4.91l14.3-6.11 1.46-.63c8.47-4.05 13.74-14.57 13.45-29.84-.51-26.95-18.12-58.52-39.32-70.51-8.74-4.93-16.73-5.78-23.06-3.17l-.9.39z" fill="url(#R)" style="mix-blend-mode:multiply"/></g></mask><mask id="aA" x="609.37" y="108.17" width="125.88" height="137.69" maskUnits="userSpaceOnUse"><g mask="url(#S)" filter="url(#T)"><path d="M734.78 245.86c.47-9 2.34-53.92-7-59.34a4.91 4.91 0 0 0-4.1-.45c-4.64 1.55-8.22 9.89-12.35 19.54-3.31 7.72-7.43 17.33-10.94 18.5a1.82 1.82 0 0 1-1.59-.2c-5-2.89-5.61-25.22-6.11-43.16-.73-26.32-1.63-42.57-7.88-46.19a4.45 4.45 0 0 0-4-.32c-5 2-8.21 12.82-13.1 30.28-3.8 13.58-8.54 30.49-13.55 32.54a2.21 2.21 0 0 1-2.13-.24c-6.77-3.92-6.32-27.44-6-46.33.45-23.52.41-38.12-5.71-41.67a4.07 4.07 0 0 0-4-.25c-4.85 2.32-7.15 14.91-10.37 35.36-2 13.09-4.87 31-8.38 32.69-.12.06-.27.13-.68-.1-4.48-2.6-4.57-23-3.2-36.57l-3.52-.35c-.59 5.86-3.12 35.31 4.95 40a4.09 4.09 0 0 0 4 .23c4.84-2.31 7.14-14.89 10.36-35.34 2-13.09 4.87-31 8.39-32.71.11 0 .27-.13.68.11 4.63 2.69 4.27 21.74 4 38.54-.44 22.89-.85 44.51 7.73 49.47a5.75 5.75 0 0 0 5.22.45c6.62-2.7 11-18.32 15.63-34.86 3.3-11.8 7.41-26.48 11-28a.89.89 0 0 1 .91.11c5 2.89 5.62 25.25 6.12 43.22.73 26.29 1.62 42.51 7.87 46.13a5.38 5.38 0 0 0 4.48.5c5-1.67 8.93-10.8 13.07-20.47 3.15-7.37 7.08-16.53 10.22-17.58a1.36 1.36 0 0 1 1.21.16c5.49 3.17 6.37 34.71 5.25 56.08z" fill="url(#t)" style="mix-blend-mode:multiply"/></g></mask><mask id="bw" x="743.15" y="142.98" width="13.03" height="21.16" maskUnits="userSpaceOnUse"><g mask="url(#U)" filter="url(#V)"><path d="M756.18 150.83v12.35a1 1 0 0 1-1.45.83l-10.61-6.14a1.94 1.94 0 0 1-1-1.67V144a1 1 0 0 1 1.54-.9l10.57 6.11a1.85 1.85 0 0 1 .95 1.62z" fill="url(#W)" style="mix-blend-mode:multiply"/></g></mask><mask id="bD" x="762.62" y="460.04" width="25.75" height="15.91" maskUnits="userSpaceOnUse"><g mask="url(#X)" filter="url(#w)"><path d="M787.18 475.94a1.18 1.18 0 0 0 .59-2.2l-23.39-13.55a1.18 1.18 0 0 0-1.17 2.05l23.38 13.54a1.16 1.16 0 0 0 .59.16z" fill="url(#Y)" style="mix-blend-mode:multiply"/></g></mask><mask id="aL" x="750.92" y="466.81" width="37.44" height="22.66" maskUnits="userSpaceOnUse"><g mask="url(#Z)" filter="url(#y)"><path d="M787.18 489.46a1.18 1.18 0 0 0 .59-2.2L752.69 467a1.18 1.18 0 0 0-1.18 2l35.08 20.3a1.26 1.26 0 0 0 .59.16z" fill="url(#aa)" style="mix-blend-mode:multiply"/></g></mask><mask id="bG" x="739.23" y="473.58" width="49.16" height="29.43" maskUnits="userSpaceOnUse"><g mask="url(#ab)" filter="url(#ac)"><path d="M787.21 503a1.17 1.17 0 0 0 1-.59 1.19 1.19 0 0 0-.43-1.62L741 473.74a1.18 1.18 0 1 0-1.17 2l46.8 27.07a1.16 1.16 0 0 0 .58.19z" fill="url(#ad)" style="mix-blend-mode:multiply"/></g></mask><mask id="bI" x="667.8" y="426.06" width="21.9" height="58.48" maskUnits="userSpaceOnUse"><g mask="url(#ae)" filter="url(#B)"><path d="m687 434.52-13.74-8a3.59 3.59 0 0 0-5.39 3.12v40.8A6.33 6.33 0 0 0 671 476l14.13 8.18a3.09 3.09 0 0 0 4.63-2.68v-42.19a5.53 5.53 0 0 0-2.76-4.79z" fill="url(#af)" style="mix-blend-mode:multiply"/></g></mask><mask id="bJ" x="630.93" y="378.74" width="22.28" height="84.19" maskUnits="userSpaceOnUse"><g mask="url(#ag)" filter="url(#ah)"><path d="M651.06 388.46 634.17 379a2.18 2.18 0 0 0-3.24 1.9v67.94a6.32 6.32 0 0 0 3.15 5.47l14.14 8.18a3.08 3.08 0 0 0 4.62-2.67l.38-67.68a4.23 4.23 0 0 0-2.16-3.68z" fill="url(#E)" style="mix-blend-mode:multiply"/></g></mask><mask id="aT" x="587.55" y="379.46" width="21.9" height="58.48" maskUnits="userSpaceOnUse"><g mask="url(#ai)" filter="url(#aj)"><path d="M606.7 387.92 593 380a3.59 3.59 0 0 0-5.39 3.12v40.8a6.33 6.33 0 0 0 3.15 5.48l14.13 8.18a3.08 3.08 0 0 0 4.62-2.68v-42.19a5.54 5.54 0 0 0-2.81-4.79z" fill="url(#ak)" style="mix-blend-mode:multiply"/></g></mask><mask id="bM" x="646.8" y="622.28" width="231.63" height="252.72" maskUnits="userSpaceOnUse"><g mask="url(#al)" filter="url(#am)"><path d="M647.66 875c-.87-16.46-4.31-99.1 13.12-109.19a9.51 9.51 0 0 1 8-.88c8.76 2.92 15.35 18.3 23 36.11 6 14 13.5 31.49 19.67 33.55a2.75 2.75 0 0 0 2.46-.33c8.84-5.12 10-45.82 10.88-78.53 1.35-48.4 3-78.28 14.73-85.07a8.7 8.7 0 0 1 7.86-.62c9.35 3.82 15.34 23.7 24.33 55.83 6.94 24.75 15.57 55.56 24.48 59.2a3.46 3.46 0 0 0 3.37-.4c12.1-7 11.29-49.87 10.63-84.32-.82-43.28-.74-70.15 10.74-76.82a8.18 8.18 0 0 1 7.83-.46c9.31 4.45 13.4 27.66 19.3 65.17 3.54 22.49 8.88 56.48 15 59.42.1.05.22.11.7-.17 4.8-2.78 9.7-25.21 5.57-66.38l7.6-.77c1.09 10.79 5.73 65-9.35 73.78a8.16 8.16 0 0 1-7.81.46c-9.31-4.46-13.39-27.66-19.29-65.15-3.54-22.5-8.88-56.51-15-59.45-.1-.05-.22-.1-.71.18-8.17 4.75-7.48 41-6.93 70 .8 42.09 1.56 81.84-14.45 91.11a11.12 11.12 0 0 1-10.07.85c-12.38-5-20.43-33.79-29-64.22-6-21.48-13.5-48.21-19.86-50.8-.25-.11-.52-.21-1.16.16-8.87 5.13-10 45.89-10.91 78.64-1.35 48.34-3 78.18-14.7 85a10.37 10.37 0 0 1-8.68 1c-9.44-3.14-16.65-20-24.28-37.8-5.73-13.38-12.87-30-18.37-31.86a1.9 1.9 0 0 0-1.74.24c-9.83 5.69-11.36 63.16-9.31 102.16z" fill="url(#H)" style="mix-blend-mode:multiply"/></g></mask><mask id="bP" x="126.08" y="210.84" width="129.58" height="225.07" maskUnits="userSpaceOnUse"><g mask="url(#an)" filter="url(#ao)"><path d="M126.08 323.38a112.28 112.28 0 0 0 129.57 111.19 111.31 111.31 0 0 1-46.51-18.66 112.63 112.63 0 0 1 46.51-203.71 110.38 110.38 0 0 0-17.35-1.36c-61.98 0-112.22 50.39-112.22 112.54z" fill="url(#ap)" style="mix-blend-mode:multiply"/></g></mask><mask id="bR" x="236.53" y="221.71" width="337.14" height="347.76" maskUnits="userSpaceOnUse"><g mask="url(#aq)" filter="url(#ar)"><path d="M243.55 569.46a7 7 0 0 0 3.63-1l52.5-31.81a8.12 8.12 0 0 0 3.88-6.9v-10.28a6 6 0 0 1 3-5.17l31.28-18.3 53.31 30.86A13.7 13.7 0 0 0 411.69 515V241a15.6 15.6 0 0 1 23.43-13.53l135.89 79a1.77 1.77 0 0 0 1.78-3.07l-135.9-79a19.13 19.13 0 0 0-28.73 16.6v274a10.17 10.17 0 0 1-15.25 8.82l-55.08-31.89-33.08 19.33a9.54 9.54 0 0 0-4.72 8.23v10.26a4.57 4.57 0 0 1-2.18 3.87l-52.5 31.8a3.43 3.43 0 0 1-3.51.06 3.46 3.46 0 0 1-1.77-3.05v-32a1.77 1.77 0 1 0-3.54 0v32a7.05 7.05 0 0 0 7 7.05z" fill="url(#as)" style="mix-blend-mode:multiply"/></g></mask><mask id="bU" x="174.42" y="415.91" width="127.75" height="51.24" maskUnits="userSpaceOnUse"><g mask="url(#at)" filter="url(#J)"><path d="M174.42 415.91s6 20 10.29 37.6a112.09 112.09 0 0 0 107.18 0c4.28-17.6 10.29-37.6 10.29-37.6a112 112 0 0 1-127.76 0z" fill="url(#au)" style="mix-blend-mode:multiply"/></g></mask><mask id="bZ" x="939.95" y="374.96" width="6.41" height="304.21" maskUnits="userSpaceOnUse"><g mask="url(#av)" filter="url(#aw)"><path d="M946.36 375s-2.2 156.85-3.21 304.21c0 0-2.26-237.36-3.2-304.21z" fill="url(#ax)" style="mix-blend-mode:multiply"/></g></mask><mask id="cq" x="626.87" y="434.14" width="10.52" height="14.26" maskUnits="userSpaceOnUse"><g mask="url(#ay)" filter="url(#az)"><path d="M626.87 438.71c2 1.62 3.71 7.37 6.4 9.26s0-2.88-.53-6.31c-.5-3.08 3.81-6.81 4.66-7.52-4.65 3.47-8.59 5.7-10.53 4.57z" fill="url(#c)" style="mix-blend-mode:multiply"/></g></mask><mask id="cr" x="592.38" y="452.65" width="17.02" height="47.56" maskUnits="userSpaceOnUse"><g mask="url(#aA)" filter="url(#M)"><path d="M592.38 496.62a12.23 12.23 0 0 0 5 3.59 7.56 7.56 0 0 0 .49-4.31c-.81-6.76 5.59-4 10.37-6.22s-6.77-9.37-7.7-14.42 1.29-9.27 6.5-11.43-8.23-11.18-8.23-11.18c0 .29.06.58.09.88 1.05 10.12-1.81 16.88-4 25.08a89.83 89.83 0 0 0-2.52 18.01z" fill="url(#aB)" style="mix-blend-mode:multiply"/></g></mask><mask id="cx" x="339.35" y="506.83" width="8.5" height="11.43" maskUnits="userSpaceOnUse"><g mask="url(#aC)" filter="url(#aD)"><path d="M339.35 518.26c.23-.25 4.11-4.55 6.64-5.25s2.46-.92-.34-2.32a13.34 13.34 0 0 1-4.38-3.86 4.63 4.63 0 0 1 .79 4.35c-.56 1.9-1.62 3.82-2.71 7.08z" fill="url(#d)" style="mix-blend-mode:multiply"/></g></mask><mask id="cy" x="361.48" y="497.74" width="16.08" height="50.09" maskUnits="userSpaceOnUse"><g mask="url(#aE)" filter="url(#P)"><path d="M363.39 526.44c3.54 3 7.14 6.52 8.75 9.65 1.2 2.32 1.29 4.43-.56 5.95a23.06 23.06 0 0 0-2 1.84 35.6 35.6 0 0 0-3.28 4 36.37 36.37 0 0 0 8.64-3.51c2.22-1.35 2.61-2.28 2.61-2.28s-.12-1.15-.32-3c-.64-5.78-2.11-18.43-3.28-23.9-1-4.72.15-10.89 1-17.4 0 0-9 6.2-6.55 9.09s4.15 8.56 1.74 10.27-12.92 4.08-6.75 9.29z" fill="url(#aF)" style="mix-blend-mode:multiply"/></g></mask><mask id="cA" x="327.3" y="487.73" width="4.06" height="6.45" maskUnits="userSpaceOnUse"><g mask="url(#aG)" filter="url(#aH)"><path d="M327.43 493.63c-.19 1.79 3.93-1.34 3.93-1.34-1.21.49-2.1.3-2.54-.66-.3-.63-.83-2.07-1.52-3.89.51 1.36.32 4.11.13 5.89z" fill="url(#S)" style="mix-blend-mode:multiply"/></g></mask><mask id="cD" x="919.42" y="332.32" width="47.46" height="47.6" maskUnits="userSpaceOnUse"><g mask="url(#aI)" filter="url(#aJ)"><ellipse cx="943.15" cy="356.12" rx="23.73" ry="23.8" fill="url(#aK)" style="mix-blend-mode:multiply"/></g></mask><mask id="cF" x="329.34" y="707.73" width="3.21" height="84.02" maskUnits="userSpaceOnUse"><g mask="url(#aL)" filter="url(#aM)"><path d="M332.54 707.73s-1.1 43.32-1.6 84c0 0-1.13-65.56-1.6-84z" fill="url(#U)" style="mix-blend-mode:multiply"/></g></mask><mask id="cH" x="319.07" y="686.41" width="23.73" height="23.8" maskUnits="userSpaceOnUse"><g mask="url(#aN)" filter="url(#aO)"><ellipse cx="330.94" cy="698.31" rx="11.87" ry="11.9" fill="url(#aP)" style="mix-blend-mode:multiply"/></g></mask><mask id="cJ" x="97.65" y="443.41" width="3.21" height="174.61" maskUnits="userSpaceOnUse"><g mask="url(#aQ)" filter="url(#aR)"><path d="M100.85 443.41s-1.1 90-1.6 174.61c0 0-1.13-136.24-1.6-174.61z" fill="url(#aS)" style="mix-blend-mode:multiply"/></g></mask><mask id="cL" x="87.38" y="422.09" width="23.73" height="23.8" maskUnits="userSpaceOnUse"><g mask="url(#aT)" filter="url(#X)"><path d="M87.38 434a11.87 11.87 0 1 0 11.87-11.9A11.89 11.89 0 0 0 87.38 434z" fill="url(#aU)" style="mix-blend-mode:multiply"/></g></mask></defs><g mask="url(#aV)"><path d="m629.56 586.06-269 156c-15.21 8.81-39.87 8.81-55.07 0L36.4 586.08c-15.2-8.81-15.2-23.1 0-31.91l268.82-155.63c15.21-8.81 39.88-8.81 55.1 0l269.22 155.63c15.22 8.83 15.23 23.08.02 31.89z" fill="url(#Z)"/></g><g mask="url(#aW)"><path d="m968.81 687.73-146 84.62c-8.25 4.79-21.63 4.79-29.88 0L647 687.74c-8.25-4.78-8.25-12.53 0-17.31L792.83 586c8.26-4.78 21.64-4.79 29.9 0l146.07 84.43c8.26 4.77 8.27 12.57.01 17.3z" fill="url(#e)"/></g><g mask="url(#aX)"><path d="M679.05 791.36 588.29 844c-5.13 3-13.45 3-18.58 0L479 791.36c-5.13-3-5.13-7.79 0-10.76l90.68-52.5c5.13-3 13.46-3 18.59 0L679 780.6c5.17 2.97 5.18 7.78.05 10.76z" fill="url(#ab)"/></g><g mask="url(#aY)"><path d="M488.47 214.82s-2.2 145.2-3.2 281.62c0 0-2.27-219.73-3.21-281.62z" fill="url(#f)"/></g><g mask="url(#aZ)"><ellipse cx="485.27" cy="195.98" rx="23.73" ry="23.8" fill="url(#ae)"/></g><g mask="url(#ba)"><path d="m511 639.51 9.77 14.59.47.69 5.95 8.86 25-3.73a83.38 83.38 0 0 0 13.87 8.48l-10.16 11-1.17 1.26 6 1.75 37 10.63 11.42-12.35a166 166 0 0 0 20.18 1.31l9.19 13.74 41.11-6.11 1.67-.25 1.86-.29-.28-.41-8.88-13.35a86.87 86.87 0 0 0 14.93-6.52l24.42 7 7.85-8.49 12.27-13.28-9.85-2.82-14.42-4.12a24.29 24.29 0 0 0 1-10.68l14.76-2.2 10.26-1.53-16.2-24.13-24.72 3.68c-.91-.73-1.86-1.42-2.83-2.1l-1-.71c-1.26-.85-2.57-1.69-3.94-2.5-2-1.17-4-2.29-6.16-3.37l1.33-1.44 9.77-10.57-43-12.37-11 11.91c-2.64-.34-5.32-.62-8-.85-3.66-.31-7.35-.48-11.08-.53h-1.88L614 586l-.17-.28-.85-1.26-5.32-7.93-9 1.33-35.65 5.31 8.83 13.18a93.36 93.36 0 0 0-8.83 3.45 69.18 69.18 0 0 0-6.61 3.37l-23.54-6.77-20.06 21.74 12.27 3.53 11.47 3.33a24.17 24.17 0 0 0-.84 10.86l-13 1.95z" fill="url(#j)"/></g><path d="m511 612.71 9.77 14.59.47.69 5.95 8.85 25-3.72a83.38 83.38 0 0 0 13.87 8.48l-10.16 11-1.17 1.26 6 1.75 37 10.62 11.42-12.35a164 164 0 0 0 20.18 1.29l9.19 13.74 41.11-6.11 1.67-.25 1.86-.29-.28-.41-8.88-13.32a86.87 86.87 0 0 0 14.89-6.53l24.42 7 7.85-8.49 12.27-13.28-9.85-2.82-14.38-4.11a24.29 24.29 0 0 0 1-10.68l14.76-2.2 10.26-1.53-16.2-24.13-24.72 3.68c-.91-.73-1.86-1.42-2.83-2.1l-1-.71c-1.26-.85-2.57-1.69-3.94-2.5-2-1.17-4-2.29-6.16-3.37l1.33-1.44 9.77-10.57-43-12.37-11 11.91c-2.64-.34-5.32-.62-8-.85-3.66-.31-7.35-.48-11.08-.53h-1.88l-2.51-3.74-.17-.27-.85-1.26-5.32-7.93-9 1.33-35.65 5.31 8.83 13.18a93.36 93.36 0 0 0-8.83 3.45 69.18 69.18 0 0 0-6.61 3.37l-23.54-6.77-20.06 21.76 12.27 3.53 11.47 3.29a24.17 24.17 0 0 0-.84 10.84l-13 2z" fill="url(#k)"/><ellipse cx="623.29" cy="609.57" rx="18.41" ry="35.11" transform="rotate(-86.69 623.314 609.572)" fill="#f3f6ff"/><path d="m555.9 652.58-3.72-2.65q1.82 1.37 3.72 2.65z" fill="none" stroke="#000" stroke-miterlimit="10"/><path d="M680.41 576.77c2.15 1.06 4.2 2.19 6.17 3.36 1.36.81 2.66 1.65 3.93 2.51l1 .7v-18.58z" fill="url(#g)"/><path d="M563.06 556.35V573a93.57 93.57 0 0 1 8.84-3.45z" fill="url(#bb)"/><path d="M512.8 591.34v16.8l9.85 2.83 13.06-1.97a24 24 0 0 1 .82-10.86l-11.46-3.3z" fill="url(#ag)"/><path fill="url(#h)" d="M510.98 612.71v16.8l16.19 24.14v-16.8l-5.95-8.86-10.24-15.28z"/><path fill="url(#bc)" d="M527.17 636.85v16.8l25.01-3.72v-16.8l-25.01 3.72z"/><path d="M552.18 633.13v16.8l3.72 2.65 10.15-11a83.33 83.33 0 0 1-13.87-8.45z" fill="url(#i)"/><path fill="url(#bd)" d="M554.72 653.85v16.8l43.01 12.38v-16.8l-36.96-10.64-6.05-1.74z"/><path fill="url(#ai)" d="M597.73 666.23v16.8l11.42-12.36v-16.8l-11.42 12.36z"/><path d="M609.15 653.87v16.8a164 164 0 0 0 20.17 1.33v-16.83a166 166 0 0 1-20.17-1.3z" fill="url(#be)"/><path fill="url(#bf)" d="M629.32 655.17v16.79l9.21 13.74v-16.8l-9.21-13.73z"/><path d="m674 648.53 8.92 13.3q3.18-1.43 6-3V642a86.11 86.11 0 0 1-14.92 6.53z" fill="url(#al)"/><path fill="url(#bg)" d="M638.53 668.9v16.8l44.64-6.64v-16.8l-1.87.27-1.67.25-41.1 6.12z"/><path fill="url(#bh)" d="M688.89 642v16.81l24.42 7.03v-16.81L688.89 642z"/><path fill="url(#an)" d="M713.31 649.03v16.81l20.12-21.77v-16.81l-12.27 13.28-7.85 8.49z"/><path d="m709.2 620.3 14.38 4.13 11.67-1.73v-16.81L725 607.42l-14.77 2.2a24 24 0 0 1-1.03 10.68z" fill="url(#bi)"/><path fill="url(#bj)" d="m527.42 724.35-38.16-22.09-76.7 43.96 38.54 22.31 76.32-44.18z"/><path fill="url(#aq)" d="m552.86 739.08 40.15 23.25-129.2 72.47-38.16-22.09 127.21-73.63z"/><path fill="url(#bk)" d="m463.82 687.53-51.26 29.24-37.78-21.88 50.88-29.45 38.16 22.09z"/><g mask="url(#bl)"><path d="M372.53 424.83a32.15 32.15 0 0 0 2.36 12.07 38.89 38.89 0 0 0 4.23 7.82c9 13 26.55 23.28 48.39 28.32a136.35 136.35 0 0 0 30.63 3.4c25.79 0 48.9-6.88 64.59-17.76 8.89-6.16 15.39-13.59 18.65-21.78a32.54 32.54 0 0 0 2.35-12.07 32.17 32.17 0 0 0-1.27-8.9c-7 24.27-42.08 42.7-84.32 42.7s-77.35-18.43-84.34-42.7a31.8 31.8 0 0 0-1.27 8.9z" fill="url(#at)"/></g><path d="M372.53 382.93V407a31.7 31.7 0 0 0 1.27 8.9c7 24.27 42.11 42.7 84.34 42.7s77.32-18.43 84.32-42.7a32.07 32.07 0 0 0 1.27-8.9v-24.1a32.39 32.39 0 0 1-2.35 12.1 39.7 39.7 0 0 1-5 8.91C523 422 493 434.54 458.14 434.54s-64.92-12.54-78.25-30.66a40 40 0 0 1-5-8.9 32.21 32.21 0 0 1-2.36-12.05z" fill="#335089"/><path d="M372.53 382.93a32.06 32.06 0 0 0 2.36 12.07 38.94 38.94 0 0 0 4.24 7.82c9 13 26.54 23.28 48.39 28.33a136.78 136.78 0 0 0 30.62 3.4c25.79 0 48.9-6.88 64.6-17.76 8.88-6.16 15.38-13.59 18.64-21.79a32.25 32.25 0 0 0 2.35-12.06c0-8.31-3.25-16.16-9.05-23.11-14-16.89-43.06-28.49-76.54-28.49-21.91 0-41.91 5-57.06 13.13-17.52 9.44-28.55 23.17-28.55 38.46z" fill="url(#bm)"/><path d="m401.08 344.46 59.09 35.13 62.57 37.19c8.88-6.16 15.38-13.59 18.64-21.79a32.25 32.25 0 0 0 2.35-12.06c0-8.31-3.25-16.16-9.05-23.11-14-16.89-43.06-28.49-76.54-28.49-21.91 0-41.91 4.96-57.06 13.13z" fill="url(#m)"/><path d="M372.53 382.93a32.06 32.06 0 0 0 2.36 12.07 38.94 38.94 0 0 0 4.24 7.82l81-23.22-59.09-35.13c-17.48 9.44-28.51 23.17-28.51 38.46z" fill="url(#bn)"/><path d="m401.08 344.46 59.09 35.13 74.51-19.77c-14-16.89-43.06-28.49-76.54-28.49-21.91 0-41.91 4.96-57.06 13.13z" fill="url(#av)"/><path d="M379.13 402.81c9 13 26.54 23.28 48.39 28.33l32.65-51.55z" fill="url(#l)"/><path d="m511 612.71 9.77 14.59c52.29-43.87 112.43-53.6 161-52l9.77-10.57-43-12.37-11 11.91c-2.64-.34-5.32-.62-8-.85-3.66-.31-7.35-.48-11.08-.53h-1.88l-2.58-3.72-.17-.27-.85-1.26-5.32-7.93-9 1.33-35.65 5.31 8.83 13.18a93.36 93.36 0 0 0-8.83 3.45 69.18 69.18 0 0 0-6.61 3.37l-23.54-6.77-20.06 21.76 12.27 3.53 11.47 3.29a24.17 24.17 0 0 0-.84 10.84l-13 2z" fill="url(#p)"/><path d="M576.68 279.87a20.88 20.88 0 0 0 10.4 18.13l252.84 146.29a11.47 11.47 0 0 0 10.13.74.11.11 0 0 0 .07 0l1.51-.74a11.38 11.38 0 0 0 1.73-1.25 11.14 11.14 0 0 0 2.35-2.76c.08-.15.18-.3.26-.44a11.68 11.68 0 0 0 1.41-5.62V195.95a21.36 21.36 0 0 0-10.64-18.49L595.62 32l-5.56-3.23a8.69 8.69 0 0 0-3.12-1.09 9.32 9.32 0 0 0-4 .3l-.43.18-2 1a8.77 8.77 0 0 0-3.8 7.3z" fill="#f3f6ff"/><path d="m604.33 85.45.78-.31.43-.18-.31.11a6.38 6.38 0 0 0-.9.38z" fill="none" stroke="#000" stroke-miterlimit="10"/><path d="m839.71 186.88-57.92-33.51a4.19 4.19 0 0 0-6.29 3.63v227a16.52 16.52 0 0 0 8.22 14.29l52.07 30.14a6.59 6.59 0 0 0 9.88-5.72V197.32a12 12 0 0 0-5.96-10.44z" fill="url(#bo)"/><g mask="url(#bp)"><path d="M834 200.93v44.35a3.46 3.46 0 0 1-5.2 3l-38.11-22.07a6.89 6.89 0 0 1-3.45-6v-43.73a3.69 3.69 0 0 1 5.54-3.21l37.94 21.94a6.59 6.59 0 0 1 3.28 5.72z" fill="url(#bq)"/></g><g mask="url(#br)"><path d="M777.83 275.65a20.27 20.27 0 0 1 7.83-1 26.62 26.62 0 0 1 4.13.58 36.66 36.66 0 0 1 10.1 4c21.2 12 38.81 43.55 39.31 70.5a47.65 47.65 0 0 1-2 15.5 27.23 27.23 0 0 1-4.84 9.13 19.66 19.66 0 0 1-6 4.91l14.3-6.11 1.46-.63c8.47-4.05 13.74-14.57 13.45-29.84-.51-26.95-18.12-58.52-39.32-70.51-8.74-4.93-16.73-5.78-23.06-3.17l-.9.39z" fill="url(#bs)"/></g><path d="M756.64 138.84 597.5 46.68a6.08 6.08 0 0 0-9.12 5.32v157.43a13.91 13.91 0 0 0 6.92 12l158.45 91.71a6.71 6.71 0 0 0 10.06-5.83V151.24a14.36 14.36 0 0 0-7.17-12.4z" fill="url(#ay)"/><path d="M763.8 337.6v39a5.81 5.81 0 0 1-8.72 5.06L593 287.79a9.21 9.21 0 0 1-4.58-7.94v-41.54a4.22 4.22 0 0 1 6.32-3.67L759.43 330a8.78 8.78 0 0 1 4.37 7.6z" fill="url(#bt)"/><path d="m605.11 85.14.43-.18-.31.11z" fill="none" stroke="#000" stroke-miterlimit="10"/><path d="m582.63 28.13.3-.11a9.32 9.32 0 0 1 4-.3 8.69 8.69 0 0 1 3.12 1.09l5.57 3.19 251.09 145.42a21.36 21.36 0 0 1 10.64 18.49v238.27a11.68 11.68 0 0 1-1.35 5.62c-.08.14-.18.29-.26.44a11.14 11.14 0 0 1-2.35 2.76 11.38 11.38 0 0 1-1.73 1.25l4.48-2.21a11.59 11.59 0 0 0 6.48-10.47V193.3a21.36 21.36 0 0 0-10.64-18.48L600.83 29.43l-5.57-3.22a8.74 8.74 0 0 0-7.11-.79l-1.21.48-.53.28z" fill="#cad8fc"/><g mask="url(#aA)"><path d="M734.78 245.86c.47-9 2.34-53.92-7-59.34a4.91 4.91 0 0 0-4.1-.45c-4.64 1.55-8.22 9.89-12.35 19.54-3.31 7.72-7.43 17.33-10.94 18.5a1.82 1.82 0 0 1-1.59-.2c-5-2.89-5.61-25.22-6.11-43.16-.73-26.32-1.63-42.57-7.88-46.19a4.45 4.45 0 0 0-4-.32c-5 2-8.21 12.82-13.1 30.28-3.8 13.58-8.54 30.49-13.55 32.54a2.21 2.21 0 0 1-2.13-.24c-6.77-3.92-6.32-27.44-6-46.33.45-23.52.41-38.12-5.71-41.67a4.07 4.07 0 0 0-4-.25c-4.85 2.32-7.15 14.91-10.37 35.36-2 13.09-4.87 31-8.38 32.69-.12.06-.27.13-.68-.1-4.48-2.6-4.57-23-3.2-36.57l-3.52-.35c-.59 5.86-3.12 35.31 4.95 40a4.09 4.09 0 0 0 4 .23c4.84-2.31 7.14-14.89 10.36-35.34 2-13.09 4.87-31 8.39-32.71.11 0 .27-.13.68.11 4.63 2.69 4.27 21.74 4 38.54-.44 22.89-.85 44.51 7.73 49.47a5.75 5.75 0 0 0 5.22.45c6.62-2.7 11-18.32 15.63-34.86 3.3-11.8 7.41-26.48 11-28a.89.89 0 0 1 .91.11c5 2.89 5.62 25.25 6.12 43.22.73 26.29 1.62 42.51 7.87 46.13a5.38 5.38 0 0 0 4.48.5c5-1.67 8.93-10.8 13.07-20.47 3.15-7.37 7.08-16.53 10.22-17.58a1.36 1.36 0 0 1 1.21.16c5.49 3.17 6.37 34.71 5.25 56.08z" fill="url(#bu)"/></g><path d="M742.42 250.08c.4-7.62 2-45.86-6.07-50.53a4.42 4.42 0 0 0-3.69-.41c-4.06 1.35-7.1 8.47-10.63 16.71-2.79 6.5-6.25 14.58-9.11 15.53a1.28 1.28 0 0 1-1.13-.15c-4.1-2.37-4.62-21.21-5-36.35-.62-22.4-1.39-36.22-6.82-39.36a4 4 0 0 0-3.63-.29c-4.33 1.76-7.1 11-11.27 25.83-3.2 11.46-7.2 25.72-11.32 27.4a1.61 1.61 0 0 1-1.56-.18c-5.6-3.24-5.23-23.08-4.92-39 .38-20 .34-32.46-5-35.55a3.77 3.77 0 0 0-3.62-.21c-4.31 2.06-6.2 12.8-8.93 30.16-1.64 10.41-4.11 26.14-7 27.5 0 0-.11 0-.33-.08-2.22-1.29-4.49-11.67-2.58-30.72l-3.52-.36c-.5 5-2.65 30.11 4.33 34.15a3.78 3.78 0 0 0 3.62.21c4.31-2.06 6.2-12.8 8.92-30.15 1.64-10.41 4.12-26.15 7-27.51 0 0 .1-.05.32.08 3.79 2.2 3.47 18.95 3.21 32.42-.37 19.47-.72 37.87 6.69 42.16a5.12 5.12 0 0 0 4.66.39c5.73-2.33 9.45-15.64 13.4-29.72 2.78-9.94 6.25-22.31 9.19-23.51.11 0 .24-.1.53.07 4.11 2.38 4.64 21.25 5.06 36.4.62 22.37 1.39 36.18 6.8 39.32a4.84 4.84 0 0 0 4 .45c4.36-1.46 7.7-9.25 11.23-17.5 2.66-6.19 6-13.89 8.5-14.74a.88.88 0 0 1 .81.11c4.55 2.63 5.26 29.23 4.31 47.27z" fill="url(#bv)"/><g mask="url(#bw)"><path d="M756.18 150.83v12.35a1 1 0 0 1-1.45.83l-10.61-6.14a1.94 1.94 0 0 1-1-1.67V144a1 1 0 0 1 1.54-.9l10.57 6.11a1.85 1.85 0 0 1 .95 1.62z" fill="url(#aC)"/></g><path d="M726.42 266.28v7.59a1.1 1.1 0 0 1-1.65.95l-16.06-9.29a2.18 2.18 0 0 1-1.1-1.9v-7.88a1 1 0 0 1 1.5-.87l16.11 9.33a2.36 2.36 0 0 1 1.2 2.07z" fill="url(#bx)"/><path d="M679.64 239.16v7.59a1.1 1.1 0 0 1-1.65.95l-16.07-9.29a2.2 2.2 0 0 1-1.09-1.9v-7.88a1 1 0 0 1 1.5-.87l16.11 9.33a2.37 2.37 0 0 1 1.2 2.07z" fill="url(#aE)"/><path d="M632.88 212.19v7.58a1.1 1.1 0 0 1-1.65 1l-16.07-9.29a2.21 2.21 0 0 1-1.09-1.9v-7.88a1 1 0 0 1 1.5-.87l16.11 9.32a2.4 2.4 0 0 1 1.2 2.04z" fill="url(#by)"/><path d="M759.68 276.56a22.78 22.78 0 0 1 8.71-1.14 29.13 29.13 0 0 1 4.59.65 40.51 40.51 0 0 1 11.23 4.45c23.58 13.32 43.16 48.43 43.72 78.4a52.71 52.71 0 0 1-2.26 17.23 30.27 30.27 0 0 1-5.38 10.16 21.69 21.69 0 0 1-6.62 5.45l15.9-6.79 1.63-.69c9.42-4.52 15.27-16.21 14.95-33.2-.57-30-20.14-65.07-43.72-78.4-9.72-5.49-18.6-6.43-25.65-3.53l-1 .44z" fill="url(#n)"/><path d="M807.23 347.22a31.4 31.4 0 0 1-.16 3.95l20.15 18.53a60.36 60.36 0 0 0 .71-10.79c-.44-23.59-12.67-50.38-29.36-67.2l-12.33 16.05c11.45 7.46 20.76 24.67 20.99 39.46z" fill="url(#bz)"/><path d="M752.5 349.77c8 16.87 20.25 31.65 33.75 39.28 10.52 5.94 20 6.56 27.34 2.74h.08a21.62 21.62 0 0 0 6.61-5.44 30.29 30.29 0 0 0 5.38-10.16 44.45 44.45 0 0 0 1.55-6.45L814 357.51l-2.81-2.51-4.12-3.79a24.58 24.58 0 0 1-1 4.83v.11a15.84 15.84 0 0 1-2.77 5.23 11.37 11.37 0 0 1-3.42 2.8c-3.76 2-8.66 1.65-14.08-1.41a30.48 30.48 0 0 1-4.46-3.09c-7.18-5.9-13.16-15.46-16.12-25.35z" fill="url(#bA)"/><path d="m751.65 281.64 5.35 9.16 10.19 17.37a10.93 10.93 0 0 1 3.38-2.75l1.47-.64a11.84 11.84 0 0 1 4.42-.59h.07a15.55 15.55 0 0 1 2.37.34 21.1 21.1 0 0 1 5.78 2.29c.52.29 1 .61 1.54.94l12.33-16.05a66.66 66.66 0 0 0-14.35-11.2 40.58 40.58 0 0 0-11.2-4.44 28.12 28.12 0 0 0-4.6-.65 22.78 22.78 0 0 0-8.71 1.13l-2.85 1.24a20.84 20.84 0 0 0-5.19 3.85z" fill="url(#aG)"/><path d="M765.18 334.31c3 9.89 8.94 19.45 16.12 25.35a30.48 30.48 0 0 0 4.46 3.09c5.42 3.06 10.32 3.37 14.08 1.41a11.37 11.37 0 0 0 3.42-2.8 15.84 15.84 0 0 0 2.77-5.23v-.11c-.7-.31-1.41-.67-2.12-1.07-9.09-5.15-17-16.56-20.58-28.44z" fill="url(#bB)"/><path d="m767.21 308.17 9.27-4a11.84 11.84 0 0 0-4.42.59l-1.47.64a10.93 10.93 0 0 0-3.38 2.77z" fill="url(#bC)"/><path d="M736.56 409.16a7.6 7.6 0 0 1 .76-.37z" fill="none" stroke="#000" stroke-miterlimit="10"/><path d="M731.82 411.54a5.34 5.34 0 0 1 5 .18l3.66 2.12 111.08 64.32a11.59 11.59 0 0 1 5.78 10v117.31a6.51 6.51 0 0 1-1.32 4 6.42 6.42 0 0 1-1.93 1.7l4.07-2.08a6.15 6.15 0 0 0 1.37-.71h.07a6.5 6.5 0 0 0 2.92-5.46V485.58a11.6 11.6 0 0 0-5.79-10L742.9 409.61l-.86-.49a5.3 5.3 0 0 0-3.72-.64l-1 .31-.74.36z" fill="#cad8fc"/><path d="M728.73 416.41V536a11.13 11.13 0 0 0 5.54 9.63l113.28 65.6a6.48 6.48 0 0 0 6 .27l.56-.29a6.42 6.42 0 0 0 1.93-1.7 6.51 6.51 0 0 0 1.32-4V488.2a11.59 11.59 0 0 0-5.78-10l-111.09-64.36-3.66-2.12a5.34 5.34 0 0 0-5-.18 5.34 5.34 0 0 0-3.1 4.87z" fill="#f3f6ff"/><path d="M579 322.63a5.16 5.16 0 0 1 2.88-.51 5.08 5.08 0 0 1 2.13.69l3.66 2.12 111.08 64.31a11.6 11.6 0 0 1 5.78 10.05V516.6a6.49 6.49 0 0 1-3.25 5.67l4.07-2.08a6.6 6.6 0 0 0 1.37-.71h.07a6.49 6.49 0 0 0 2.92-5.45V396.69a11.6 11.6 0 0 0-5.71-10.06L590.08 320.7l-.86-.49a5.3 5.3 0 0 0-3.72-.64l-1 .3-.74.37z" fill="#cad8fc"/><path d="M575.91 327.5v119.6a11.1 11.1 0 0 0 5.54 9.62l113.28 65.61a6.45 6.45 0 0 0 6 .26l.56-.28a6.49 6.49 0 0 0 3.25-5.67V399.33a11.6 11.6 0 0 0-5.78-10.05l-111.09-64.35-3.67-2.12a5.08 5.08 0 0 0-2.13-.69 5.16 5.16 0 0 0-2.88.51 5.33 5.33 0 0 0-3.08 4.87z" fill="#f3f6ff"/><path d="M845.69 492.76v44.35a3.46 3.46 0 0 1-5.19 3l-38.12-22.07a6.92 6.92 0 0 1-3.44-6v-43.73a3.7 3.7 0 0 1 5.54-3.22L842.39 487a6.63 6.63 0 0 1 3.3 5.76z" fill="url(#aI)"/><g mask="url(#bD)"><path d="M787.18 475.94a1.18 1.18 0 0 0 .59-2.2l-23.39-13.55a1.18 1.18 0 0 0-1.17 2.05l23.38 13.54a1.16 1.16 0 0 0 .59.16z" fill="url(#bE)"/></g><g mask="url(#aL)"><path d="M787.18 489.46a1.18 1.18 0 0 0 .59-2.2L752.69 467a1.18 1.18 0 0 0-1.18 2l35.08 20.3a1.26 1.26 0 0 0 .59.16z" fill="url(#bF)"/></g><g mask="url(#bG)"><path d="M787.21 503a1.17 1.17 0 0 0 1-.59 1.19 1.19 0 0 0-.43-1.62L741 473.74a1.18 1.18 0 1 0-1.17 2l46.8 27.07a1.16 1.16 0 0 0 .58.19z" fill="url(#aN)"/></g><path d="M845.67 560.18v28.9a4.33 4.33 0 0 1-6.49 3.76l-95.11-55a7.34 7.34 0 0 1-3.66-6.36V501a3.43 3.43 0 0 1 5.14-3l96.5 55.9a7.24 7.24 0 0 1 3.62 6.28z" fill="url(#bH)"/><g mask="url(#bI)"><path d="m687 434.52-13.74-8a3.59 3.59 0 0 0-5.39 3.12v40.8A6.33 6.33 0 0 0 671 476l14.13 8.18a3.09 3.09 0 0 0 4.63-2.68v-42.19a5.53 5.53 0 0 0-2.76-4.79z" fill="url(#aQ)"/></g><g mask="url(#bJ)"><path d="M651.06 388.46 634.17 379a2.18 2.18 0 0 0-3.24 1.9v67.94a6.32 6.32 0 0 0 3.15 5.47l14.14 8.18a3.08 3.08 0 0 0 4.62-2.67l.38-67.68a4.23 4.23 0 0 0-2.16-3.68z" fill="url(#bK)"/></g><g mask="url(#aT)"><path d="M606.7 387.92 593 380a3.59 3.59 0 0 0-5.39 3.12v40.8a6.33 6.33 0 0 0 3.15 5.48l14.13 8.18a3.08 3.08 0 0 0 4.62-2.68v-42.19a5.54 5.54 0 0 0-2.81-4.79z" fill="url(#bL)"/></g><g mask="url(#bM)"><path d="M647.66 875c-.87-16.46-4.31-99.1 13.12-109.19a9.51 9.51 0 0 1 8-.88c8.76 2.92 15.35 18.3 23 36.11 6 14 13.5 31.49 19.67 33.55a2.75 2.75 0 0 0 2.46-.33c8.84-5.12 10-45.82 10.88-78.53 1.35-48.4 3-78.28 14.73-85.07a8.7 8.7 0 0 1 7.86-.62c9.35 3.82 15.34 23.7 24.33 55.83 6.94 24.75 15.57 55.56 24.48 59.2a3.46 3.46 0 0 0 3.37-.4c12.1-7 11.29-49.87 10.63-84.32-.82-43.28-.74-70.15 10.74-76.82a8.18 8.18 0 0 1 7.83-.46c9.31 4.45 13.4 27.66 19.3 65.17 3.54 22.49 8.88 56.48 15 59.42.1.05.22.11.7-.17 4.8-2.78 9.7-25.21 5.57-66.38l7.6-.77c1.09 10.79 5.73 65-9.35 73.78a8.16 8.16 0 0 1-7.81.46c-9.31-4.46-13.39-27.66-19.29-65.15-3.54-22.5-8.88-56.51-15-59.45-.1-.05-.22-.1-.71.18-8.17 4.75-7.48 41-6.93 70 .8 42.09 1.56 81.84-14.45 91.11a11.12 11.12 0 0 1-10.07.85c-12.38-5-20.43-33.79-29-64.22-6-21.48-13.5-48.21-19.86-50.8-.25-.11-.52-.21-1.16.16-8.87 5.13-10 45.89-10.91 78.64-1.35 48.34-3 78.18-14.7 85a10.37 10.37 0 0 1-8.68 1c-9.44-3.14-16.65-20-24.28-37.8-5.73-13.38-12.87-30-18.37-31.86a1.9 1.9 0 0 0-1.74.24c-9.83 5.69-11.36 63.16-9.31 102.16z" fill="url(#bN)"/></g><path d="M141.63 569.66c5.6-25.89 34.76-47.78 75.17-53.19C268.29 509.56 318.52 532 329 566.6c.37 1.23.69 2.46.94 3.69a43.13 43.13 0 0 0-.94-21.95c-10.49-34.6-60.72-57-112.21-50.15-49.65 6.66-82.33 38.19-75.16 71.47z" fill="#335089"/><path d="M141.63 569.66c.26 1.22.58 2.43 1 3.66 10.49 34.58 60.73 57 112.21 50.13 40.4-5.41 69.56-27.28 75.16-53.16-.25-1.23-.57-2.46-.94-3.69-10.49-34.59-60.72-57-112.21-50.13-40.46 5.41-69.62 27.3-75.22 53.19z" fill="url(#bO)"/><g mask="url(#bP)"><path d="M126.08 323.38a112.28 112.28 0 0 0 129.57 111.19 111.31 111.31 0 0 1-46.51-18.66 112.63 112.63 0 0 1 46.51-203.71 110.38 110.38 0 0 0-17.35-1.36c-61.98 0-112.22 50.39-112.22 112.54z" fill="url(#bQ)"/></g><g mask="url(#bR)"><path d="M243.55 569.46a7 7 0 0 0 3.63-1l52.5-31.81a8.12 8.12 0 0 0 3.88-6.9v-10.28a6 6 0 0 1 3-5.17l31.28-18.3 53.31 30.86A13.7 13.7 0 0 0 411.69 515V241a15.6 15.6 0 0 1 23.43-13.53l135.89 79a1.77 1.77 0 0 0 1.78-3.07l-135.9-79a19.13 19.13 0 0 0-28.73 16.6v274a10.17 10.17 0 0 1-15.25 8.82l-55.08-31.89-33.08 19.33a9.54 9.54 0 0 0-4.72 8.23v10.26a4.57 4.57 0 0 1-2.18 3.87l-52.5 31.8a3.43 3.43 0 0 1-3.51.06 3.46 3.46 0 0 1-1.77-3.05v-32a1.77 1.77 0 1 0-3.54 0v32a7.05 7.05 0 0 0 7 7.05z" fill="url(#bS)"/></g><path d="M160.79 323.38a112.46 112.46 0 0 0 48.35 92.53 111.31 111.31 0 0 0 46.51 18.66 111.28 111.28 0 0 0 46.53-18.66 112.64 112.64 0 0 0-46.53-203.71 112.44 112.44 0 0 0-94.86 111.18z" fill="url(#bT)"/><g mask="url(#bU)"><path d="M174.42 415.91s6 20 10.29 37.6a112.09 112.09 0 0 0 107.18 0c4.28-17.6 10.29-37.6 10.29-37.6a112 112 0 0 1-127.76 0z" fill="url(#bV)"/></g><path d="M184.71 453.51c2.39 9.79 4.24 18.84 4.24 23.28a3 3 0 0 0 .12.94 52.59 52.59 0 0 0 .84 6.31 112.28 112.28 0 0 0 96.77 0 50.66 50.66 0 0 0 .85-6.31 3.3 3.3 0 0 0 .12-.94c0-4.44 1.85-13.49 4.24-23.28a112.09 112.09 0 0 1-107.18 0z" fill="url(#bW)"/><path d="M189.91 484a49.61 49.61 0 0 0 29.71 36 49.35 49.35 0 0 0 37.35 0 49.56 49.56 0 0 0 29.71-36 112.28 112.28 0 0 1-96.77 0z" fill="url(#bX)"/><path d="M219.62 520.06a22.07 22.07 0 0 0 37.35 0 49.35 49.35 0 0 1-37.35 0z" fill="url(#bY)"/><path d="M226 399.52c.09-.55 2.29-13.77 2.29-40.85a226.6 226.6 0 0 0-3-37 93.13 93.13 0 0 0-2.83-12A195.64 195.64 0 0 0 258 292.43c.23 7.74 1 17.55 2.53 30 3.06 25 7.8 49 7.84 49.28l5.78-1.14c-7.05-35.73-10.19-64.29-10.28-82.12 7.52-5.45 12.91-11.05 13.64-16 .32-2.08.11-6-4.77-8.83-4.19-2.42-7.16-1.43-8.91-.17-2.68 1.92-5.65 6.49-5.89 22a162.28 162.28 0 0 1-20.6 11.61 173 173 0 0 1-17 7.16c-2-4.21-4.35-6.7-7.08-7.55-4.13-1.28-8.32 1.14-12.44 7.2-2 2.95-2.35 5.45-1 7.42 1.76 2.6 5.61 3.05 12.48 1.48 1.37-.31 2.92-.73 4.59-1.24 3.24 10.52 5.55 28.61 5.55 47.09 0 26.5-2.19 39.73-2.21 39.86zm-11.27-93.45c-4.75 1.36-7.86 1.79-9.44 1.75l.36-.56c2.33-3.42 4.56-5.29 5.84-4.89 1.14.34 2.23 1.63 3.27 3.7zm53.1-37.94a4 4 0 0 1 1.9.68c2.12 1.23 2.43 2.33 1.29 4.55s-3.58 4.81-7 7.65c.4-7.09 1.51-11.46 3.22-12.68a.94.94 0 0 1 .62-.2z" fill="#fff"/><g mask="url(#bZ)"><path d="M946.36 375s-2.2 156.85-3.21 304.21c0 0-2.26-237.36-3.2-304.21z" fill="url(#ca)"/></g><path d="M346.79 649.93s3.37 10.81-2.7 10.25-19-7.55-18.41-10.25 14.3-.3 14.3-.3l4.34-1.61z" fill="url(#cb)"/><path d="M362.35 646.21s3.34 10.7-2.67 10.14-18.79-7.47-18.24-10.14 14.16-.3 14.16-.3l4.3-1.6z" fill="url(#cc)"/><path d="M354.52 583.2s-3.38 11.62-3 18.55-4.63 49.66-4.63 49.66-.58 1-2.63.83a5.93 5.93 0 0 1-3.22-1.09s-.65-68 1-72.66 12.44-2.57 12.44-2.57z" fill="url(#o)"/><path d="M369.65 580.66s-3.34 11.51-3 18.37-4.58 49.18-4.58 49.18-.57 1-2.61.83a5.79 5.79 0 0 1-3.18-1.09s-.65-67.33 1-71.94 12.31-2.55 12.31-2.55z" fill="url(#cd)"/><path d="M333.31 583s4.82-2.22 8.48-2.11c8 .24 7.14 2.4 15.63 2.82s16.95-5.4 16.95-5.4c0-1.09 2.13-4.78.11-12-1.89-6.73-1.05-9.22-.2-12.56a7.94 7.94 0 0 0-7.81-2.42c-6.83 1.45-19-2.21-19-2.21a34.06 34.06 0 0 0 14.49-.1c1.61-.38 3.06-.75 4.37-1.14a36.37 36.37 0 0 0 8.64-3.51l-5.36-.44c-4-.32-9.61-.77-14.84-1.14-7.08-.52-13.44-.91-14-.7-1.35.47-3.66 3.51-3.66 3.51z" fill="url(#ce)"/><path d="M373.76 480.81s9.78 18.07 9.2 25.52-19.57 10.77-19.57 10.77l.87-19.24z" fill="url(#cf)"/><path d="M602.88 499s4.77 21.28 8.46 26.36c2.62 3.62 4.4 25.91 5.21 38.51l.67 1v-1.47c-1.28-18.8-3-37.56-4.65-41.37-3.61-8.1-6.07-18.2-5.45-21.66a3.38 3.38 0 0 1 .63-1.36z" fill="url(#cg)"/><path d="M619.66 605.75a12.11 12.11 0 0 0-1.38 6.41c.36 3.35 1.38 5.12 8.75 3.54s19-2.11 19.13-4.88-17.5-5.33-17.5-5.33z" fill="url(#ch)"/><path d="M607.53 597.44a12 12 0 0 0-1.38 6.41c.36 3.35 1.38 5.12 8.75 3.54s19-2.1 19.13-4.87-17.5-5.34-17.5-5.34z" fill="url(#ci)"/><path d="M600.46 513.7c1.81 4 3.58 25 4.9 45s2.17 38.73 2.17 38.73 1.43 2 5 1.51 4-1.77 4-1.77l.25-11.84.27-12.79.17-7.67-.67-1c-.81-12.6-2.59-34.89-5.21-38.51-3.69-5.08-8.46-26.36-8.46-26.36h4.89a3.38 3.38 0 0 0-.63 1.36c-.62 3.46 1.84 13.56 5.45 21.66 1.7 3.81 3.37 22.57 4.65 41.37l1.31-62v-2.1l-.41-.31-2.42-1.84-1.72-1.31-.15-.1-11.3-8.51s-6.9 1.38-7.53 4.84 1.83 13.56 5.44 21.64z" fill="url(#cj)"/><path d="M612.59 522c1.7 3.81 3.37 22.57 4.65 41.37 0 .57.08 1.12.11 1.69q.23 3.3.44 6.54c.27 4.48.53 8.83.76 12.84.7 12.21 1.11 21.29 1.11 21.29s1.43 2 5 1.5 4-1.76 4-1.76l.56-26.34.23-10.73.23-11.25.8-37.69.25-11.88-11.44-8.58-4.62-3.48c-.07 0-.38.08-.81.2a13.68 13.68 0 0 0-5.6 2.74 5.76 5.76 0 0 0-.47.53 3.38 3.38 0 0 0-.63 1.36c-.64 3.47 1.84 13.57 5.43 21.65z" fill="url(#ck)"/><path d="M666.2 418.27a6.76 6.76 0 0 0 3.56-2.67c3-4.32-1.65-4.15 2.68-8.18 1.52-1.42-.35-3.23-3.46-4.22s-7.5 6.47-6.86 12.35 4.08 2.72 4.08 2.72z" fill="url(#q)"/><path d="M626.17 394.44a6.31 6.31 0 0 0 3.4-2.39c3-3.94-1.4-3.93 2.76-7.56 1.48-1.29-.22-3-3.1-4.06s-7.22 5.82-6.8 11.34 3.74 2.67 3.74 2.67z" fill="url(#cl)"/><path d="M600.43 438.21s15.93-48.51 24.78-45.95c7.9 2.27-11.74 46.87-11.74 46.87z" fill="url(#cm)"/><path d="m611.3 429.14-.64 8.09s3.67 3.73 3.86 3.76 6.7-.67 6.7-.67 0-8.81.39-10.06L622 429l-9.57-2.43z" fill="url(#cn)"/><path d="M626 413s4.36 9.66 3.2 10.26.52 8.17-4.21 8a14.48 14.48 0 0 1-12.9-7.83c-3.05-5.73 4.73-13.53 4.73-13.53l5.78-1.54z" fill="url(#co)"/><path d="M625.74 399.43s6.66 8.92.25 13.54-5.8 6.49-4.81 8.37a4 4 0 0 1 .37 3.3s-5.49-6.62-6.15-2.57 5.72 5.17 1.84 7-12.64-.64-14.23-8.71 3.82-11.11 3.82-11.11-.42-4.88 3.07-6.68 6.38.29 7.86-.56-.74-5.21 2.41-6.57c1.73-.79 5.57 3.99 5.57 3.99z" fill="#012860"/><path d="M592.38 496.62a12.23 12.23 0 0 0 5 3.59c.89.37 1.57.59 1.57.59l1.58-6.47.73 7.13s2.26 1.62 12.37 4 20.62.21 20.62.21 1.25-4.23.15-11.48-2.33-7.37-3.32-21.69 11.32-22.12 21.92-33.72 16.83-18.75 11.34-23.1c-3.27-2.6-16.69 10.77-26.83 18.36l-.12.1c-4.65 3.47-8.59 5.7-10.53 4.57-2.27-1.32-4.3-2.49-6-3.44a19.25 19.25 0 0 0-15.7-1.6l-.76.27c-6 2.3-6.56 9.06-5.63 18.72 0 .29.06.58.09.88 1.05 10.12-1.81 16.88-4 25.08a89.83 89.83 0 0 0-2.48 18z" fill="url(#cp)"/><g mask="url(#cq)"><path d="M626.87 438.71c2 1.62 3.71 7.37 6.4 9.26s0-2.88-.53-6.31c-.5-3.08 3.81-6.81 4.66-7.52-4.65 3.47-8.59 5.7-10.53 4.57z" fill="url(#r)"/></g><g mask="url(#cr)"><path d="M592.38 496.62a12.23 12.23 0 0 0 5 3.59 7.56 7.56 0 0 0 .49-4.31c-.81-6.76 5.59-4 10.37-6.22s-6.77-9.37-7.7-14.42 1.29-9.27 6.5-11.43-8.23-11.18-8.23-11.18c0 .29.06.58.09.88 1.05 10.12-1.81 16.88-4 25.08a89.83 89.83 0 0 0-2.52 18.01z" fill="url(#cs)"/></g><path d="M346.45 451.72s-3.5 5.22-2.65 7.09c.42.91-3.39 6.06-.88 7.8 3.43 2.38 8.67 2.06 14.2-2.39s2.06-12.5 2.06-12.5l-5.72-4.72z" fill="url(#ct)"/><path d="M318.48 472.28s-5.33-14.55-6.25-13.63 1.12 5.57-.53 7.48-3.83 2.79-1.67 5.5 8 5.92 8 5.92z" fill="url(#cu)"/><path d="M330.17 508.56c7.52-3.85 10.38-9 10.73-9.69-.23.54-1.69 4.13-.91 5.92a10.42 10.42 0 0 0 1 1.65l.08.12.11.15a.83.83 0 0 0 .08.12 4.63 4.63 0 0 1 .79 4.35c-.56 1.9-1.62 3.82-2.71 7.08a53.72 53.72 0 0 0-2.1 8.83 145.51 145.51 0 0 0-1.72 17.62s.55.33 1.54.83a41.76 41.76 0 0 0 10.38 3.52 34.06 34.06 0 0 0 14.49-.1c1.61-.38 3.06-.75 4.37-1.14a36.37 36.37 0 0 0 8.64-3.51c2.22-1.35 2.61-2.28 2.61-2.28s-.12-1.15-.32-3c-.64-5.78-2.11-18.43-3.28-23.9-1-4.72.15-10.89 1-17.4a65.62 65.62 0 0 0 .68-10.47c-.41-13-16-13.49-16-13.49s-11.23-.6-17.57 7.91c-4.28 5.74-8.18 9.6-10.7 10.59-1.21.49-2.1.3-2.54-.66-.3-.63-.83-2.07-1.52-3.89-2.58-6.76-7.43-18.94-11.22-16.4-4.85 3.22 6.03 41.37 14.09 37.24z" fill="url(#cv)"/><path d="M350.57 532.93a30.83 30.83 0 0 1-6-1.55 15 15 0 0 1-3.86-3s.92 3.61 2.56 5.45a9.39 9.39 0 0 0 2.12 2s-.89-3.1.81-2.86a21.77 21.77 0 0 0 4.37-.04z" fill="url(#cw)"/><g mask="url(#cx)"><path d="M339.35 518.26c.23-.25 4.11-4.55 6.64-5.25s2.46-.92-.34-2.32a13.34 13.34 0 0 1-4.38-3.86 4.63 4.63 0 0 1 .79 4.35c-.56 1.9-1.62 3.82-2.71 7.08z" fill="url(#s)"/></g><g mask="url(#cy)"><path d="M363.39 526.44c3.54 3 7.14 6.52 8.75 9.65 1.2 2.32 1.29 4.43-.56 5.95a23.06 23.06 0 0 0-2 1.84 35.6 35.6 0 0 0-3.28 4 36.37 36.37 0 0 0 8.64-3.51c2.22-1.35 2.61-2.28 2.61-2.28s-.12-1.15-.32-3c-.64-5.78-2.11-18.43-3.28-23.9-1-4.72.15-10.89 1-17.4 0 0-9 6.2-6.55 9.09s4.15 8.56 1.74 10.27-12.92 4.08-6.75 9.29z" fill="url(#cz)"/></g><g mask="url(#cA)"><path d="M327.43 493.63c-.19 1.79 3.93-1.34 3.93-1.34-1.21.49-2.1.3-2.54-.66-.3-.63-.83-2.07-1.52-3.89.51 1.36.32 4.11.13 5.89z" fill="url(#cB)"/></g><path d="M347.44 549.08s12.2 3.66 19 2.21a7.94 7.94 0 0 1 7.81 2.42l.2-.77a32.06 32.06 0 0 0 .47-8.62 36.37 36.37 0 0 1-8.64 3.51c-1.31.39-2.76.76-4.37 1.14a34.06 34.06 0 0 1-14.49.1z" fill="url(#cC)"/><path d="M346.45 451.72s4.87 1 2.67 7.83-4.41 10.15-1.05 12.57 1.74 4.35.83 6.57c-2.09 5-2.86 13.21 8.22 12.34s20.64-6.75 17.48-14.95c-1.75-4.56-8.87-6.57-5.14-9.92 1.93-1.74 2-7 0-12.51-2.54-7.18-6.72-12-14.36-10.82s-8.65 8.89-8.65 8.89z" fill="#012860"/><g mask="url(#cD)"><ellipse cx="943.15" cy="356.12" rx="23.73" ry="23.8" fill="url(#cE)"/></g><g mask="url(#cF)"><path d="M332.54 707.73s-1.1 43.32-1.6 84c0 0-1.13-65.56-1.6-84z" fill="url(#cG)"/></g><g mask="url(#cH)"><ellipse cx="330.94" cy="698.31" rx="11.87" ry="11.9" fill="url(#cI)"/></g><g mask="url(#cJ)"><path d="M100.85 443.41s-1.1 90-1.6 174.61c0 0-1.13-136.24-1.6-174.61z" fill="url(#cK)"/></g><g mask="url(#cL)"><path d="M87.38 434a11.87 11.87 0 1 0 11.87-11.9A11.89 11.89 0 0 0 87.38 434z" fill="url(#cM)"/></g></svg>