<svg width="244" height="244" xmlns="http://www.w3.org/2000/svg"><defs><filter x="-28.3%" y="-17.2%" width="156.6%" height="134.5%" filterUnits="objectBoundingBox" id="a"><feGaussianBlur stdDeviation="9.6" in="SourceGraphic"/></filter><filter x="-43.5%" y="-264%" width="187%" height="628%" filterUnits="objectBoundingBox" id="b"><feGaussianBlur stdDeviation="9.6" in="SourceGraphic"/></filter><filter x="-55.6%" y="-45.5%" width="211.1%" height="190.9%" filterUnits="objectBoundingBox" id="c"><feGaussianBlur stdDeviation="9.6" in="SourceGraphic"/></filter><filter x="-46.9%" y="-107.1%" width="193.8%" height="314.3%" filterUnits="objectBoundingBox" id="d"><feGaussianBlur stdDeviation="9.6" in="SourceGraphic"/></filter><filter x="-71.4%" y="-71.4%" width="242.9%" height="242.9%" filterUnits="objectBoundingBox" id="e"><feGaussianBlur stdDeviation="9.6" in="SourceGraphic"/></filter></defs><g fill="none" fill-rule="evenodd"><path d="M0 0h244v244H0z"/><g transform="translate(22 19)"><path d="m163.695 196.701-3.994 3.994a.999.999 0 0 1-1.414 0l-3.994-3.994a.999.999 0 0 1 0-1.414l3.994-3.994a.999.999 0 0 1 1.414 0l3.994 3.994a.999.999 0 0 1 0 1.414" fill="#BBD9FA"/><path d="m17.185 62.445-7.739 7.74a.999.999 0 0 1-1.414 0l-7.739-7.74a.999.999 0 0 1 0-1.414l7.74-7.738a.999.999 0 0 1 1.413 0l7.74 7.738a.999.999 0 0 1 0 1.414" fill="#FFBBD8"/><rect fill="#C4D8FC" transform="rotate(-45 183 164)" x="176" y="157" width="14" height="14" rx="2"/><rect fill="#33C8CD" opacity=".252" transform="rotate(-45 24 20)" x="10" y="6" width="28" height="28" rx="2"/></g><path d="M163.155 209h-75.99c-7.116 0-12.885-5.769-12.885-12.885V54.845c0-7.117 5.769-12.885 12.885-12.885h75.99c7.116 0 12.885 5.768 12.885 12.885v141.27c0 7.116-5.769 12.885-12.885 12.885" fill="#CED7E2"/><path d="M88.875 179.53h-75.99C5.77 179.53 0 173.76 0 166.644V25.374C0 18.259 5.77 12.49 12.885 12.49h75.99c7.116 0 12.885 5.768 12.885 12.885v141.27c0 7.116-5.769 12.885-12.885 12.885" fill-opacity=".3" fill="#B9C0C8" filter="url(#a)" transform="translate(74.28 41.95)"/><path d="M79.08 196.115V54.845a9.046 9.046 0 0 1 9.045-9.045h74.07a9.046 9.046 0 0 1 9.045 9.045v141.27a9.046 9.046 0 0 1-9.045 9.045h-74.07a9.046 9.046 0 0 1-9.045-9.045" fill="#FFF"/><path d="M114.518 51.947a1.44 1.44 0 1 1 .001-2.881 1.44 1.44 0 0 1 0 2.881m20.299 0h-15.36a1.44 1.44 0 0 1 0-2.88h15.36a1.44 1.44 0 1 1 0 2.88" fill="#ADCBDF"/><path d="M163.08 63.08H87.24a2.88 2.88 0 1 0 0 5.76h75.84a2.88 2.88 0 1 0 0-5.76m0 17.28H87.24a2.88 2.88 0 1 1 0-5.76h75.84a2.88 2.88 0 1 1 0 5.76m0 32.64H87.24a2.88 2.88 0 0 1-2.88-2.88V89a2.88 2.88 0 0 1 2.88-2.88h75.84a2.88 2.88 0 0 1 2.88 2.88v21.12a2.88 2.88 0 0 1-2.88 2.88m0 7.68H87.24a2.88 2.88 0 1 0 0 5.76h75.84a2.88 2.88 0 1 0 0-5.76m0 11.52H87.24a2.88 2.88 0 1 0 0 5.76h75.84a2.88 2.88 0 1 0 0-5.76m0 38.4H87.24a2.88 2.88 0 0 1-2.88-2.88V146.6a2.88 2.88 0 0 1 2.88-2.88h75.84a2.88 2.88 0 0 1 2.88 2.88v21.12a2.88 2.88 0 0 1-2.88 2.88" fill="#E5EDF5"/><path d="M159.72 193.64H91.56a6.72 6.72 0 1 1 0-13.44h68.16a6.72 6.72 0 1 1 0 13.44" fill="#34C8CD"/><path d="M120.305 155.215h-55.33a5.455 5.455 0 1 1 0-10.91h55.33a5.455 5.455 0 1 1 0 10.91" fill-opacity=".3" fill="#34C8CD" filter="url(#b)" transform="translate(33 41)"/><g fill="#1A66FF"><path d="M59.362 42.73a5.545 5.545 0 0 1 3.038 4.964V58.16c0 16.958-10.734 31.375-25.687 36.634a.705.705 0 0 1-.466 0C21.294 89.534 10.56 75.118 10.56 58.16V47.389a5.546 5.546 0 0 1 3.028-4.958l.321-.162 20.757-10.436a3.367 3.367 0 0 1 3.028 0l21.52 10.824.148.074Z" fill-opacity=".3" filter="url(#c)" transform="translate(33 126.43)"/><path d="M101.685 142.479a7.68 7.68 0 0 1 4.275 6.884v14.517c0 23.523-15.107 43.52-36.153 50.815a1.007 1.007 0 0 1-.654 0C48.106 207.4 33 187.403 33 163.88v-14.94a7.68 7.68 0 0 1 4.262-6.878l.452-.224 29.212-14.477a4.801 4.801 0 0 1 4.263.001l30.288 15.014.208.103Z"/></g><path d="M69.48 161.201a3.845 3.845 0 0 1 3.84 3.84v1.92h-7.68v-1.92a3.845 3.845 0 0 1 3.84-3.84m-1.92 12.97c0-1.056.864-1.92 1.92-1.92s1.92.864 1.92 1.92c0 .71-.384 1.325-.96 1.65v2.19c0 .528-.432.96-.96.96a.963.963 0 0 1-.96-.96v-2.19a1.886 1.886 0 0 1-.96-1.65m10.56-7.21h-.96v-1.92c0-4.233-3.446-7.68-7.68-7.68s-7.68 3.447-7.68 7.68v1.92h-.96a2.89 2.89 0 0 0-2.88 2.88v11.52a2.882 2.882 0 0 0 2.88 2.88h17.28a2.882 2.882 0 0 0 2.88-2.88v-11.52a2.89 2.89 0 0 0-2.88-2.88m39.621 19.418-1.609-2.608h-1.486v6.299h1.743v-2.605l1.605 2.605h1.489v-6.299h-1.742zm2.952 3.691h4.263v-1.721h-2.521v-.613h2.153v-1.676h-2.153v-.568h2.521v-1.722h-4.263zm10.638-6.299h-2.004l-.75 1.345-.748-1.345h-1.996l1.756 3.081-1.86 3.218h1.992l.855-1.498.854 1.498h2.009l-1.916-3.218zm.724 0v1.677h1.418v4.622h1.743v-4.622h1.418v-1.677z" fill="#FFF"/><path d="M178.56 15.36v19.2a3.839 3.839 0 0 1-3.84 3.84h-53.76a3.839 3.839 0 0 1-3.84-3.84v-19.2a3.839 3.839 0 0 1 3.84-3.84h53.76a3.839 3.839 0 0 1 3.84 3.84" fill="#E4E4E4" filter="url(#d)" transform="translate(33 41)"/><path d="M211.56 51.56v19.2a3.839 3.839 0 0 1-3.84 3.84h-53.76a3.839 3.839 0 0 1-3.84-3.84v-19.2a3.839 3.839 0 0 1 3.84-3.84h53.76a3.839 3.839 0 0 1 3.84 3.84" fill="#FFF"/><path d="M164.807 55.533h-2.723v4.002h2.643c.709 0 1.305-.06 1.788-.182.484-.122.852-.332 1.108-.628.254-.293.383-.7.383-1.216 0-.405-.102-.76-.308-1.069a1.856 1.856 0 0 0-.854-.688c-.344-.147-1.024-.219-2.037-.219m-1.69 6.119h-1.033v4.678c0 .616-.135 1.07-.406 1.362-.271.292-.627.438-1.063.438-.47 0-.835-.153-1.094-.457-.257-.305-.386-.753-.386-1.343V55.124c0-.636.141-1.094.425-1.38.286-.284.747-.429 1.384-.429h4.797c.661 0 1.229.03 1.7.085.47.057.894.173 1.27.344a3.667 3.667 0 0 1 2.013 2.071c.18.474.273.977.273 1.505 0 1.087-.307 1.954-.919 2.604-.613.649-1.543 1.109-2.788 1.38.524.278 1.024.689 1.5 1.231.478.544.902 1.122 1.277 1.734.373.613.667 1.167.875 1.66.209.494.313.832.313 1.017 0 .192-.062.382-.183.572a1.29 1.29 0 0 1-.503.446c-.212.11-.458.166-.736.166-.33 0-.608-.08-.835-.234a2.224 2.224 0 0 1-.58-.592c-.163-.239-.382-.59-.66-1.053l-1.183-1.968c-.424-.722-.803-1.27-1.137-1.649-.335-.376-.673-.635-1.018-.774-.345-.14-.78-.208-1.303-.208m17.406.963c0-1.106-.243-1.967-.729-2.583-.488-.616-1.141-.922-1.963-.922-.529 0-.997.136-1.401.41-.404.275-.716.681-.933 1.218-.22.537-.328 1.162-.328 1.877 0 .708.106 1.33.323 1.86.213.528.523.934.925 1.215.4.283.872.422 1.414.422.822 0 1.475-.31 1.963-.93.486-.618.73-1.474.73-2.567m2.72 0c0 .808-.125 1.554-.377 2.237a4.932 4.932 0 0 1-1.092 1.756 4.81 4.81 0 0 1-1.71 1.128c-.661.26-1.405.394-2.234.394-.82 0-1.56-.133-2.215-.397a4.91 4.91 0 0 1-1.703-1.139 4.86 4.86 0 0 1-1.092-1.75c-.25-.67-.373-1.414-.373-2.23 0-.82.125-1.572.376-2.253a4.918 4.918 0 0 1 1.082-1.748 4.783 4.783 0 0 1 1.71-1.12c.668-.26 1.407-.39 2.215-.39.822 0 1.566.132 2.234.397a4.85 4.85 0 0 1 1.72 1.133 4.9 4.9 0 0 1 1.09 1.748c.246.676.37 1.419.37 2.234m9.568 0c0-1.106-.245-1.967-.73-2.583-.49-.616-1.142-.922-1.964-.922-.529 0-.995.136-1.4.41-.404.275-.715.681-.933 1.218-.219.537-.329 1.162-.329 1.877 0 .708.108 1.33.323 1.86.216.528.523.934.925 1.215.4.283.872.422 1.414.422.822 0 1.475-.31 1.963-.93.486-.618.73-1.474.73-2.567m2.723 0c0 .808-.126 1.554-.378 2.237a4.918 4.918 0 0 1-1.092 1.756 4.807 4.807 0 0 1-1.71 1.128c-.662.26-1.407.394-2.236.394-.82 0-1.558-.133-2.214-.397a4.917 4.917 0 0 1-1.705-1.139 4.86 4.86 0 0 1-1.091-1.75c-.25-.67-.374-1.414-.374-2.23 0-.82.126-1.572.378-2.253a4.895 4.895 0 0 1 1.084-1.748 4.779 4.779 0 0 1 1.708-1.12c.67-.26 1.407-.39 2.214-.39.822 0 1.568.132 2.237.397s1.24.642 1.717 1.133c.477.49.84 1.072 1.089 1.748a6.46 6.46 0 0 1 .373 2.234m2.285-5.275h.299v-1.628c0-.437.01-.782.035-1.03.021-.248.086-.46.191-.64a1.23 1.23 0 0 1 .457-.452 1.32 1.32 0 0 1 .667-.175c.344 0 .655.13.933.389.187.173.304.382.355.63.048.248.073.602.073 1.058v1.848h.992c.384 0 .678.092.882.272a.91.91 0 0 1 .301.703c0 .364-.143.617-.432.764-.287.145-.7.218-1.237.218h-.506v4.986c0 .424.014.752.046.98a.974.974 0 0 0 .238.555c.127.143.338.214.63.214.158 0 .375-.027.646-.083a3.41 3.41 0 0 1 .636-.085c.218 0 .414.09.591.263a.89.89 0 0 1 .263.651c0 .438-.239.771-.716 1.002-.477.233-1.163.35-2.057.35-.848 0-1.49-.144-1.927-.428a1.973 1.973 0 0 1-.859-1.181c-.137-.504-.202-1.177-.202-2.019v-5.205h-.359c-.39 0-.688-.093-.893-.278a.905.905 0 0 1-.31-.704.88.88 0 0 1 .324-.703c.215-.18.528-.272.939-.272" fill="#1A66FF"/><path fill="#1A66FF" d="m201.432 47.72-26.88 26.88h-9.504l26.88-26.88z"/><path d="m191.246 47.72-26.88 26.88h1.363l26.88-26.88h-1.363Zm9.504 0L173.87 74.6h1.363l26.88-26.88h-1.363Z" fill="#FFF"/><path d="M167.04 96c0 11.134-9.026 20.16-20.16 20.16s-20.16-9.026-20.16-20.16 9.026-20.16 20.16-20.16 20.16 9.026 20.16 20.16" fill-opacity=".31" fill="#34C8CD" filter="url(#e)" transform="translate(33 41)"/><path d="M201.96 128.36c0 12.194-9.886 22.08-22.08 22.08-12.194 0-22.08-9.886-22.08-22.08 0-12.194 9.886-22.08 22.08-22.08 12.194 0 22.08 9.886 22.08 22.08" fill="#34C8CD"/><path d="M182.19 132.363a4.646 4.646 0 0 1-3.508.462 4.63 4.63 0 0 1-3.425-4.465c0-.417.056-.814.157-1.197a4.63 4.63 0 0 1 3.269-3.268 4.635 4.635 0 0 1 3.508.462 4.638 4.638 0 0 1 2.154 2.806 4.635 4.635 0 0 1-.462 3.507 4.638 4.638 0 0 1-1.692 1.693Zm10.17-2.27v-3.467l-3.522-.55a9.042 9.042 0 0 0-1.013-2.436l2.104-2.88-2.45-2.45-2.88 2.105a9.042 9.042 0 0 0-2.435-1.013l-.551-3.522h-3.467l-.55 3.522a9.03 9.03 0 0 0-2.435 1.013l-2.88-2.105-2.45 2.45 2.103 2.88a9.04 9.04 0 0 0-1.012 2.436l-3.522.55v3.467l3.522.55a9.04 9.04 0 0 0 1.012 2.436l-2.103 2.88 2.45 2.45 2.88-2.104c.749.449 1.57.796 2.435 1.012l.55 3.523h3.467l.551-3.523a9.011 9.011 0 0 0 2.436-1.012l2.88 2.104 2.45-2.45-2.105-2.88a9.042 9.042 0 0 0 1.013-2.435l3.522-.55Z" fill="#FFF"/></g></svg>